<svg xmlns="http://www.w3.org/2000/svg" xmlns:xlink="http://www.w3.org/1999/xlink" width="500" zoomAndPan="magnify" viewBox="0 0 375 374.999991" height="500" preserveAspectRatio="xMidYMid meet" version="1.2"><g id="5ea3bd35e0"><path style=" stroke:none;fill-rule:nonzero;fill:#5ce1e6;fill-opacity:1;" d="M 320.121094 54.921875 C 355.546875 90.335938 375.039062 137.421875 375.039062 187.519531 C 375.039062 237.621094 355.546875 284.695312 320.121094 320.121094 C 284.703125 355.535156 237.621094 375.039062 187.519531 375.039062 C 137.421875 375.039062 90.347656 355.535156 54.921875 320.121094 C 19.507812 284.703125 0 237.609375 0 187.519531 C 0 137.433594 19.507812 90.335938 54.921875 54.921875 C 90.347656 19.496094 137.433594 0 187.519531 0 C 237.609375 0 284.703125 19.496094 320.121094 54.921875 Z M 320.121094 54.921875 "/><path style=" stroke:none;fill-rule:nonzero;fill:#ffffff;fill-opacity:1;" d="M 187.519531 67.152344 C 139.863281 67.152344 101.230469 105.785156 101.230469 153.445312 C 101.230469 201.101562 187.519531 301.410156 187.519531 301.410156 C 187.519531 301.410156 273.8125 201.101562 273.8125 153.445312 C 273.8125 105.785156 235.175781 67.152344 187.519531 67.152344 Z M 187.519531 193.621094 C 165.328125 193.621094 147.34375 175.625 147.34375 153.445312 C 147.34375 131.261719 165.328125 113.265625 187.519531 113.265625 C 209.714844 113.265625 227.699219 131.261719 227.699219 153.445312 C 227.699219 175.625 209.714844 193.621094 187.519531 193.621094 Z M 187.519531 193.621094 "/></g></svg>