<svg xmlns="http://www.w3.org/2000/svg" xmlns:xlink="http://www.w3.org/1999/xlink" width="500" zoomAndPan="magnify" viewBox="0 0 375 374.999991" height="500" preserveAspectRatio="xMidYMid meet" version="1.2"><defs><clipPath id="6f75a31348"><path d="M 12.996094 5.699219 L 361.746094 5.699219 L 361.746094 354.449219 L 12.996094 354.449219 Z M 12.996094 5.699219 "/></clipPath><clipPath id="4333e939bd"><path d="M 77.019531 35 L 298.660156 35 L 298.660156 306.734375 L 77.019531 306.734375 Z M 77.019531 35 "/></clipPath><clipPath id="a696d0023f"><path d="M 77.023438 260.378906 C 77.023438 260.304688 77.25 259.253906 77.398438 258.726562 C 77.476562 258.203125 77.699219 257.078125 77.699219 257.078125 C 77.699219 257.078125 78.226562 256.101562 78.449219 255.578125 C 78.675781 255.128906 79.125 254.078125 79.125 254.078125 C 79.199219 254.078125 79.875 253.253906 80.175781 252.804688 C 80.550781 252.351562 81.226562 251.527344 81.226562 251.527344 C 81.300781 251.527344 82.125 250.851562 82.574219 250.554688 C 83.023438 250.179688 83.925781 249.578125 83.925781 249.503906 C 83.925781 249.503906 84.976562 249.351562 85.199219 248.976562 C 85.5 248.601562 85.125 248.003906 85.273438 247.027344 C 85.875 244.179688 88.351562 235.253906 90.976562 230.753906 C 93.300781 226.777344 97.050781 224.753906 99.75 221.003906 C 102.976562 216.503906 105.375 209.679688 108.601562 205.328125 C 111.300781 201.652344 114.226562 199.101562 117.375 196.253906 C 120.523438 193.402344 123.976562 190.554688 127.425781 188.078125 C 130.800781 185.679688 134.398438 184.328125 138 181.703125 C 142.050781 178.777344 146.175781 174.277344 150.449219 171.054688 C 154.574219 167.902344 161.398438 165.128906 163.273438 162.503906 C 164.175781 161.226562 164.175781 159.726562 164.25 158.828125 C 164.324219 158.304688 164.476562 157.703125 164.25 157.628906 C 163.5 157.328125 158.925781 165.277344 156.226562 165.128906 C 152.925781 164.902344 147.824219 153.652344 146.175781 152.902344 C 145.726562 152.753906 145.574219 152.976562 145.199219 152.976562 C 144.75 152.976562 143.773438 153.054688 143.773438 153.054688 C 143.699219 153.054688 142.800781 152.828125 142.273438 152.753906 C 141.824219 152.679688 140.851562 152.527344 140.851562 152.527344 C 140.851562 152.527344 139.949219 152.078125 139.5 151.929688 C 139.050781 151.703125 138.148438 151.253906 138.148438 151.253906 C 138.148438 151.253906 137.398438 150.652344 137.023438 150.351562 C 136.574219 150.054688 135.824219 149.453125 135.824219 149.453125 C 135.824219 149.453125 135.226562 148.703125 134.925781 148.253906 C 134.625 147.878906 134.023438 147.128906 134.023438 147.128906 C 134.023438 147.128906 133.648438 146.226562 133.425781 145.777344 C 133.199219 145.328125 132.824219 144.429688 132.824219 144.429688 C 132.824219 144.429688 132.675781 143.453125 132.523438 142.929688 C 132.449219 142.476562 132.300781 141.503906 132.300781 141.503906 C 132.300781 141.503906 132.375 140.527344 132.375 140.003906 C 132.449219 139.554688 132.449219 138.578125 132.449219 138.578125 C 132.523438 138.578125 132.75 137.601562 132.898438 137.152344 C 133.050781 136.703125 133.351562 135.804688 133.351562 135.726562 C 133.351562 135.726562 131.699219 123.953125 130.425781 119.152344 C 129.449219 115.253906 127.648438 111.277344 127.050781 108.953125 C 126.75 107.753906 126.601562 107.078125 126.523438 106.101562 C 126.449219 105.203125 126.523438 104.078125 126.675781 103.253906 C 126.824219 102.578125 127.199219 102.128906 127.199219 101.453125 C 127.273438 100.628906 126.976562 99.351562 126.75 98.679688 C 126.675781 98.152344 126.449219 98.152344 126.300781 97.476562 C 125.550781 95.152344 123.148438 80.078125 123.148438 80.003906 C 123.148438 80.003906 123.148438 79.027344 123.074219 78.503906 C 123.074219 78.054688 123 77.078125 123 77.078125 C 123 77.078125 123.226562 76.328125 123.148438 76.253906 C 123.148438 76.179688 123.074219 76.179688 123.074219 76.179688 C 123.074219 76.101562 122.324219 75.429688 121.949219 75.054688 C 121.648438 74.753906 120.898438 74.003906 120.898438 74.003906 C 120.898438 74.003906 120.375 73.179688 120.074219 72.726562 C 119.851562 72.277344 119.324219 71.453125 119.324219 71.453125 C 119.324219 71.378906 119.023438 70.476562 118.875 69.953125 C 118.726562 69.503906 118.425781 68.527344 118.425781 68.527344 C 118.351562 68.527344 118.351562 67.476562 118.273438 67.027344 C 118.273438 66.503906 118.199219 65.527344 118.199219 65.453125 C 118.199219 65.453125 118.351562 64.476562 118.425781 64.027344 C 118.574219 63.503906 118.726562 62.527344 118.726562 62.527344 C 118.726562 62.453125 119.101562 61.554688 119.324219 61.101562 C 119.550781 60.652344 119.925781 59.753906 119.925781 59.753906 C 119.925781 59.753906 119.925781 59.753906 119.925781 59.679688 C 119.925781 59.679688 120.601562 58.929688 120.898438 58.476562 C 121.199219 58.101562 121.800781 57.351562 121.800781 57.277344 C 121.800781 57.277344 122.625 56.679688 123 56.378906 C 123.375 56.078125 124.199219 55.402344 124.199219 55.402344 C 124.199219 55.402344 125.101562 55.027344 125.550781 54.804688 C 126 54.578125 126.300781 54.429688 126.976562 54.128906 C 128.398438 53.527344 131.175781 52.328125 133.875 51.503906 C 137.398438 50.304688 141.75 49.027344 146.476562 48.128906 C 152.175781 47.003906 165.601562 45.503906 165.675781 45.503906 C 165.675781 45.429688 166.574219 44.976562 167.023438 44.679688 C 167.476562 44.453125 168.300781 43.929688 168.375 43.929688 C 168.375 43.929688 169.351562 43.628906 169.875 43.476562 C 170.324219 43.328125 171.300781 43.027344 171.300781 43.027344 C 171.375 43.027344 172.351562 42.953125 172.875 42.953125 C 173.398438 42.953125 174.449219 42.878906 174.449219 42.878906 C 174.449219 42.878906 175.425781 43.101562 175.949219 43.179688 C 176.476562 43.328125 177.449219 43.476562 177.449219 43.476562 C 177.523438 43.476562 178.425781 43.929688 178.875 44.152344 C 179.324219 44.378906 180.300781 44.828125 180.300781 44.828125 C 180.300781 44.828125 181.125 45.503906 181.5 45.804688 C 181.875 46.101562 182.699219 46.777344 182.699219 46.777344 C 182.699219 46.777344 183.300781 47.601562 183.675781 47.976562 C 183.976562 48.429688 184.574219 49.253906 184.574219 49.253906 C 184.574219 49.253906 184.574219 49.476562 184.648438 49.476562 C 184.875 49.554688 185.625 48.804688 185.851562 48.429688 C 186.074219 48.128906 186.148438 47.828125 186.300781 47.453125 C 186.449219 47.003906 186.75 46.554688 186.976562 46.027344 C 187.199219 45.578125 187.648438 44.679688 187.648438 44.679688 C 187.648438 44.679688 188.324219 43.929688 188.625 43.476562 C 188.925781 43.101562 189.601562 42.351562 189.601562 42.351562 C 189.601562 42.351562 190.425781 41.753906 190.800781 41.453125 C 191.25 41.152344 192.074219 40.554688 192.074219 40.554688 C 192.074219 40.554688 192.976562 40.179688 193.5 39.953125 C 193.949219 39.726562 194.851562 39.351562 194.925781 39.351562 C 194.925781 39.351562 195.898438 39.203125 196.425781 39.128906 C 196.875 39.054688 197.925781 38.902344 197.925781 38.902344 C 197.925781 38.902344 198.898438 38.976562 199.425781 39.054688 C 199.949219 39.128906 200.925781 39.203125 200.925781 39.203125 C 201 39.203125 201 39.203125 201 39.203125 C 201 39.203125 201.300781 39.429688 201.75 39.503906 C 203.550781 39.578125 211.648438 34.402344 216.148438 35.679688 C 221.625 37.253906 229.125 46.851562 231.226562 51.726562 C 232.574219 54.726562 231.601562 60.054688 231.824219 60.203125 C 231.898438 60.203125 231.898438 60.203125 231.898438 60.203125 C 231.898438 60.203125 232.875 60.054688 233.398438 59.976562 C 233.925781 59.902344 234.898438 59.828125 234.898438 59.828125 C 234.898438 59.828125 235.875 59.902344 236.398438 59.976562 C 236.925781 59.976562 237.898438 60.128906 237.898438 60.128906 C 237.898438 60.128906 238.800781 60.429688 239.324219 60.652344 C 239.773438 60.804688 240.675781 61.179688 240.75 61.179688 C 240.75 61.179688 241.574219 61.703125 241.949219 62.003906 C 242.398438 62.304688 243.226562 62.828125 243.226562 62.828125 C 243.226562 62.828125 243.449219 63.277344 243.601562 63.277344 C 243.898438 63.351562 244.5 62.828125 244.949219 62.601562 C 245.324219 62.378906 246.226562 61.929688 246.226562 61.929688 C 246.300781 61.929688 247.199219 61.703125 247.726562 61.554688 C 248.175781 61.476562 249.148438 61.253906 249.148438 61.253906 C 249.148438 61.253906 250.125 61.253906 250.648438 61.253906 C 251.175781 61.253906 252.148438 61.253906 252.148438 61.253906 C 252.148438 61.253906 253.125 61.476562 253.574219 61.628906 C 254.101562 61.777344 255 62.003906 255.074219 62.003906 C 255.074219 62.003906 255.898438 62.453125 256.351562 62.679688 C 256.800781 62.902344 257.699219 63.429688 257.699219 63.429688 C 257.699219 63.429688 258.449219 64.101562 258.824219 64.402344 C 259.199219 64.703125 259.875 65.378906 259.875 65.378906 C 259.949219 65.453125 260.476562 66.203125 260.773438 66.652344 C 261 67.027344 261.601562 67.851562 261.601562 67.851562 C 261.601562 67.929688 261.898438 68.828125 262.125 69.277344 C 262.273438 69.726562 262.648438 70.628906 262.648438 70.703125 C 262.648438 70.703125 262.726562 71.679688 262.800781 72.128906 C 262.875 72.652344 262.949219 73.628906 262.949219 73.628906 C 262.949219 73.703125 262.875 74.601562 262.800781 75.128906 C 262.726562 75.652344 262.574219 76.628906 262.574219 76.628906 C 262.574219 76.628906 262.199219 77.527344 262.050781 77.976562 C 261.898438 78.503906 261.523438 79.402344 261.523438 79.402344 C 261.449219 79.476562 259.648438 90.652344 258.523438 96.277344 C 257.398438 101.902344 255.824219 108.652344 254.773438 113.152344 C 254.175781 116.078125 253.199219 120.503906 253.199219 120.503906 C 253.125 120.503906 252.824219 121.476562 252.601562 121.929688 C 252.449219 122.378906 252.074219 123.351562 252.074219 123.351562 C 252.074219 123.351562 251.476562 124.179688 251.175781 124.554688 C 250.875 125.003906 250.351562 125.828125 250.273438 125.828125 C 250.273438 125.828125 249.523438 126.503906 249.148438 126.804688 C 248.773438 127.179688 248.023438 127.777344 248.023438 127.777344 C 248.023438 127.851562 247.273438 127.929688 246.898438 128.378906 C 245.625 129.953125 244.351562 139.328125 243.523438 142.777344 C 243 144.726562 242.699219 146.226562 242.398438 147.277344 C 242.175781 147.878906 242.023438 148.253906 241.875 148.703125 C 241.726562 149.152344 241.425781 150.054688 241.425781 150.128906 C 241.425781 150.128906 240.898438 150.953125 240.601562 151.328125 C 240.300781 151.777344 239.773438 152.601562 239.773438 152.601562 C 239.773438 152.601562 239.101562 153.277344 238.726562 153.652344 C 238.351562 154.027344 237.675781 154.703125 237.601562 154.703125 C 237.601562 154.703125 236.773438 155.152344 236.324219 155.453125 C 235.875 155.679688 235.050781 156.128906 235.050781 156.128906 C 234.976562 156.128906 234.074219 156.429688 233.550781 156.578125 C 233.101562 156.726562 232.199219 156.953125 232.125 156.953125 C 232.125 156.953125 231.148438 157.027344 230.625 157.027344 C 230.175781 157.027344 229.199219 157.101562 229.125 157.101562 C 229.125 157.101562 228.148438 156.878906 227.699219 156.726562 C 227.175781 156.652344 226.273438 156.429688 226.199219 156.429688 C 226.199219 156.429688 225.375 156.054688 224.925781 155.828125 C 224.476562 155.601562 223.574219 155.152344 223.574219 155.152344 C 223.5 155.152344 222.75 154.476562 222.375 154.179688 C 222.074219 153.953125 221.773438 153.351562 221.476562 153.429688 C 221.101562 153.503906 221.023438 154.476562 220.425781 155.152344 C 219.148438 156.804688 214.125 160.851562 213.226562 162.277344 C 212.925781 162.804688 212.625 163.328125 212.851562 163.554688 C 213 163.777344 213.824219 163.554688 214.351562 163.554688 C 214.800781 163.554688 215.851562 163.628906 215.851562 163.628906 C 215.851562 163.628906 216.824219 163.851562 217.273438 164.003906 C 217.800781 164.152344 218.773438 164.378906 218.773438 164.378906 C 218.773438 164.453125 219.675781 164.902344 220.125 165.128906 C 220.574219 165.429688 221.398438 165.878906 221.476562 165.878906 C 221.476562 165.878906 222.226562 166.554688 222.601562 166.929688 C 222.976562 167.304688 223.648438 167.976562 223.648438 167.976562 C 223.726562 167.976562 224.25 168.804688 224.550781 169.253906 C 224.773438 169.554688 224.851562 170.152344 225.148438 170.226562 C 225.449219 170.378906 225.898438 170.078125 226.273438 170.003906 C 226.726562 169.851562 227.699219 169.628906 227.699219 169.628906 C 227.699219 169.628906 228.675781 169.703125 229.125 169.703125 C 229.648438 169.703125 230.625 169.703125 230.625 169.703125 C 230.625 169.703125 231.523438 169.929688 232.050781 170.078125 C 232.5 170.226562 233.398438 170.453125 233.476562 170.453125 C 233.476562 170.453125 234.300781 170.902344 234.75 171.128906 C 235.125 171.351562 235.949219 171.878906 236.023438 171.878906 C 236.023438 171.878906 236.699219 172.476562 237.074219 172.851562 C 237.449219 173.152344 238.125 173.828125 238.125 173.828125 C 238.199219 173.828125 238.726562 174.652344 238.949219 175.027344 C 239.25 175.476562 239.773438 176.226562 239.773438 176.226562 C 239.773438 176.304688 240.074219 177.203125 240.300781 177.652344 C 240.449219 178.101562 240.75 179.003906 240.75 179.003906 C 240.75 179.003906 240.898438 180.203125 240.898438 180.429688 C 240.898438 180.578125 240.898438 180.652344 240.976562 180.726562 C 241.050781 180.804688 241.648438 180.578125 242.023438 180.578125 C 242.398438 180.503906 243.375 180.351562 243.375 180.351562 C 243.375 180.351562 244.351562 180.429688 244.800781 180.503906 C 245.25 180.578125 246.226562 180.652344 246.226562 180.652344 C 246.226562 180.652344 247.125 181.027344 247.5 181.179688 C 247.949219 181.328125 248.851562 181.628906 248.851562 181.628906 C 248.851562 181.628906 249.675781 182.152344 250.050781 182.453125 C 250.425781 182.679688 251.175781 183.203125 251.25 183.203125 C 251.25 183.203125 251.851562 183.953125 252.148438 184.253906 C 252.523438 184.628906 253.125 185.304688 253.125 185.304688 C 253.125 185.304688 253.574219 186.128906 253.800781 186.578125 C 254.023438 186.953125 254.476562 187.777344 254.476562 187.777344 C 254.476562 187.851562 254.699219 188.753906 254.851562 189.203125 C 254.925781 189.652344 255.148438 190.554688 255.148438 190.554688 C 255.148438 190.554688 255.226562 191.527344 255.226562 191.976562 C 255.226562 192.429688 255.148438 193.101562 255.226562 193.179688 C 255.226562 193.253906 255.300781 193.179688 255.300781 193.179688 C 255.375 193.179688 256.273438 193.179688 256.726562 193.179688 C 257.175781 193.253906 258.074219 193.253906 258.074219 193.253906 C 258.074219 193.253906 258.976562 193.476562 259.425781 193.554688 C 259.875 193.703125 260.699219 193.929688 260.699219 193.929688 C 260.773438 193.929688 260.773438 193.929688 260.773438 193.929688 C 260.773438 193.929688 261.523438 194.378906 261.976562 194.601562 C 262.351562 194.828125 263.101562 195.277344 263.175781 195.277344 C 263.175781 195.277344 263.851562 195.878906 264.148438 196.179688 C 264.523438 196.476562 265.199219 197.078125 265.199219 197.152344 C 265.199219 197.152344 265.726562 197.902344 265.949219 198.277344 C 266.175781 198.652344 266.699219 199.402344 266.699219 199.402344 C 266.699219 199.402344 267 200.304688 267.148438 200.679688 C 267.300781 201.128906 267.601562 202.027344 267.601562 202.027344 C 267.675781 202.027344 267.75 203.078125 267.75 203.378906 C 267.824219 203.527344 267.75 203.679688 267.824219 203.679688 C 267.898438 203.753906 268.125 203.378906 268.125 203.378906 C 268.125 203.378906 268.949219 202.929688 269.398438 202.703125 C 269.773438 202.476562 270.601562 202.027344 270.601562 202.027344 C 270.675781 201.953125 271.5 201.726562 272.023438 201.578125 C 272.476562 201.503906 273.375 201.203125 273.375 201.203125 C 273.375 201.203125 274.273438 201.203125 274.800781 201.203125 C 275.25 201.128906 276.148438 201.128906 276.226562 201.128906 C 276.226562 201.128906 277.125 201.351562 277.574219 201.429688 C 278.023438 201.503906 279 201.726562 279 201.726562 C 279 201.726562 279.824219 202.101562 280.273438 202.328125 C 280.726562 202.554688 281.550781 202.929688 281.550781 202.929688 C 281.550781 203.003906 282.300781 203.601562 282.675781 203.902344 C 282.976562 204.203125 283.726562 204.726562 283.726562 204.804688 C 283.726562 204.804688 284.324219 205.554688 284.550781 205.929688 C 284.851562 206.304688 285.449219 207.054688 285.449219 207.054688 C 285.449219 207.054688 285.824219 207.953125 285.976562 208.402344 C 286.125 208.777344 286.5 209.679688 286.5 209.679688 C 286.5 209.679688 286.648438 210.726562 286.726562 211.101562 C 286.800781 211.253906 286.726562 211.402344 286.800781 211.554688 C 286.875 211.703125 287.175781 211.777344 287.398438 211.929688 C 287.773438 212.152344 288.601562 212.679688 288.601562 212.679688 C 288.601562 212.679688 289.199219 213.351562 289.5 213.726562 C 289.875 214.027344 290.476562 214.703125 290.476562 214.703125 C 290.476562 214.703125 290.925781 215.527344 291.148438 215.902344 C 291.375 216.351562 291.824219 217.101562 291.824219 217.179688 C 291.824219 217.179688 292.050781 218.078125 292.199219 218.453125 C 292.351562 218.902344 292.574219 219.804688 292.574219 219.804688 C 292.574219 219.878906 292.574219 220.777344 292.574219 221.226562 C 292.574219 221.679688 292.648438 222.578125 292.648438 222.578125 C 292.648438 222.652344 292.425781 223.476562 292.351562 223.929688 C 292.199219 224.453125 292.050781 225.277344 292.050781 225.351562 C 292.050781 225.351562 291.601562 226.179688 291.375 226.554688 C 291.226562 227.003906 290.773438 227.828125 290.773438 227.828125 C 290.773438 227.828125 290.175781 228.503906 289.875 228.878906 C 289.574219 229.253906 289.050781 229.929688 288.976562 229.929688 C 288.976562 230.003906 287.925781 244.554688 287.023438 247.179688 C 286.726562 248.078125 286.050781 248.828125 286.125 248.828125 C 286.199219 248.902344 287.625 248.976562 287.625 248.976562 C 287.625 248.976562 288.601562 249.277344 289.125 249.429688 C 289.574219 249.578125 290.550781 249.878906 290.550781 249.878906 C 290.550781 249.878906 291.449219 250.402344 291.898438 250.628906 C 292.351562 250.929688 293.175781 251.453125 293.175781 251.453125 C 293.175781 251.453125 293.925781 252.203125 294.300781 252.503906 C 294.675781 252.878906 295.351562 253.628906 295.351562 253.628906 C 295.351562 253.628906 295.875 254.453125 296.175781 254.902344 C 296.398438 255.351562 296.925781 256.253906 296.925781 256.253906 C 296.925781 256.253906 297.226562 257.226562 297.375 257.679688 C 297.523438 258.203125 297.824219 259.179688 297.824219 259.179688 C 297.898438 259.179688 297.898438 260.152344 297.976562 260.679688 C 297.976562 261.203125 298.050781 262.179688 298.050781 262.253906 C 298.050781 262.253906 297.898438 263.226562 297.75 263.753906 C 297.675781 264.203125 297.523438 265.253906 297.523438 265.253906 C 297.523438 265.253906 297.074219 266.152344 296.851562 266.601562 C 296.625 267.128906 296.25 268.027344 296.25 268.027344 C 296.25 268.027344 295.949219 268.253906 295.800781 268.628906 C 295.273438 269.902344 296.101562 276.652344 294.824219 278.828125 C 293.925781 280.253906 291.148438 281.003906 290.851562 281.378906 C 290.851562 281.378906 290.773438 281.453125 290.773438 281.453125 C 290.773438 281.527344 290.773438 281.601562 290.773438 281.601562 C 290.773438 281.601562 290.25 282.429688 289.949219 282.878906 C 289.648438 283.328125 289.125 284.152344 289.125 284.226562 C 289.125 284.226562 288.976562 284.304688 288.898438 284.378906 C 288.824219 284.453125 288.824219 284.527344 288.75 284.601562 C 288.675781 284.679688 288.449219 284.902344 288.300781 284.976562 C 288.148438 285.054688 288.148438 285.128906 288 285.277344 C 287.773438 285.503906 286.875 286.328125 286.875 286.328125 C 286.875 286.328125 286.199219 286.628906 285.976562 286.851562 C 285.824219 286.929688 285.675781 287.078125 285.523438 287.152344 C 285.375 287.304688 285.148438 287.304688 285 287.378906 C 284.773438 287.527344 284.175781 287.828125 284.175781 287.828125 C 284.175781 287.828125 283.050781 288.128906 282.675781 288.277344 C 282.449219 288.351562 282.375 288.351562 282.148438 288.429688 C 282 288.429688 281.773438 288.578125 281.625 288.578125 C 281.550781 288.652344 281.476562 288.578125 281.398438 288.578125 C 281.324219 288.652344 281.175781 288.652344 281.175781 288.652344 C 281.175781 288.652344 279.898438 288.726562 279.601562 288.726562 C 279.523438 288.726562 279.449219 288.726562 279.449219 288.726562 C 279.449219 288.726562 278.101562 288.804688 278.101562 288.804688 C 278.101562 288.804688 277.800781 288.726562 277.726562 288.726562 C 277.648438 288.652344 277.574219 288.726562 277.425781 288.726562 C 277.273438 288.652344 276.976562 288.578125 276.824219 288.503906 C 276.675781 288.503906 276.675781 288.503906 276.601562 288.429688 C 276.300781 288.351562 275.101562 288.128906 275.023438 288.128906 C 275.023438 288.128906 275.023438 288.054688 274.949219 288.054688 C 274.875 288.054688 274.574219 288.203125 274.5 288.203125 C 274.5 288.203125 273.523438 288.128906 273 288.128906 C 272.550781 288.128906 271.574219 288.054688 271.5 288.054688 C 271.5 288.054688 270.523438 287.828125 270.074219 287.679688 C 269.625 287.527344 268.648438 287.226562 268.648438 287.226562 C 268.574219 287.226562 267.75 286.777344 267.300781 286.476562 C 266.925781 286.253906 266.023438 285.804688 266.023438 285.804688 C 266.023438 285.726562 265.273438 285.054688 264.898438 284.753906 C 264.675781 284.527344 264.449219 284.078125 264.226562 284.078125 C 264.074219 284.078125 263.925781 284.378906 263.925781 284.378906 C 263.851562 284.378906 263.101562 284.828125 262.648438 285.054688 C 262.199219 285.277344 261.449219 285.652344 261.375 285.652344 C 261.375 285.726562 260.476562 285.878906 260.023438 286.027344 C 259.574219 286.101562 258.675781 286.328125 258.675781 286.328125 C 258.675781 286.328125 257.773438 286.328125 257.25 286.328125 C 256.800781 286.328125 255.898438 286.328125 255.898438 286.328125 C 255.824219 286.328125 255 286.101562 254.476562 286.027344 C 254.023438 285.878906 253.199219 285.726562 253.125 285.726562 C 253.125 285.652344 253.125 285.652344 253.125 285.652344 C 253.125 285.652344 252.523438 285.203125 252.226562 285.203125 C 252 285.203125 251.851562 285.351562 251.625 285.503906 C 251.25 285.652344 250.351562 286.027344 250.351562 286.027344 C 250.273438 286.027344 249.375 286.179688 248.925781 286.253906 C 248.476562 286.328125 247.574219 286.476562 247.574219 286.476562 C 247.5 286.476562 246.601562 286.402344 246.148438 286.328125 C 245.699219 286.328125 244.800781 286.253906 244.726562 286.253906 C 244.726562 286.253906 243.898438 285.953125 243.449219 285.804688 C 243 285.652344 242.101562 285.351562 242.101562 285.351562 C 242.101562 285.351562 241.273438 284.828125 240.898438 284.601562 C 240.523438 284.378906 239.773438 283.851562 239.699219 283.851562 C 239.699219 283.851562 239.101562 283.179688 238.726562 282.804688 C 238.425781 282.503906 237.824219 281.828125 237.824219 281.828125 C 237.75 281.828125 237.226562 280.851562 237.074219 280.628906 C 237 280.476562 237 280.253906 236.925781 280.253906 C 236.101562 280.253906 231 288.726562 227.398438 292.328125 C 223.800781 296.003906 219.675781 301.851562 215.324219 302.226562 C 210.75 302.601562 202.351562 297.578125 200.550781 293.902344 C 199.050781 290.976562 202.726562 283.554688 202.050781 283.253906 C 201.523438 283.101562 199.800781 286.476562 198.300781 288.726562 C 195.976562 292.179688 190.875 300.054688 189.523438 301.929688 C 189.074219 302.453125 188.925781 302.601562 188.699219 302.902344 C 188.398438 303.203125 187.875 303.878906 187.875 303.878906 C 187.875 303.878906 187.125 304.328125 186.824219 304.628906 C 186.449219 304.851562 185.773438 305.378906 185.773438 305.378906 C 185.773438 305.378906 185.023438 305.679688 184.574219 305.828125 C 184.199219 305.976562 183.449219 306.277344 183.449219 306.277344 C 183.375 306.277344 182.550781 306.429688 182.175781 306.503906 C 181.726562 306.503906 180.898438 306.652344 180.898438 306.652344 C 180.898438 306.652344 180.074219 306.578125 179.625 306.503906 C 179.175781 306.503906 178.351562 306.429688 178.351562 306.429688 C 178.351562 306.429688 177.601562 306.128906 177.148438 305.976562 C 176.773438 305.828125 175.949219 305.527344 175.949219 305.527344 C 175.949219 305.527344 175.273438 305.078125 174.898438 304.851562 C 174.523438 304.628906 173.851562 304.179688 173.851562 304.179688 C 173.851562 304.101562 173.25 303.503906 172.949219 303.203125 C 172.726562 302.902344 172.125 302.304688 172.125 302.304688 C 172.125 302.226562 171.675781 301.554688 171.523438 301.179688 C 171.300781 300.804688 170.925781 300.054688 170.851562 300.054688 C 170.851562 300.054688 170.699219 299.226562 170.550781 298.777344 C 170.476562 298.402344 170.25 297.578125 170.25 297.578125 C 170.25 297.578125 170.175781 296.753906 170.175781 296.304688 C 170.175781 295.851562 170.175781 295.027344 170.175781 295.027344 C 170.175781 295.027344 170.324219 294.203125 170.476562 293.828125 C 170.550781 293.378906 170.699219 292.554688 170.699219 292.554688 C 170.773438 292.554688 171.148438 291.804688 171.300781 291.429688 C 171.523438 291.054688 171.824219 290.304688 171.898438 290.304688 C 171.898438 290.226562 175.648438 282.578125 174.226562 280.703125 C 172.125 278.003906 159.898438 281.152344 154.273438 280.777344 C 150.074219 280.476562 147 278.976562 143.324219 279.203125 C 139.648438 279.429688 134.625 281.976562 132.300781 282.351562 C 131.25 282.503906 130.5 282.203125 129.976562 282.429688 C 129.675781 282.578125 129.675781 282.953125 129.375 283.179688 C 128.773438 283.476562 127.199219 283.253906 126.824219 283.628906 C 126.523438 283.851562 126.601562 284.601562 126.601562 284.601562 C 126.523438 284.601562 126.523438 284.003906 126.449219 284.003906 C 126.375 284.003906 126.300781 284.453125 126.148438 284.753906 C 126 285.128906 125.550781 286.253906 125.550781 286.253906 C 125.550781 286.253906 124.875 287.152344 124.574219 287.601562 C 124.199219 287.976562 123.601562 288.878906 123.601562 288.878906 C 123.601562 288.878906 122.699219 289.628906 122.324219 289.929688 C 121.875 290.304688 121.050781 290.976562 121.050781 290.976562 C 121.050781 290.976562 120.074219 291.503906 119.550781 291.726562 C 119.101562 291.953125 118.125 292.402344 118.050781 292.402344 C 118.050781 292.402344 117 292.628906 116.476562 292.777344 C 115.949219 292.851562 114.898438 293.078125 114.824219 293.078125 C 114.824219 293.078125 113.773438 293.078125 113.25 293.078125 C 112.648438 293.003906 111.601562 293.003906 111.601562 293.003906 C 111.523438 293.003906 110.476562 292.703125 109.949219 292.554688 C 109.425781 292.402344 108.449219 292.101562 108.375 292.101562 C 108.375 292.101562 107.476562 291.578125 106.949219 291.277344 C 106.5 291.054688 105.523438 290.527344 105.523438 290.453125 C 105.523438 290.453125 104.773438 289.703125 104.324219 289.328125 C 103.949219 288.953125 103.574219 288.652344 103.125 288.203125 C 102.601562 287.679688 101.398438 286.628906 101.25 286.476562 C 101.25 286.476562 101.25 286.402344 101.25 286.402344 C 100.800781 286.253906 90.824219 286.328125 90.824219 286.328125 C 90.75 286.328125 89.699219 286.253906 89.175781 286.179688 C 88.648438 286.101562 87.523438 285.953125 87.523438 285.953125 C 87.523438 285.953125 86.476562 285.578125 86.023438 285.429688 C 85.5 285.203125 84.449219 284.828125 84.449219 284.828125 C 84.449219 284.828125 83.550781 284.226562 83.101562 283.929688 C 82.648438 283.628906 81.75 283.027344 81.75 282.953125 C 81.75 282.953125 81 282.128906 80.625 281.753906 C 80.324219 281.378906 79.574219 280.554688 79.574219 280.554688 C 79.574219 280.554688 79.050781 279.578125 78.824219 279.054688 C 78.523438 278.601562 78 277.628906 78 277.628906 C 78 277.628906 77.773438 276.578125 77.625 276.054688 C 77.476562 275.527344 77.25 274.476562 77.25 274.476562 C 77.25 274.402344 77.175781 273.351562 77.175781 272.828125 C 77.175781 272.226562 77.175781 271.179688 77.175781 271.179688 C 77.175781 271.179688 77.476562 270.128906 77.550781 269.601562 C 77.699219 269.078125 78 268.027344 78 267.953125 C 78 267.953125 78.375 267.429688 78.375 267.277344 C 78.375 267.128906 78.148438 266.828125 78.074219 266.828125 C 78.074219 266.828125 77.773438 265.777344 77.625 265.253906 C 77.476562 264.726562 77.175781 263.679688 77.175781 263.679688 C 77.175781 263.679688 77.175781 262.554688 77.101562 262.027344 C 77.101562 261.429688 77.023438 260.378906 77.023438 260.378906 M 279.375 288.726562 C 279.449219 288.726562 279.449219 288.726562 279.449219 288.726562 C 279.449219 288.726562 279.375 288.726562 279.375 288.726562 "/></clipPath><clipPath id="8d98ea11dd"><path d="M 71.023438 63.726562 L 304 63.726562 L 304 296.976562 L 71.023438 296.976562 Z M 71.023438 63.726562 "/></clipPath></defs><g id="dd1e281f5c"><g clip-rule="nonzero" clip-path="url(#6f75a31348)"><path style=" stroke:none;fill-rule:nonzero;fill:#ff66c4;fill-opacity:1;" d="M 187.371094 5.699219 C 91.222656 5.699219 12.996094 83.925781 12.996094 180.074219 C 12.996094 276.222656 91.222656 354.449219 187.371094 354.449219 C 283.519531 354.449219 361.746094 276.222656 361.746094 180.074219 C 361.746094 83.925781 283.519531 5.699219 187.371094 5.699219 Z M 187.371094 51.1875 C 216.636719 51.1875 240.441406 74.996094 240.441406 104.257812 C 240.441406 133.523438 216.636719 157.328125 187.371094 157.328125 C 158.105469 157.328125 134.300781 133.523438 134.300781 104.257812 C 134.300781 74.996094 158.105469 51.1875 187.371094 51.1875 Z M 278.347656 278.632812 L 96.394531 278.632812 C 92.207031 278.632812 88.8125 275.238281 88.8125 271.050781 C 88.8125 216.707031 133.027344 172.492188 187.371094 172.492188 C 241.714844 172.492188 285.929688 216.707031 285.929688 271.050781 C 285.929688 275.238281 282.535156 278.632812 278.347656 278.632812 Z M 278.347656 278.632812 "/></g><g clip-rule="nonzero" clip-path="url(#4333e939bd)"><g clip-rule="nonzero" clip-path="url(#a696d0023f)"><path style=" stroke:none;fill-rule:nonzero;fill:#ff66c4;fill-opacity:1;" d="M 74.023438 32.679688 L 300.90625 32.679688 L 300.90625 309.726562 L 74.023438 309.726562 Z M 74.023438 32.679688 "/></g></g><g clip-rule="nonzero" clip-path="url(#8d98ea11dd)"><path style=" stroke:none;fill-rule:nonzero;fill:#ffffff;fill-opacity:1;" d="M 303.8125 273.15625 L 254.859375 224.203125 C 266.832031 207.558594 273.898438 187.15625 273.898438 165.128906 C 273.898438 109.226562 228.414062 63.742188 172.511719 63.742188 C 116.605469 63.742188 71.125 109.226562 71.125 165.128906 C 71.125 221.035156 116.605469 266.515625 172.511719 266.515625 C 194.390625 266.515625 214.671875 259.550781 231.257812 247.71875 L 280.253906 296.714844 Z M 172.511719 239.003906 C 131.710938 239.003906 98.636719 205.929688 98.636719 165.128906 C 98.636719 124.332031 131.710938 91.257812 172.511719 91.257812 C 213.308594 91.257812 246.382812 124.332031 246.382812 165.128906 C 246.382812 205.929688 213.308594 239.003906 172.511719 239.003906 Z M 172.511719 239.003906 "/></g><path style=" stroke:none;fill-rule:nonzero;fill:#ffffff;fill-opacity:1;" d="M 164.945312 205.65625 C 164.945312 206.203125 164.890625 206.746094 164.785156 207.28125 C 164.679688 207.816406 164.519531 208.339844 164.3125 208.84375 C 164.101562 209.347656 163.84375 209.828125 163.539062 210.285156 C 163.238281 210.738281 162.890625 211.160156 162.503906 211.546875 C 162.117188 211.933594 161.699219 212.277344 161.242188 212.582031 C 160.789062 212.886719 160.308594 213.140625 159.800781 213.351562 C 159.296875 213.5625 158.777344 213.71875 158.238281 213.824219 C 157.703125 213.933594 157.160156 213.984375 156.613281 213.984375 C 156.066406 213.984375 155.527344 213.933594 154.988281 213.824219 C 154.453125 213.71875 153.933594 213.5625 153.425781 213.351562 C 152.921875 213.140625 152.441406 212.886719 151.988281 212.582031 C 151.53125 212.277344 151.113281 211.933594 150.726562 211.546875 C 150.339844 211.160156 149.992188 210.738281 149.6875 210.285156 C 149.386719 209.828125 149.128906 209.347656 148.917969 208.84375 C 148.710938 208.339844 148.550781 207.816406 148.445312 207.28125 C 148.339844 206.746094 148.285156 206.203125 148.285156 205.65625 C 148.285156 205.109375 148.339844 204.566406 148.445312 204.03125 C 148.550781 203.496094 148.710938 202.972656 148.917969 202.46875 C 149.128906 201.964844 149.386719 201.484375 149.6875 201.027344 C 149.992188 200.574219 150.339844 200.152344 150.726562 199.765625 C 151.113281 199.378906 151.53125 199.035156 151.988281 198.730469 C 152.441406 198.425781 152.921875 198.171875 153.425781 197.960938 C 153.933594 197.75 154.453125 197.59375 154.988281 197.488281 C 155.527344 197.378906 156.066406 197.328125 156.613281 197.328125 C 157.160156 197.328125 157.703125 197.378906 158.238281 197.488281 C 158.777344 197.59375 159.296875 197.75 159.800781 197.960938 C 160.308594 198.171875 160.789062 198.425781 161.242188 198.730469 C 161.699219 199.035156 162.117188 199.378906 162.503906 199.765625 C 162.890625 200.152344 163.238281 200.574219 163.539062 201.027344 C 163.84375 201.484375 164.101562 201.964844 164.3125 202.46875 C 164.519531 202.972656 164.679688 203.496094 164.785156 204.03125 C 164.890625 204.566406 164.945312 205.109375 164.945312 205.65625 Z M 164.945312 205.65625 "/><path style=" stroke:none;fill-rule:nonzero;fill:#ffffff;fill-opacity:1;" d="M 197.378906 205.65625 C 197.378906 206.203125 197.328125 206.746094 197.21875 207.28125 C 197.113281 207.816406 196.957031 208.339844 196.746094 208.84375 C 196.535156 209.347656 196.28125 209.828125 195.976562 210.285156 C 195.671875 210.738281 195.328125 211.160156 194.941406 211.546875 C 194.554688 211.933594 194.132812 212.277344 193.679688 212.582031 C 193.222656 212.886719 192.742188 213.140625 192.238281 213.351562 C 191.734375 213.5625 191.210938 213.71875 190.675781 213.824219 C 190.140625 213.933594 189.597656 213.984375 189.050781 213.984375 C 188.503906 213.984375 187.960938 213.933594 187.425781 213.824219 C 186.890625 213.71875 186.367188 213.5625 185.863281 213.351562 C 185.359375 213.140625 184.878906 212.886719 184.421875 212.582031 C 183.96875 212.277344 183.546875 211.933594 183.160156 211.546875 C 182.773438 211.160156 182.429688 210.738281 182.125 210.285156 C 181.820312 209.828125 181.5625 209.347656 181.355469 208.84375 C 181.144531 208.339844 180.988281 207.816406 180.882812 207.28125 C 180.773438 206.746094 180.722656 206.203125 180.722656 205.65625 C 180.722656 205.109375 180.773438 204.566406 180.882812 204.03125 C 180.988281 203.496094 181.144531 202.972656 181.355469 202.46875 C 181.5625 201.964844 181.820312 201.484375 182.125 201.027344 C 182.429688 200.574219 182.773438 200.152344 183.160156 199.765625 C 183.546875 199.378906 183.96875 199.035156 184.421875 198.730469 C 184.878906 198.425781 185.359375 198.171875 185.863281 197.960938 C 186.367188 197.75 186.890625 197.59375 187.425781 197.488281 C 187.960938 197.378906 188.503906 197.328125 189.050781 197.328125 C 189.597656 197.328125 190.140625 197.378906 190.675781 197.488281 C 191.210938 197.59375 191.734375 197.75 192.238281 197.960938 C 192.742188 198.171875 193.222656 198.425781 193.679688 198.730469 C 194.132812 199.035156 194.554688 199.378906 194.941406 199.765625 C 195.328125 200.152344 195.671875 200.574219 195.976562 201.027344 C 196.28125 201.484375 196.535156 201.964844 196.746094 202.46875 C 196.957031 202.972656 197.113281 203.496094 197.21875 204.03125 C 197.328125 204.566406 197.378906 205.109375 197.378906 205.65625 Z M 197.378906 205.65625 "/><path style=" stroke:none;fill-rule:nonzero;fill:#ffffff;fill-opacity:1;" d="M 150.539062 124.695312 L 129.554688 124.695312 L 129.554688 141.351562 L 143.136719 141.351562 L 148.511719 147.304688 L 148.285156 180.667969 L 204.242188 180.667969 L 218.539062 138.382812 L 162.902344 138.382812 Z M 150.539062 124.695312 "/></g></svg>