<svg xmlns="http://www.w3.org/2000/svg" xmlns:xlink="http://www.w3.org/1999/xlink" width="500" zoomAndPan="magnify" viewBox="0 0 375 374.999991" height="500" preserveAspectRatio="xMidYMid meet" version="1.2"><defs><clipPath id="add9e0fbd0"><path d="M 8.808594 8.808594 L 366.558594 8.808594 L 366.558594 366.558594 L 8.808594 366.558594 Z M 8.808594 8.808594 "/></clipPath></defs><g id="df61d692ec"><g clip-rule="nonzero" clip-path="url(#add9e0fbd0)"><path style=" stroke:none;fill-rule:nonzero;fill:#46c143;fill-opacity:1;" d="M 366.558594 187.789062 C 366.558594 286.492188 286.40625 366.613281 187.683594 366.613281 C 88.835938 366.613281 8.808594 286.492188 8.808594 187.789062 C 8.808594 88.925781 88.835938 8.808594 187.683594 8.808594 C 286.40625 8.808594 366.558594 88.925781 366.558594 187.789062 Z M 366.558594 187.789062 "/></g><path style=" stroke:none;fill-rule:nonzero;fill:#ffffff;fill-opacity:1;" d="M 239.054688 118.960938 C 239.054688 118.960938 187.988281 183.730469 165.34375 212.386719 C 151.355469 197.808594 136.097656 181.921875 136.097656 181.921875 C 126.8125 172.246094 111.5 171.976562 101.769531 181.242188 C 92.164062 190.472656 91.84375 205.875 101.074219 215.5 L 149.636719 266.066406 C 154.464844 271.09375 161.351562 273.867188 168.328125 273.507812 C 175.339844 273.167969 181.796875 269.859375 186.164062 264.367188 L 277.121094 149.101562 C 285.4375 138.582031 283.648438 123.289062 273.113281 115.058594 C 262.542969 106.707031 247.320312 108.585938 239.054688 118.960938 Z M 239.054688 118.960938 "/></g></svg>