<svg xmlns="http://www.w3.org/2000/svg" xmlns:xlink="http://www.w3.org/1999/xlink" width="500" zoomAndPan="magnify" viewBox="0 0 375 374.999991" height="500" preserveAspectRatio="xMidYMid meet" version="1.2"><defs><clipPath id="74c8f41a57"><path d="M 20.796875 208 L 97 208 L 97 322 L 20.796875 322 Z M 20.796875 208 "/></clipPath><clipPath id="613d994c86"><path d="M 69 37.5 L 136 37.5 L 136 114 L 69 114 Z M 69 37.5 "/></clipPath><clipPath id="f9d34a5064"><path d="M 205 37.5 L 273 37.5 L 273 120 L 205 120 Z M 205 37.5 "/></clipPath><clipPath id="1a32cdbc51"><path d="M 281 239 L 354.546875 239 L 354.546875 296 L 281 296 Z M 281 239 "/></clipPath><clipPath id="59780f028d"><path d="M 281 226 L 354.546875 226 L 354.546875 282 L 281 282 Z M 281 226 "/></clipPath></defs><g id="bea3851468"><path style=" stroke:none;fill-rule:nonzero;fill:#44235f;fill-opacity:1;" d="M 23.933594 197.007812 C 23.066406 197.007812 22.351562 196.324219 22.320312 195.453125 C 22.253906 193.574219 22.21875 191.664062 22.21875 189.78125 C 22.21875 185.71875 22.378906 181.621094 22.691406 177.589844 C 22.757812 176.703125 23.535156 176.039062 24.425781 176.109375 C 25.3125 176.175781 25.976562 176.953125 25.90625 177.839844 C 25.601562 181.785156 25.445312 185.804688 25.445312 189.78125 C 25.445312 191.625 25.480469 193.496094 25.546875 195.335938 C 25.578125 196.226562 24.882812 196.976562 23.992188 197.007812 C 23.972656 197.007812 23.953125 197.007812 23.933594 197.007812 Z M 26.675781 161.808594 C 26.574219 161.808594 26.472656 161.796875 26.367188 161.777344 C 25.492188 161.605469 24.921875 160.757812 25.09375 159.886719 C 26.226562 154.054688 27.71875 148.226562 29.519531 142.570312 C 29.789062 141.722656 30.695312 141.253906 31.546875 141.523438 C 32.394531 141.792969 32.863281 142.703125 32.59375 143.550781 C 30.828125 149.089844 29.371094 154.792969 28.257812 160.503906 C 28.109375 161.273438 27.433594 161.808594 26.675781 161.808594 Z M 37.386719 128.164062 C 37.164062 128.164062 36.9375 128.117188 36.722656 128.019531 C 35.910156 127.652344 35.550781 126.699219 35.917969 125.886719 C 38.359375 120.476562 41.144531 115.152344 44.195312 110.050781 C 44.652344 109.285156 45.644531 109.039062 46.410156 109.496094 C 47.175781 109.953125 47.421875 110.945312 46.964844 111.710938 C 43.976562 116.703125 41.25 121.917969 38.859375 127.214844 C 38.589844 127.8125 38 128.164062 37.386719 128.164062 Z M 55.519531 97.867188 C 55.175781 97.867188 54.832031 97.761719 54.539062 97.535156 C 53.832031 96.992188 53.695312 95.980469 54.238281 95.273438 C 57.851562 90.5625 61.777344 86.011719 65.902344 81.742188 C 66.523438 81.101562 67.546875 81.082031 68.1875 81.703125 C 68.824219 82.320312 68.84375 83.34375 68.222656 83.984375 C 64.179688 88.164062 60.335938 92.625 56.800781 97.238281 C 56.480469 97.652344 56.003906 97.867188 55.519531 97.867188 Z M 55.519531 97.867188 "/><path style=" stroke:none;fill-rule:nonzero;fill:#44235f;fill-opacity:1;" d="M 186.257812 344.972656 C 185.40625 344.972656 184.695312 344.308594 184.648438 343.449219 C 184.597656 342.558594 185.277344 341.796875 186.167969 341.746094 C 191.988281 341.425781 197.835938 340.765625 203.550781 339.785156 C 204.429688 339.632812 205.261719 340.226562 205.414062 341.101562 C 205.5625 341.980469 204.972656 342.816406 204.097656 342.964844 C 198.257812 343.96875 192.289062 344.640625 186.347656 344.96875 C 186.316406 344.972656 186.285156 344.972656 186.257812 344.972656 Z M 168.578125 344.949219 C 168.546875 344.949219 168.515625 344.945312 168.484375 344.945312 C 162.542969 344.601562 156.570312 343.910156 150.734375 342.890625 C 149.855469 342.738281 149.269531 341.902344 149.421875 341.023438 C 149.574219 340.144531 150.410156 339.558594 151.289062 339.710938 C 157.003906 340.707031 162.851562 341.386719 168.667969 341.722656 C 169.558594 341.773438 170.238281 342.539062 170.1875 343.429688 C 170.136719 344.285156 169.425781 344.949219 168.578125 344.949219 Z M 221.042969 339 C 220.347656 339 219.703125 338.542969 219.496094 337.839844 C 219.246094 336.984375 219.734375 336.085938 220.589844 335.835938 C 226.167969 334.199219 231.707031 332.214844 237.0625 329.945312 C 237.882812 329.59375 238.828125 329.976562 239.175781 330.796875 C 239.523438 331.617188 239.140625 332.566406 238.324219 332.914062 C 232.855469 335.234375 227.195312 337.261719 221.5 338.933594 C 221.347656 338.976562 221.195312 339 221.042969 339 Z M 133.796875 338.871094 C 133.648438 338.871094 133.492188 338.851562 133.339844 338.804688 C 127.648438 337.117188 121.996094 335.074219 116.53125 332.738281 C 115.714844 332.386719 115.332031 331.4375 115.683594 330.617188 C 116.035156 329.796875 116.984375 329.417969 117.800781 329.769531 C 123.148438 332.058594 128.6875 334.058594 134.257812 335.710938 C 135.113281 335.964844 135.597656 336.863281 135.34375 337.71875 C 135.136719 338.417969 134.496094 338.871094 133.796875 338.871094 Z M 253.542969 325.207031 C 252.980469 325.207031 252.433594 324.910156 252.136719 324.390625 C 251.695312 323.613281 251.96875 322.628906 252.742188 322.1875 C 257.792969 319.316406 262.734375 316.117188 267.429688 312.679688 C 268.148438 312.15625 269.160156 312.3125 269.683594 313.03125 C 270.210938 313.75 270.054688 314.757812 269.335938 315.285156 C 264.542969 318.796875 259.496094 322.0625 254.335938 324.992188 C 254.085938 325.136719 253.8125 325.207031 253.542969 325.207031 Z M 253.542969 325.207031 "/><path style=" stroke:none;fill-rule:nonzero;fill:#44235f;fill-opacity:1;" d="M 329.8125 168.945312 C 329.023438 168.945312 328.335938 168.367188 328.21875 167.566406 C 327.375 161.808594 326.1875 156.042969 324.691406 150.429688 C 324.460938 149.570312 324.972656 148.683594 325.835938 148.457031 C 326.695312 148.226562 327.578125 148.738281 327.808594 149.597656 C 329.339844 155.328125 330.550781 161.21875 331.410156 167.097656 C 331.539062 167.980469 330.929688 168.800781 330.046875 168.929688 C 329.96875 168.941406 329.890625 168.945312 329.8125 168.945312 Z M 320.710938 134.839844 C 320.070312 134.839844 319.460938 134.453125 319.210938 133.820312 C 317.074219 128.417969 314.597656 123.078125 311.847656 117.953125 C 311.425781 117.167969 311.722656 116.1875 312.507812 115.765625 C 313.292969 115.347656 314.269531 115.640625 314.691406 116.425781 C 317.5 121.664062 320.03125 127.117188 322.210938 132.632812 C 322.539062 133.460938 322.132812 134.398438 321.304688 134.726562 C 321.109375 134.804688 320.910156 134.839844 320.710938 134.839844 Z M 304.035156 103.730469 C 303.523438 103.730469 303.019531 103.488281 302.707031 103.035156 C 299.390625 98.261719 295.761719 93.628906 291.917969 89.261719 C 291.328125 88.59375 291.394531 87.574219 292.0625 86.984375 C 292.734375 86.394531 293.753906 86.460938 294.339844 87.128906 C 298.265625 91.589844 301.972656 96.320312 305.359375 101.195312 C 305.867188 101.925781 305.683594 102.929688 304.953125 103.441406 C 304.671875 103.636719 304.351562 103.730469 304.035156 103.730469 Z M 280.707031 77.226562 C 280.324219 77.226562 279.9375 77.089844 279.628906 76.808594 C 275.3125 72.910156 270.726562 69.21875 265.996094 65.839844 C 265.269531 65.324219 265.101562 64.316406 265.621094 63.589844 C 266.136719 62.863281 267.144531 62.695312 267.871094 63.214844 C 272.699219 66.664062 277.382812 70.433594 281.792969 74.414062 C 282.453125 75.011719 282.503906 76.03125 281.90625 76.695312 C 281.589844 77.046875 281.148438 77.226562 280.707031 77.226562 Z M 280.707031 77.226562 "/><path style=" stroke:none;fill-rule:nonzero;fill:#c2f0cf;fill-opacity:1;" d="M 290.5625 189.78125 C 290.5625 191.628906 290.515625 193.476562 290.425781 195.320312 C 290.335938 197.167969 290.199219 199.007812 290.015625 200.847656 C 289.835938 202.6875 289.609375 204.523438 289.339844 206.351562 C 289.066406 208.179688 288.75 210 288.390625 211.8125 C 288.03125 213.625 287.625 215.425781 287.175781 217.21875 C 286.726562 219.011719 286.234375 220.792969 285.699219 222.5625 C 285.164062 224.332031 284.582031 226.085938 283.960938 227.824219 C 283.335938 229.566406 282.671875 231.289062 281.964844 232.996094 C 281.257812 234.707031 280.507812 236.394531 279.71875 238.066406 C 278.929688 239.734375 278.097656 241.386719 277.226562 243.015625 C 276.355469 244.648438 275.445312 246.253906 274.496094 247.839844 C 273.546875 249.425781 272.558594 250.984375 271.53125 252.523438 C 270.503906 254.058594 269.4375 255.570312 268.339844 257.054688 C 267.238281 258.539062 266.101562 259.996094 264.929688 261.425781 C 263.757812 262.851562 262.550781 264.253906 261.308594 265.621094 C 260.066406 266.992188 258.792969 268.328125 257.484375 269.636719 C 256.179688 270.945312 254.839844 272.21875 253.472656 273.457031 C 252.101562 274.699219 250.703125 275.90625 249.273438 277.078125 C 247.847656 278.25 246.390625 279.390625 244.90625 280.488281 C 243.421875 281.589844 241.910156 282.65625 240.375 283.679688 C 238.835938 284.707031 237.277344 285.695312 235.691406 286.648438 C 234.105469 287.597656 232.5 288.507812 230.867188 289.378906 C 229.238281 290.25 227.589844 291.082031 225.917969 291.871094 C 224.246094 292.660156 222.558594 293.410156 220.851562 294.117188 C 219.144531 294.824219 217.417969 295.488281 215.679688 296.113281 C 213.941406 296.734375 212.183594 297.316406 210.417969 297.851562 C 208.648438 298.386719 206.867188 298.878906 205.074219 299.328125 C 203.28125 299.777344 201.480469 300.183594 199.667969 300.542969 C 197.855469 300.90625 196.035156 301.222656 194.207031 301.492188 C 192.378906 301.761719 190.542969 301.988281 188.703125 302.171875 C 186.867188 302.351562 185.023438 302.488281 183.175781 302.578125 C 181.332031 302.667969 179.484375 302.714844 177.636719 302.714844 C 175.789062 302.714844 173.941406 302.667969 172.09375 302.578125 C 170.25 302.488281 168.40625 302.351562 166.566406 302.171875 C 164.730469 301.988281 162.894531 301.761719 161.066406 301.492188 C 159.238281 301.222656 157.417969 300.90625 155.605469 300.542969 C 153.792969 300.183594 151.992188 299.777344 150.199219 299.328125 C 148.40625 298.878906 146.625 298.386719 144.855469 297.851562 C 143.085938 297.316406 141.332031 296.734375 139.59375 296.113281 C 137.851562 295.488281 136.128906 294.824219 134.421875 294.117188 C 132.714844 293.410156 131.027344 292.660156 129.355469 291.871094 C 127.683594 291.082031 126.035156 290.25 124.402344 289.378906 C 122.773438 288.507812 121.167969 287.597656 119.582031 286.648438 C 117.996094 285.695312 116.433594 284.707031 114.898438 283.679688 C 113.363281 282.65625 111.851562 281.589844 110.367188 280.488281 C 108.882812 279.390625 107.425781 278.25 105.996094 277.078125 C 104.570312 275.90625 103.171875 274.699219 101.800781 273.457031 C 100.429688 272.21875 99.09375 270.945312 97.785156 269.636719 C 96.480469 268.328125 95.207031 266.992188 93.964844 265.621094 C 92.722656 264.253906 91.515625 262.851562 90.34375 261.425781 C 89.171875 259.996094 88.035156 258.539062 86.933594 257.054688 C 85.832031 255.570312 84.769531 254.058594 83.742188 252.523438 C 82.714844 250.984375 81.726562 249.425781 80.777344 247.839844 C 79.828125 246.253906 78.917969 244.648438 78.046875 243.015625 C 77.175781 241.386719 76.34375 239.734375 75.554688 238.066406 C 74.761719 236.394531 74.015625 234.707031 73.308594 232.996094 C 72.601562 231.289062 71.933594 229.566406 71.3125 227.824219 C 70.691406 226.085938 70.109375 224.332031 69.574219 222.5625 C 69.039062 220.792969 68.546875 219.011719 68.097656 217.21875 C 67.648438 215.425781 67.242188 213.625 66.882812 211.8125 C 66.519531 210 66.207031 208.179688 65.933594 206.351562 C 65.664062 204.523438 65.4375 202.6875 65.253906 200.847656 C 65.074219 199.007812 64.9375 197.167969 64.847656 195.320312 C 64.757812 193.476562 64.710938 191.628906 64.710938 189.78125 C 64.710938 187.929688 64.757812 186.085938 64.847656 184.238281 C 64.9375 182.390625 65.074219 180.550781 65.253906 178.710938 C 65.4375 176.871094 65.664062 175.035156 65.933594 173.207031 C 66.207031 171.378906 66.519531 169.558594 66.882812 167.746094 C 67.242188 165.933594 67.648438 164.132812 68.097656 162.339844 C 68.546875 160.546875 69.039062 158.765625 69.574219 156.996094 C 70.109375 155.226562 70.691406 153.472656 71.3125 151.734375 C 71.933594 149.992188 72.601562 148.269531 73.308594 146.5625 C 74.015625 144.855469 74.761719 143.164062 75.554688 141.492188 C 76.34375 139.824219 77.175781 138.171875 78.046875 136.542969 C 78.917969 134.914062 79.828125 133.304688 80.777344 131.71875 C 81.726562 130.132812 82.714844 128.574219 83.742188 127.035156 C 84.769531 125.5 85.832031 123.988281 86.933594 122.503906 C 88.035156 121.019531 89.171875 119.5625 90.34375 118.132812 C 91.515625 116.707031 92.722656 115.304688 93.964844 113.9375 C 95.207031 112.566406 96.480469 111.230469 97.785156 109.921875 C 99.09375 108.617188 100.429688 107.339844 101.800781 106.101562 C 103.171875 104.859375 104.570312 103.652344 105.996094 102.480469 C 107.425781 101.308594 108.882812 100.171875 110.367188 99.070312 C 111.851562 97.96875 113.363281 96.90625 114.898438 95.878906 C 116.433594 94.851562 117.996094 93.863281 119.582031 92.910156 C 121.167969 91.960938 122.773438 91.050781 124.402344 90.179688 C 126.035156 89.308594 127.683594 88.476562 129.355469 87.6875 C 131.027344 86.898438 132.714844 86.148438 134.421875 85.441406 C 136.128906 84.734375 137.851562 84.070312 139.59375 83.445312 C 141.332031 82.824219 143.085938 82.242188 144.855469 81.707031 C 146.625 81.171875 148.40625 80.679688 150.199219 80.230469 C 151.992188 79.78125 153.792969 79.375 155.605469 79.015625 C 157.417969 78.652344 159.238281 78.339844 161.066406 78.066406 C 162.894531 77.796875 164.730469 77.570312 166.566406 77.386719 C 168.40625 77.207031 170.25 77.070312 172.09375 76.980469 C 173.941406 76.890625 175.789062 76.84375 177.636719 76.84375 C 179.484375 76.84375 181.332031 76.890625 183.175781 76.980469 C 185.023438 77.070312 186.867188 77.207031 188.703125 77.386719 C 190.542969 77.570312 192.378906 77.796875 194.207031 78.066406 C 196.035156 78.339844 197.855469 78.652344 199.667969 79.015625 C 201.480469 79.375 203.28125 79.78125 205.074219 80.230469 C 206.867188 80.679688 208.648438 81.171875 210.417969 81.707031 C 212.183594 82.242188 213.941406 82.824219 215.679688 83.445312 C 217.417969 84.070312 219.144531 84.734375 220.851562 85.441406 C 222.558594 86.148438 224.246094 86.898438 225.917969 87.6875 C 227.589844 88.476562 229.238281 89.308594 230.867188 90.179688 C 232.5 91.050781 234.105469 91.960938 235.691406 92.910156 C 237.277344 93.863281 238.835938 94.851562 240.375 95.878906 C 241.910156 96.90625 243.421875 97.96875 244.90625 99.070312 C 246.390625 100.171875 247.847656 101.308594 249.273438 102.480469 C 250.703125 103.652344 252.101562 104.859375 253.472656 106.101562 C 254.839844 107.339844 256.179688 108.617188 257.484375 109.921875 C 258.792969 111.230469 260.066406 112.566406 261.308594 113.9375 C 262.550781 115.304688 263.757812 116.707031 264.929688 118.132812 C 266.101562 119.5625 267.238281 121.019531 268.339844 122.503906 C 269.4375 123.988281 270.503906 125.5 271.53125 127.035156 C 272.558594 128.574219 273.546875 130.132812 274.496094 131.71875 C 275.445312 133.304688 276.355469 134.914062 277.226562 136.542969 C 278.097656 138.171875 278.929688 139.824219 279.71875 141.492188 C 280.507812 143.164062 281.257812 144.855469 281.964844 146.5625 C 282.671875 148.269531 283.335938 149.992188 283.960938 151.734375 C 284.582031 153.472656 285.164062 155.226562 285.699219 156.996094 C 286.234375 158.765625 286.726562 160.546875 287.175781 162.339844 C 287.625 164.132812 288.03125 165.933594 288.390625 167.746094 C 288.75 169.558594 289.066406 171.378906 289.339844 173.207031 C 289.609375 175.035156 289.835938 176.871094 290.015625 178.710938 C 290.199219 180.550781 290.335938 182.390625 290.425781 184.238281 C 290.515625 186.085938 290.5625 187.929688 290.5625 189.78125 Z M 290.5625 189.78125 "/><path style=" stroke:none;fill-rule:nonzero;fill:#ff9e7d;fill-opacity:1;" d="M 117.523438 179.496094 C 107.550781 179.496094 98.960938 185.316406 94.898438 193.730469 C 90.835938 185.316406 82.246094 179.496094 72.273438 179.496094 C 58.390625 179.496094 47.136719 190.75 47.136719 204.632812 C 47.136719 234.800781 94.898438 262.457031 94.898438 262.457031 C 94.898438 262.457031 142.660156 234.800781 142.660156 204.632812 C 142.660156 190.75 131.40625 179.496094 117.523438 179.496094 Z M 117.523438 179.496094 "/><path style=" stroke:none;fill-rule:nonzero;fill:#44235f;fill-opacity:1;" d="M 94.898438 264.070312 C 94.617188 264.070312 94.339844 263.996094 94.089844 263.851562 C 93.96875 263.78125 81.867188 256.734375 69.941406 246.0625 C 62.902344 239.761719 57.289062 233.445312 53.25 227.28125 C 48.121094 219.453125 45.523438 211.835938 45.523438 204.632812 C 45.523438 189.882812 57.523438 177.882812 72.273438 177.882812 C 77.398438 177.882812 82.378906 179.339844 86.671875 182.097656 C 90.003906 184.238281 92.804688 187.078125 94.898438 190.40625 C 96.992188 187.078125 99.792969 184.238281 103.121094 182.097656 C 107.417969 179.339844 112.394531 177.882812 117.523438 177.882812 C 132.273438 177.882812 144.273438 189.882812 144.273438 204.632812 C 144.273438 211.835938 141.671875 219.453125 136.546875 227.28125 C 132.507812 233.445312 126.890625 239.765625 119.855469 246.0625 C 107.929688 256.730469 95.828125 263.78125 95.707031 263.851562 C 95.457031 263.996094 95.175781 264.070312 94.898438 264.070312 Z M 72.273438 181.109375 C 59.304688 181.109375 48.75 191.660156 48.75 204.632812 C 48.75 219.609375 61.421875 234.097656 72.050781 243.617188 C 81.976562 252.507812 92.027344 258.832031 94.898438 260.574219 C 97.769531 258.832031 107.820312 252.507812 117.742188 243.617188 C 128.375 234.097656 141.046875 219.609375 141.046875 204.632812 C 141.046875 191.660156 130.492188 181.109375 117.523438 181.109375 C 108.433594 181.109375 100.320312 186.214844 96.351562 194.433594 C 96.082031 194.992188 95.519531 195.34375 94.898438 195.34375 C 94.277344 195.34375 93.714844 194.992188 93.445312 194.433594 C 89.476562 186.214844 81.363281 181.109375 72.273438 181.109375 Z M 72.273438 181.109375 "/><path style=" stroke:none;fill-rule:nonzero;fill:#ffffff;fill-opacity:1;" d="M 134.109375 319.535156 L 134.109375 316.546875 C 134.109375 314.65625 134.859375 312.839844 136.199219 311.503906 L 163.898438 283.800781 C 166.128906 281.570312 167.378906 278.546875 167.378906 275.394531 L 167.378906 217.640625 C 167.378906 213.535156 164.050781 210.207031 159.945312 210.207031 C 156.085938 210.207031 152.871094 213.160156 152.539062 217.007812 L 149.496094 252.644531 L 148.757812 253.074219 C 146.042969 252.011719 142.839844 252.574219 140.644531 254.769531 L 131.996094 263.417969 C 129.546875 265.871094 126.222656 267.246094 122.753906 267.246094 L 122.683594 267.246094 C 118.589844 267.246094 114.660156 268.875 111.761719 271.769531 L 98.378906 285.15625 C 96.148438 287.382812 94.898438 290.40625 94.898438 293.558594 L 94.898438 319.535156 Z M 134.109375 319.535156 "/><path style=" stroke:none;fill-rule:nonzero;fill:#44235f;fill-opacity:1;" d="M 134.109375 321.148438 C 133.21875 321.148438 132.496094 320.425781 132.496094 319.535156 L 132.496094 316.546875 C 132.496094 314.210938 133.40625 312.015625 135.058594 310.363281 L 162.757812 282.65625 C 164.699219 280.71875 165.765625 278.140625 165.765625 275.394531 L 165.765625 217.640625 C 165.765625 214.429688 163.15625 211.820312 159.945312 211.820312 C 156.902344 211.820312 154.40625 214.109375 154.148438 217.144531 L 151.105469 252.78125 C 151.0625 253.304688 150.765625 253.773438 150.308594 254.039062 L 149.566406 254.46875 C 149.140625 254.71875 148.625 254.757812 148.167969 254.578125 C 145.964844 253.714844 143.460938 254.238281 141.785156 255.910156 L 133.136719 264.558594 C 130.363281 267.332031 126.675781 268.859375 122.753906 268.859375 L 122.683594 268.859375 C 118.988281 268.859375 115.515625 270.300781 112.902344 272.914062 L 99.519531 286.296875 C 97.578125 288.238281 96.511719 290.816406 96.511719 293.558594 L 96.511719 319.535156 C 96.511719 320.425781 95.789062 321.148438 94.898438 321.148438 C 94.007812 321.148438 93.285156 320.425781 93.285156 319.535156 L 93.285156 293.558594 C 93.285156 289.953125 94.6875 286.566406 97.238281 284.015625 L 110.621094 270.628906 C 113.84375 267.40625 118.128906 265.632812 122.683594 265.632812 L 122.753906 265.632812 C 125.816406 265.632812 128.691406 264.441406 130.855469 262.277344 L 139.503906 253.628906 C 141.75 251.382812 144.96875 250.480469 148.003906 251.164062 L 150.933594 216.871094 C 151.125 214.605469 152.15625 212.511719 153.828125 210.976562 C 155.503906 209.4375 157.675781 208.59375 159.945312 208.59375 C 164.9375 208.59375 168.992188 212.652344 168.992188 217.640625 L 168.992188 275.394531 C 168.992188 279 167.589844 282.390625 165.042969 284.941406 L 137.339844 312.644531 C 136.296875 313.6875 135.722656 315.070312 135.722656 316.546875 L 135.722656 319.535156 C 135.722656 320.425781 135 321.148438 134.109375 321.148438 Z M 134.109375 321.148438 "/><path style=" stroke:none;fill-rule:nonzero;fill:#ffffff;fill-opacity:1;" d="M 94.898438 319.535156 L 94.898438 293.558594 C 94.898438 290.40625 93.644531 287.382812 91.417969 285.15625 L 78.035156 271.769531 C 75.136719 268.875 71.207031 267.246094 67.113281 267.246094 L 67.042969 267.246094 C 63.574219 267.246094 60.25 265.871094 57.800781 263.417969 L 49.152344 254.769531 C 47.03125 252.652344 43.96875 252.050781 41.320312 252.972656 L 40.296875 252.644531 L 37.253906 217.007812 C 36.925781 213.160156 33.710938 210.207031 29.847656 210.207031 C 25.742188 210.207031 22.417969 213.535156 22.417969 217.640625 L 22.417969 275.394531 C 22.417969 278.546875 23.667969 281.570312 25.894531 283.800781 L 53.597656 311.503906 C 54.933594 312.839844 55.6875 314.65625 55.6875 316.546875 L 55.6875 319.535156 Z M 94.898438 319.535156 "/><g clip-rule="nonzero" clip-path="url(#74c8f41a57)"><path style=" stroke:none;fill-rule:nonzero;fill:#44235f;fill-opacity:1;" d="M 94.898438 321.148438 C 94.007812 321.148438 93.285156 320.425781 93.285156 319.535156 L 93.285156 293.558594 C 93.285156 290.816406 92.214844 288.238281 90.277344 286.296875 L 76.894531 272.914062 C 74.28125 270.300781 70.808594 268.859375 67.113281 268.859375 L 67.042969 268.859375 C 63.121094 268.859375 59.433594 267.332031 56.660156 264.558594 L 48.011719 255.910156 C 46.382812 254.285156 44.023438 253.742188 41.847656 254.496094 C 41.515625 254.613281 41.15625 254.617188 40.824219 254.507812 L 39.804688 254.179688 C 39.183594 253.980469 38.746094 253.429688 38.691406 252.78125 L 35.648438 217.144531 C 35.386719 214.109375 32.894531 211.820312 29.847656 211.820312 C 26.640625 211.820312 24.03125 214.429688 24.03125 217.640625 L 24.03125 275.394531 C 24.03125 278.140625 25.097656 280.71875 27.039062 282.65625 L 54.738281 310.363281 C 56.390625 312.015625 57.300781 314.210938 57.300781 316.546875 L 57.300781 319.535156 C 57.300781 320.425781 56.578125 321.148438 55.6875 321.148438 C 54.796875 321.148438 54.074219 320.425781 54.074219 319.535156 L 54.074219 316.546875 C 54.074219 315.070312 53.5 313.6875 52.457031 312.644531 L 24.753906 284.941406 C 22.207031 282.390625 20.800781 279 20.800781 275.394531 L 20.800781 217.640625 C 20.800781 212.652344 24.859375 208.59375 29.847656 208.59375 C 32.121094 208.59375 34.292969 209.4375 35.96875 210.976562 C 37.640625 212.511719 38.667969 214.605469 38.863281 216.871094 L 41.792969 251.164062 C 44.824219 250.488281 48.070312 251.40625 50.292969 253.628906 L 58.941406 262.277344 C 61.105469 264.441406 63.980469 265.632812 67.042969 265.632812 L 67.113281 265.632812 C 71.667969 265.632812 75.953125 267.40625 79.175781 270.628906 L 92.558594 284.015625 C 95.109375 286.566406 96.511719 289.953125 96.511719 293.558594 L 96.511719 319.535156 C 96.511719 320.425781 95.789062 321.148438 94.898438 321.148438 Z M 94.898438 321.148438 "/></g><path style=" stroke:none;fill-rule:nonzero;fill:#44235f;fill-opacity:1;" d="M 130.546875 287.875 C 130.132812 287.875 129.71875 287.714844 129.402344 287.402344 C 128.773438 286.769531 128.773438 285.75 129.402344 285.117188 L 150.199219 264.324219 C 151.320312 263.199219 151.941406 261.707031 151.941406 260.117188 C 151.941406 258.527344 151.320312 257.035156 150.199219 255.910156 C 149.890625 255.601562 149.546875 255.328125 149.183594 255.09375 C 148.433594 254.617188 148.210938 253.617188 148.691406 252.867188 C 149.167969 252.113281 150.167969 251.894531 150.917969 252.375 C 151.480469 252.730469 152.003906 253.152344 152.480469 253.628906 C 154.214844 255.359375 155.167969 257.664062 155.167969 260.117188 C 155.167969 262.566406 154.214844 264.871094 152.480469 266.605469 L 131.6875 287.402344 C 131.371094 287.714844 130.957031 287.875 130.546875 287.875 Z M 130.546875 287.875 "/><path style=" stroke:none;fill-rule:nonzero;fill:#44235f;fill-opacity:1;" d="M 59.25 287.875 C 58.839844 287.875 58.425781 287.714844 58.109375 287.402344 L 37.316406 266.605469 C 35.582031 264.871094 34.628906 262.566406 34.628906 260.117188 C 34.628906 257.664062 35.582031 255.359375 37.316406 253.628906 C 37.992188 252.949219 38.765625 252.386719 39.613281 251.953125 C 40.40625 251.542969 41.378906 251.855469 41.785156 252.648438 C 42.191406 253.441406 41.878906 254.414062 41.085938 254.824219 C 40.539062 255.105469 40.039062 255.46875 39.597656 255.910156 C 38.476562 257.035156 37.855469 258.527344 37.855469 260.117188 C 37.855469 261.707031 38.476562 263.199219 39.597656 264.324219 L 60.390625 285.121094 C 61.023438 285.75 61.023438 286.769531 60.390625 287.402344 C 60.078125 287.714844 59.664062 287.875 59.25 287.875 Z M 59.25 287.875 "/><path style=" stroke:none;fill-rule:nonzero;fill:#ffffff;fill-opacity:1;" d="M 228.542969 130.910156 C 225.320312 135.402344 219.445312 136.257812 215.421875 132.816406 C 219.445312 136.257812 220.09375 142.695312 216.871094 147.1875 C 213.648438 151.683594 207.773438 152.535156 203.75 149.089844 L 199.609375 145.550781 C 201.828125 147.449219 203.023438 150.257812 203.105469 153.148438 C 203.171875 155.5 202.503906 157.90625 201.058594 159.921875 C 197.835938 164.414062 191.960938 165.265625 187.9375 161.824219 L 180.421875 155.394531 C 182.640625 157.292969 183.835938 160.101562 183.917969 162.992188 C 183.984375 165.34375 183.546875 166.847656 182.109375 168.808594 C 180.160156 171.464844 175.605469 174.828125 170.585938 171.070312 L 88.878906 104.0625 C 89.65625 103.695312 90.359375 103.117188 90.917969 102.335938 L 121.140625 60.1875 C 122.910156 57.722656 124.730469 55.953125 124.730469 55.953125 C 126.109375 55.714844 128.382812 57.066406 132.140625 57.027344 C 142.816406 56.921875 166.535156 56.988281 174.9375 62.332031 C 177.761719 64.125 221.34375 111.695312 221.34375 111.695312 L 227.09375 116.539062 C 231.117188 119.980469 231.765625 126.414062 228.542969 130.910156 Z M 228.542969 130.910156 "/><path style=" stroke:none;fill-rule:nonzero;fill:#44235f;fill-opacity:1;" d="M 175.175781 174.363281 C 173.261719 174.363281 171.398438 173.691406 169.621094 172.363281 C 169.601562 172.347656 169.582031 172.332031 169.566406 172.316406 L 87.859375 105.3125 C 87.429688 104.960938 87.210938 104.417969 87.277344 103.867188 C 87.34375 103.320312 87.6875 102.84375 88.1875 102.605469 C 88.742188 102.34375 89.222656 101.933594 89.609375 101.394531 L 119.828125 59.25 C 121.660156 56.695312 123.527344 54.871094 123.605469 54.792969 C 123.839844 54.566406 124.136719 54.417969 124.457031 54.359375 C 125.394531 54.199219 126.363281 54.445312 127.484375 54.734375 C 128.699219 55.046875 130.210938 55.433594 132.125 55.414062 C 155.277344 55.1875 169.566406 57.003906 175.804688 60.96875 C 176.335938 61.304688 177.746094 62.203125 200.382812 86.589844 C 211.039062 98.066406 221.507812 109.480469 222.464844 110.527344 L 228.132812 115.304688 C 230.40625 117.25 231.824219 120.039062 232.140625 123.167969 C 232.457031 126.273438 231.644531 129.355469 229.855469 131.851562 C 227.980469 134.464844 225.289062 136.101562 222.273438 136.46875 C 221.441406 136.570312 220.613281 136.566406 219.800781 136.46875 C 220.140625 137.410156 220.367188 138.410156 220.46875 139.445312 C 220.78125 142.550781 219.972656 145.632812 218.183594 148.128906 C 216.308594 150.738281 213.617188 152.378906 210.601562 152.746094 C 208.5 153 206.425781 152.601562 204.585938 151.613281 C 204.660156 152.101562 204.703125 152.597656 204.71875 153.101562 C 204.796875 155.882812 203.960938 158.636719 202.371094 160.859375 C 200.496094 163.472656 197.804688 165.113281 194.789062 165.476562 C 191.929688 165.824219 189.121094 164.960938 186.886719 163.050781 L 185.449219 161.816406 C 185.492188 162.191406 185.519531 162.566406 185.527344 162.945312 C 185.609375 165.699219 185.035156 167.546875 183.410156 169.761719 C 182.742188 170.675781 180.261719 173.695312 176.417969 174.269531 C 176.003906 174.332031 175.589844 174.363281 175.175781 174.363281 Z M 171.582031 169.796875 C 173.015625 170.863281 174.484375 171.292969 175.945312 171.078125 C 178.015625 170.769531 179.8125 169.210938 180.808594 167.855469 C 182.011719 166.210938 182.363281 165.085938 182.304688 163.039062 C 182.230469 160.492188 181.164062 158.152344 179.371094 156.621094 C 178.695312 156.039062 178.613281 155.023438 179.195312 154.34375 C 179.773438 153.667969 180.792969 153.589844 181.46875 154.167969 C 181.46875 154.167969 181.46875 154.167969 181.472656 154.167969 L 188.984375 160.597656 C 190.523438 161.914062 192.449219 162.507812 194.402344 162.273438 C 196.507812 162.019531 198.40625 160.847656 199.746094 158.980469 C 200.929688 157.328125 201.550781 155.273438 201.492188 153.195312 C 201.417969 150.652344 200.351562 148.316406 198.566406 146.78125 L 198.558594 146.777344 C 198.558594 146.777344 198.558594 146.777344 198.558594 146.773438 C 197.882812 146.195312 197.800781 145.175781 198.382812 144.5 C 198.960938 143.824219 199.980469 143.742188 200.65625 144.324219 C 200.660156 144.324219 200.660156 144.324219 200.660156 144.324219 L 204.796875 147.867188 C 206.339844 149.183594 208.261719 149.777344 210.214844 149.539062 C 212.320312 149.285156 214.21875 148.117188 215.558594 146.246094 C 218.300781 142.421875 217.769531 136.949219 214.371094 134.042969 C 214 133.722656 213.808594 133.273438 213.808594 132.816406 C 213.808594 132.445312 213.933594 132.070312 214.195312 131.769531 C 214.773438 131.089844 215.792969 131.011719 216.46875 131.589844 C 218.007812 132.90625 219.929688 133.5 221.882812 133.265625 C 223.992188 133.007812 225.890625 131.839844 227.234375 129.96875 C 229.972656 126.144531 229.441406 120.671875 226.042969 117.765625 L 220.304688 112.929688 C 220.253906 112.882812 220.203125 112.835938 220.15625 112.785156 C 202.863281 93.910156 176.332031 65.273438 174.066406 63.6875 C 170.65625 61.527344 163.992188 60.03125 154.261719 59.246094 C 146.132812 58.589844 137.753906 58.585938 132.15625 58.640625 C 129.820312 58.664062 128.003906 58.199219 126.679688 57.859375 C 126.257812 57.75 125.765625 57.625 125.40625 57.566406 C 124.78125 58.222656 123.597656 59.527344 122.453125 61.128906 L 92.230469 103.277344 C 92.011719 103.582031 91.769531 103.867188 91.511719 104.132812 Z M 228.542969 130.910156 L 228.546875 130.910156 Z M 228.542969 130.910156 "/><path style=" stroke:none;fill-rule:nonzero;fill:#44235f;fill-opacity:1;" d="M 215.421875 134.429688 C 215.0625 134.429688 214.703125 134.3125 214.402344 134.070312 L 198.347656 121 C 197.65625 120.4375 197.550781 119.421875 198.113281 118.730469 C 198.675781 118.039062 199.691406 117.933594 200.382812 118.496094 L 216.441406 131.566406 C 217.132812 132.128906 217.234375 133.144531 216.671875 133.835938 C 216.355469 134.226562 215.890625 134.429688 215.421875 134.429688 Z M 215.421875 134.429688 "/><path style=" stroke:none;fill-rule:nonzero;fill:#44235f;fill-opacity:1;" d="M 199.605469 147.164062 C 199.238281 147.164062 198.863281 147.035156 198.5625 146.777344 L 186.230469 136.257812 C 185.554688 135.679688 185.472656 134.660156 186.050781 133.984375 C 186.628906 133.304688 187.648438 133.222656 188.328125 133.800781 L 200.65625 144.320312 C 201.332031 144.898438 201.414062 145.917969 200.835938 146.597656 C 200.515625 146.972656 200.0625 147.164062 199.605469 147.164062 Z M 199.605469 147.164062 "/><path style=" stroke:none;fill-rule:nonzero;fill:#44235f;fill-opacity:1;" d="M 180.421875 157.007812 C 180.011719 157.007812 179.605469 156.855469 179.292969 156.546875 L 176.523438 153.839844 C 175.886719 153.21875 175.875 152.195312 176.5 151.558594 C 177.121094 150.921875 178.144531 150.910156 178.78125 151.535156 L 181.546875 154.242188 C 182.183594 154.863281 182.195312 155.886719 181.574219 156.523438 C 181.257812 156.84375 180.839844 157.007812 180.421875 157.007812 Z M 180.421875 157.007812 "/><path style=" stroke:none;fill-rule:nonzero;fill:#50e4ee;fill-opacity:1;" d="M 109.285156 39.363281 L 131.578125 53.964844 C 134.183594 55.945312 134.757812 59.789062 132.859375 62.550781 L 100.386719 109.800781 C 98.488281 112.566406 94.835938 113.199219 92.230469 111.21875 L 70.859375 94.984375 Z M 109.285156 39.363281 "/><g clip-rule="nonzero" clip-path="url(#613d994c86)"><path style=" stroke:none;fill-rule:nonzero;fill:#44235f;fill-opacity:1;" d="M 95.605469 113.984375 C 94.046875 113.984375 92.535156 113.476562 91.253906 112.503906 L 69.886719 96.269531 C 69.199219 95.75 69.042969 94.777344 69.535156 94.070312 L 107.957031 38.449219 C 108.457031 37.726562 109.4375 37.535156 110.167969 38.015625 L 132.460938 52.617188 C 132.492188 52.636719 132.523438 52.65625 132.554688 52.679688 C 135.832031 55.171875 136.566406 60.007812 134.1875 63.464844 L 101.714844 110.714844 C 100.53125 112.441406 98.769531 113.570312 96.761719 113.894531 C 96.375 113.957031 95.988281 113.984375 95.605469 113.984375 Z M 73.066406 94.632812 L 93.207031 109.933594 C 94.089844 110.605469 95.171875 110.878906 96.246094 110.707031 C 97.378906 110.523438 98.375 109.878906 99.054688 108.886719 L 131.527344 61.636719 C 132.933594 59.59375 132.535156 56.753906 130.640625 55.28125 L 109.71875 41.578125 Z M 73.066406 94.632812 "/></g><path style=" stroke:none;fill-rule:nonzero;fill:#ffffff;fill-opacity:1;" d="M 206.898438 59.542969 C 205.289062 59.152344 198.296875 57.984375 193.820312 57.582031 C 182.058594 56.519531 173.519531 58.46875 163.898438 62.710938 L 135.308594 76.367188 C 130.015625 79.5 128.261719 86.335938 131.398438 91.632812 L 131.402344 91.644531 C 134.539062 96.941406 141.371094 98.691406 146.671875 95.558594 L 180.667969 78.703125 L 232.929688 120.777344 L 244.230469 115.082031 Z M 206.898438 59.542969 "/><path style=" stroke:none;fill-rule:nonzero;fill:#44235f;fill-opacity:1;" d="M 232.929688 122.390625 C 232.570312 122.390625 232.210938 122.269531 231.917969 122.035156 L 180.460938 80.605469 L 147.441406 96.976562 C 145.421875 98.160156 143.203125 98.722656 141.015625 98.722656 C 136.652344 98.722656 132.394531 96.484375 130.015625 92.464844 C 130.007812 92.449219 129.996094 92.4375 129.988281 92.421875 C 128.269531 89.496094 127.785156 86.078125 128.628906 82.789062 C 129.476562 79.488281 131.554688 76.714844 134.488281 74.976562 C 134.53125 74.953125 134.570312 74.929688 134.613281 74.910156 L 163.203125 61.253906 C 163.21875 61.25 163.234375 61.242188 163.25 61.234375 C 173.988281 56.5 182.890625 54.976562 193.964844 55.972656 C 198.351562 56.367188 205.488281 57.542969 207.277344 57.976562 C 208.144531 58.183594 208.675781 59.058594 208.46875 59.921875 C 208.257812 60.789062 207.386719 61.320312 206.519531 61.113281 C 205.050781 60.757812 198.089844 59.585938 193.675781 59.1875 C 183.058594 58.230469 174.894531 59.628906 164.574219 64.179688 L 136.074219 77.789062 C 133.914062 79.089844 132.382812 81.144531 131.753906 83.589844 C 131.125 86.054688 131.488281 88.621094 132.785156 90.808594 C 132.792969 90.824219 132.800781 90.839844 132.808594 90.851562 C 135.496094 95.347656 141.335938 96.839844 145.851562 94.167969 C 145.882812 94.148438 145.917969 94.128906 145.957031 94.109375 L 179.949219 77.253906 C 180.515625 76.976562 181.1875 77.050781 181.679688 77.445312 L 233.132812 118.867188 L 243.503906 113.640625 C 244.300781 113.238281 245.269531 113.558594 245.671875 114.355469 C 246.070312 115.152344 245.75 116.121094 244.957031 116.523438 L 233.65625 122.21875 C 233.425781 122.335938 233.175781 122.390625 232.929688 122.390625 Z M 232.929688 122.390625 "/><path style=" stroke:none;fill-rule:nonzero;fill:#ffffff;fill-opacity:1;" d="M 155.796875 147.53125 C 159.46875 144.3125 164.964844 144.792969 168.074219 148.601562 C 171.183594 152.40625 170.726562 158.097656 167.054688 161.316406 L 158.492188 168.125 C 154.949219 170.078125 150.453125 169.28125 147.753906 165.976562 C 146.398438 164.320312 145.71875 162.304688 145.6875 160.292969 C 145.648438 157.683594 146.695312 155.074219 148.773438 153.261719 Z M 155.796875 147.53125 "/><path style=" stroke:none;fill-rule:nonzero;fill:#44235f;fill-opacity:1;" d="M 154.4375 170.78125 C 151.457031 170.78125 148.515625 169.460938 146.503906 166.996094 C 144.972656 165.125 144.113281 162.753906 144.074219 160.316406 C 144.023438 157.125 145.351562 154.109375 147.710938 152.046875 C 147.722656 152.035156 147.738281 152.023438 147.75 152.011719 L 154.753906 146.296875 C 156.851562 144.472656 159.507812 143.59375 162.246094 143.820312 C 165.019531 144.050781 167.53125 145.386719 169.324219 147.582031 C 172.972656 152.042969 172.429688 158.75 168.121094 162.527344 C 168.101562 162.546875 168.078125 162.5625 168.058594 162.578125 L 159.496094 169.386719 C 159.425781 169.445312 159.347656 169.496094 159.269531 169.539062 C 157.75 170.378906 156.085938 170.78125 154.4375 170.78125 Z M 149.8125 154.492188 C 148.183594 155.929688 147.265625 158.03125 147.300781 160.265625 C 147.328125 161.980469 147.929688 163.644531 149 164.953125 C 151.113281 167.542969 154.710938 168.296875 157.597656 166.773438 L 166.019531 160.078125 C 169.011719 157.425781 169.378906 152.746094 166.824219 149.621094 C 165.59375 148.113281 163.871094 147.195312 161.980469 147.035156 C 160.113281 146.882812 158.292969 147.488281 156.859375 148.746094 C 156.847656 148.757812 156.832031 148.769531 156.816406 148.78125 Z M 155.796875 147.53125 Z M 155.796875 147.53125 "/><path style=" stroke:none;fill-rule:nonzero;fill:#ffffff;fill-opacity:1;" d="M 126.097656 126.378906 C 128.175781 124.566406 129.222656 121.957031 129.183594 119.347656 C 129.152344 117.335938 128.472656 115.320312 127.117188 113.664062 C 124.417969 110.359375 119.917969 109.566406 116.378906 111.519531 L 104.351562 121.222656 C 100.679688 124.441406 100.226562 130.132812 103.332031 133.941406 C 106.441406 137.746094 111.941406 138.226562 115.613281 135.011719 Z M 126.097656 126.378906 "/><path style=" stroke:none;fill-rule:nonzero;fill:#44235f;fill-opacity:1;" d="M 110.007812 138.753906 C 109.726562 138.753906 109.441406 138.742188 109.15625 138.71875 C 106.386719 138.488281 103.875 137.152344 102.082031 134.960938 C 98.4375 130.496094 98.980469 123.789062 103.289062 120.011719 C 103.304688 119.996094 103.320312 119.980469 103.339844 119.96875 L 115.363281 110.261719 C 115.4375 110.203125 115.515625 110.152344 115.597656 110.105469 C 119.871094 107.746094 125.242188 108.816406 128.367188 112.644531 C 129.898438 114.515625 130.757812 116.886719 130.796875 119.324219 C 130.847656 122.515625 129.519531 125.53125 127.160156 127.59375 C 127.148438 127.605469 127.136719 127.613281 127.125 127.625 L 116.65625 136.242188 C 114.777344 137.878906 112.445312 138.753906 110.007812 138.753906 Z M 105.394531 122.457031 C 102.394531 125.109375 102.03125 129.792969 104.582031 132.921875 C 105.8125 134.429688 107.535156 135.34375 109.425781 135.503906 C 111.292969 135.660156 113.113281 135.054688 114.546875 133.796875 C 114.5625 133.785156 114.574219 133.773438 114.585938 133.765625 L 125.054688 125.148438 C 126.6875 123.710938 127.605469 121.609375 127.570312 119.375 C 127.542969 117.660156 126.941406 115.996094 125.871094 114.6875 C 123.757812 112.101562 120.164062 111.347656 117.273438 112.867188 Z M 126.097656 126.378906 L 126.101562 126.378906 Z M 126.097656 126.378906 "/><path style=" stroke:none;fill-rule:nonzero;fill:#ffffff;fill-opacity:1;" d="M 144.21875 134.15625 L 147.996094 130.847656 C 151.671875 127.632812 157.167969 128.109375 160.277344 131.914062 C 163.386719 135.722656 162.929688 141.414062 159.257812 144.632812 L 148.769531 153.261719 L 141.910156 159.265625 C 138.238281 162.480469 132.742188 162.007812 129.628906 158.199219 C 128.277344 156.542969 127.601562 154.527344 127.570312 152.515625 C 127.527344 149.90625 128.578125 147.296875 130.648438 145.484375 Z M 144.21875 134.15625 "/><path style=" stroke:none;fill-rule:nonzero;fill:#44235f;fill-opacity:1;" d="M 136.304688 163.011719 C 136.023438 163.011719 135.738281 163 135.457031 162.976562 C 132.683594 162.746094 130.171875 161.410156 128.382812 159.21875 C 126.855469 157.351562 125.992188 154.980469 125.957031 152.542969 C 125.90625 149.347656 127.230469 146.332031 129.585938 144.269531 C 129.597656 144.261719 129.605469 144.253906 129.617188 144.246094 L 143.167969 132.929688 L 146.933594 129.632812 C 149.035156 127.792969 151.703125 126.90625 154.453125 127.136719 C 157.222656 127.367188 159.734375 128.703125 161.527344 130.894531 C 165.175781 135.359375 164.632812 142.066406 160.324219 145.847656 C 160.308594 145.855469 160.296875 145.867188 160.285156 145.878906 L 149.816406 154.492188 L 142.972656 160.480469 C 141.089844 162.128906 138.75 163.011719 136.304688 163.011719 Z M 131.699219 146.710938 C 130.066406 148.148438 129.148438 150.253906 129.183594 152.492188 C 129.207031 154.207031 129.8125 155.867188 130.878906 157.175781 C 132.113281 158.683594 133.832031 159.601562 135.722656 159.761719 C 137.59375 159.917969 139.410156 159.308594 140.847656 158.054688 L 147.707031 152.046875 C 147.722656 152.035156 147.734375 152.023438 147.746094 152.015625 L 158.214844 143.402344 C 161.214844 140.753906 161.582031 136.0625 159.027344 132.9375 C 157.796875 131.429688 156.078125 130.511719 154.183594 130.355469 C 152.316406 130.199219 150.496094 130.804688 149.058594 132.058594 L 145.28125 135.371094 C 145.273438 135.378906 145.261719 135.386719 145.253906 135.394531 Z M 144.21875 134.15625 Z M 144.21875 134.15625 "/><path style=" stroke:none;fill-rule:nonzero;fill:#ffffff;fill-opacity:1;" d="M 126.097656 126.378906 L 132.957031 120.371094 C 136.632812 117.15625 142.128906 117.636719 145.238281 121.441406 C 146.589844 123.097656 147.269531 125.113281 147.300781 127.125 C 147.34375 129.734375 146.292969 132.34375 144.21875 134.15625 L 130.648438 145.484375 L 126.871094 148.792969 C 123.199219 152.007812 117.703125 151.53125 114.59375 147.726562 C 111.484375 143.917969 111.941406 138.226562 115.613281 135.011719 Z M 126.097656 126.378906 "/><path style=" stroke:none;fill-rule:nonzero;fill:#44235f;fill-opacity:1;" d="M 121.269531 152.539062 C 120.988281 152.539062 120.703125 152.527344 120.417969 152.503906 C 117.648438 152.273438 115.136719 150.9375 113.34375 148.746094 C 109.695312 144.277344 110.238281 137.574219 114.546875 133.796875 C 114.5625 133.785156 114.574219 133.777344 114.585938 133.765625 L 125.054688 125.148438 L 131.894531 119.160156 C 133.996094 117.320312 136.667969 116.433594 139.414062 116.664062 C 142.1875 116.898438 144.695312 118.230469 146.488281 120.421875 C 148.015625 122.292969 148.878906 124.664062 148.914062 127.101562 C 148.964844 130.292969 147.640625 133.308594 145.28125 135.371094 C 145.269531 135.378906 145.261719 135.386719 145.25 135.394531 L 131.699219 146.710938 L 127.933594 150.007812 C 126.050781 151.65625 123.710938 152.539062 121.269531 152.539062 Z M 116.65625 136.242188 C 113.65625 138.886719 113.289062 143.574219 115.84375 146.703125 C 117.074219 148.210938 118.796875 149.128906 120.6875 149.285156 C 122.554688 149.441406 124.375 148.835938 125.808594 147.582031 L 129.585938 144.269531 C 129.597656 144.261719 129.605469 144.253906 129.617188 144.246094 L 143.167969 132.929688 C 144.804688 131.492188 145.722656 129.386719 145.6875 127.152344 C 145.664062 125.4375 145.058594 123.773438 143.988281 122.464844 C 142.757812 120.957031 141.039062 120.039062 139.148438 119.878906 C 137.277344 119.726562 135.457031 120.332031 134.019531 121.585938 L 127.164062 127.59375 C 127.148438 127.605469 127.136719 127.613281 127.125 127.625 Z M 126.097656 126.378906 L 126.101562 126.378906 Z M 126.097656 126.378906 "/><path style=" stroke:none;fill-rule:nonzero;fill:#ffffff;fill-opacity:1;" d="M 126.097656 126.378906 L 115.613281 135.011719 Z M 126.097656 126.378906 "/><path style=" stroke:none;fill-rule:nonzero;fill:#44235f;fill-opacity:1;" d="M 115.613281 136.625 C 115.148438 136.625 114.683594 136.425781 114.367188 136.035156 C 113.800781 135.347656 113.898438 134.332031 114.585938 133.765625 L 125.074219 125.132812 C 125.761719 124.566406 126.777344 124.664062 127.34375 125.355469 C 127.910156 126.042969 127.8125 127.058594 127.125 127.625 L 116.636719 136.257812 C 116.335938 136.503906 115.972656 136.625 115.613281 136.625 Z M 115.613281 136.625 "/><path style=" stroke:none;fill-rule:nonzero;fill:#ff9e7d;fill-opacity:1;" d="M 270.457031 103.542969 L 246.507812 117.425781 C 243.589844 119.121094 239.792969 118.027344 238.027344 114.984375 L 207.863281 62.945312 C 206.097656 59.902344 207.035156 56.0625 209.957031 54.371094 L 234.027344 39.328125 Z M 270.457031 103.542969 "/><g clip-rule="nonzero" clip-path="url(#f9d34a5064)"><path style=" stroke:none;fill-rule:nonzero;fill:#44235f;fill-opacity:1;" d="M 243.546875 119.835938 C 240.820312 119.835938 238.132812 118.378906 236.632812 115.792969 L 206.464844 63.753906 C 204.261719 59.953125 205.457031 55.132812 209.125 52.988281 L 233.171875 37.960938 C 233.546875 37.726562 234 37.65625 234.425781 37.765625 C 234.851562 37.875 235.214844 38.152344 235.433594 38.53125 L 271.859375 102.746094 C 272.296875 103.515625 272.03125 104.496094 271.265625 104.9375 L 247.320312 118.824219 C 246.136719 119.507812 244.835938 119.835938 243.546875 119.835938 Z M 233.457031 41.589844 L 210.8125 55.738281 C 210.796875 55.746094 210.78125 55.757812 210.765625 55.765625 C 208.621094 57.011719 207.941406 59.867188 209.257812 62.136719 L 239.425781 114.175781 C 240.738281 116.441406 243.554688 117.273438 245.699219 116.03125 L 268.265625 102.949219 Z M 233.457031 41.589844 "/></g><path style=" stroke:none;fill-rule:nonzero;fill:#ff9e7d;fill-opacity:1;" d="M 297.34375 315.976562 L 297.363281 251.300781 L 338.679688 251.375 L 338.542969 315.976562 Z M 297.34375 315.976562 "/><path style=" stroke:none;fill-rule:nonzero;fill:#44235f;fill-opacity:1;" d="M 338.542969 317.589844 C 338.539062 317.589844 338.539062 317.589844 338.539062 317.589844 C 337.648438 317.589844 336.925781 316.863281 336.925781 315.972656 L 337.0625 252.984375 L 298.976562 252.917969 L 298.957031 315.976562 C 298.957031 316.867188 298.234375 317.589844 297.34375 317.589844 C 296.453125 317.589844 295.730469 316.867188 295.730469 315.976562 L 295.75 251.300781 C 295.75 250.871094 295.917969 250.460938 296.222656 250.15625 C 296.523438 249.855469 296.933594 249.6875 297.363281 249.6875 C 297.363281 249.6875 297.363281 249.6875 297.367188 249.6875 L 338.683594 249.761719 C 339.109375 249.761719 339.519531 249.933594 339.824219 250.234375 C 340.125 250.539062 340.292969 250.949219 340.292969 251.378906 L 340.15625 315.980469 C 340.152344 316.871094 339.429688 317.589844 338.542969 317.589844 Z M 338.542969 317.589844 "/><path style=" stroke:none;fill-rule:nonzero;fill:#ffffff;fill-opacity:1;" d="M 240.078125 195.394531 C 240.078125 196.394531 239.980469 197.386719 239.78125 198.371094 C 239.585938 199.351562 239.296875 200.308594 238.914062 201.234375 C 238.53125 202.160156 238.0625 203.039062 237.503906 203.871094 C 236.949219 204.703125 236.316406 205.476562 235.609375 206.183594 C 234.898438 206.890625 234.128906 207.523438 233.296875 208.082031 C 232.464844 208.636719 231.582031 209.105469 230.65625 209.492188 C 229.734375 209.875 228.777344 210.164062 227.796875 210.359375 C 226.8125 210.554688 225.820312 210.652344 224.820312 210.652344 C 223.816406 210.652344 222.824219 210.554688 221.84375 210.359375 C 220.859375 210.164062 219.90625 209.875 218.980469 209.492188 C 218.054688 209.105469 217.175781 208.636719 216.34375 208.082031 C 215.511719 207.523438 214.738281 206.890625 214.03125 206.183594 C 213.324219 205.476562 212.691406 204.703125 212.132812 203.871094 C 211.578125 203.039062 211.109375 202.160156 210.722656 201.234375 C 210.339844 200.308594 210.050781 199.351562 209.855469 198.371094 C 209.660156 197.386719 209.5625 196.394531 209.5625 195.394531 C 209.5625 194.390625 209.660156 193.398438 209.855469 192.417969 C 210.050781 191.433594 210.339844 190.480469 210.722656 189.554688 C 211.109375 188.628906 211.578125 187.75 212.132812 186.917969 C 212.691406 186.085938 213.324219 185.3125 214.03125 184.605469 C 214.738281 183.898438 215.511719 183.265625 216.34375 182.707031 C 217.175781 182.152344 218.054688 181.679688 218.980469 181.296875 C 219.90625 180.914062 220.859375 180.625 221.84375 180.429688 C 222.824219 180.234375 223.816406 180.136719 224.820312 180.136719 C 225.820312 180.136719 226.8125 180.234375 227.796875 180.429688 C 228.777344 180.625 229.734375 180.914062 230.65625 181.296875 C 231.582031 181.679688 232.464844 182.152344 233.296875 182.707031 C 234.128906 183.265625 234.898438 183.898438 235.609375 184.605469 C 236.316406 185.3125 236.949219 186.085938 237.503906 186.917969 C 238.0625 187.75 238.53125 188.628906 238.914062 189.554688 C 239.296875 190.480469 239.585938 191.433594 239.78125 192.417969 C 239.980469 193.398438 240.078125 194.390625 240.078125 195.394531 Z M 240.078125 195.394531 "/><path style=" stroke:none;fill-rule:nonzero;fill:#44235f;fill-opacity:1;" d="M 224.820312 212.265625 C 215.515625 212.265625 207.949219 204.695312 207.949219 195.394531 C 207.949219 186.089844 215.515625 178.523438 224.820312 178.523438 C 234.121094 178.523438 241.691406 186.089844 241.691406 195.394531 C 241.691406 204.695312 234.121094 212.265625 224.820312 212.265625 Z M 224.820312 181.75 C 217.296875 181.75 211.175781 187.871094 211.175781 195.394531 C 211.175781 202.917969 217.296875 209.039062 224.820312 209.039062 C 232.34375 209.039062 238.460938 202.917969 238.460938 195.394531 C 238.460938 187.871094 232.34375 181.75 224.820312 181.75 Z M 224.820312 181.75 "/><path style=" stroke:none;fill-rule:nonzero;fill:#ffffff;fill-opacity:1;" d="M 242.839844 236.507812 C 248.183594 238.453125 254.789062 239.800781 262.59375 239.5 C 267.078125 239.324219 270.53125 243.414062 269.617188 247.804688 C 269.019531 250.683594 266.664062 252.910156 263.746094 253.261719 C 261.964844 253.476562 260.222656 253.617188 258.527344 253.691406 L 238.195312 254.957031 Z M 242.839844 236.507812 "/><path style=" stroke:none;fill-rule:nonzero;fill:#44235f;fill-opacity:1;" d="M 238.195312 256.570312 C 237.351562 256.570312 236.640625 255.910156 236.585938 255.054688 C 236.53125 254.167969 237.207031 253.402344 238.097656 253.34375 L 258.425781 252.082031 C 258.433594 252.082031 258.445312 252.082031 258.453125 252.082031 C 260.140625 252.003906 261.859375 251.863281 263.554688 251.660156 C 265.769531 251.394531 267.574219 249.710938 268.039062 247.476562 C 268.371094 245.871094 267.957031 244.230469 266.894531 242.980469 C 265.835938 241.726562 264.292969 241.046875 262.65625 241.109375 C 255.53125 241.390625 248.675781 240.351562 242.289062 238.023438 C 241.449219 237.71875 241.019531 236.792969 241.324219 235.957031 C 241.628906 235.121094 242.554688 234.6875 243.390625 234.992188 C 249.386719 237.171875 255.824219 238.148438 262.53125 237.886719 C 265.164062 237.785156 267.65625 238.878906 269.359375 240.894531 C 271.066406 242.910156 271.734375 245.550781 271.199219 248.132812 C 270.449219 251.726562 267.53125 254.433594 263.9375 254.863281 C 262.167969 255.074219 260.375 255.222656 258.613281 255.304688 L 238.296875 256.566406 C 238.261719 256.570312 238.230469 256.570312 238.195312 256.570312 Z M 238.195312 256.570312 "/><path style=" stroke:none;fill-rule:nonzero;fill:#50e4ee;fill-opacity:1;" d="M 242.449219 315.976562 L 242.449219 233.835938 C 242.449219 225.828125 235.960938 219.335938 227.953125 219.335938 L 221.050781 219.335938 C 213.042969 219.335938 206.550781 225.828125 206.550781 233.835938 L 206.550781 315.976562 Z M 242.449219 315.976562 "/><path style=" stroke:none;fill-rule:nonzero;fill:#44235f;fill-opacity:1;" d="M 242.449219 317.589844 C 241.558594 317.589844 240.835938 316.867188 240.835938 315.976562 L 240.835938 233.835938 C 240.835938 226.730469 235.058594 220.953125 227.953125 220.953125 L 221.050781 220.953125 C 213.945312 220.953125 208.167969 226.730469 208.167969 233.835938 L 208.167969 315.976562 C 208.167969 316.867188 207.445312 317.589844 206.554688 317.589844 C 205.660156 317.589844 204.9375 316.867188 204.9375 315.976562 L 204.9375 233.835938 C 204.9375 224.953125 212.167969 217.722656 221.050781 217.722656 L 227.953125 217.722656 C 236.835938 217.722656 244.0625 224.953125 244.0625 233.835938 L 244.0625 315.976562 C 244.0625 316.867188 243.34375 317.589844 242.449219 317.589844 Z M 242.449219 317.589844 "/><path style=" stroke:none;fill-rule:nonzero;fill:#44235f;fill-opacity:1;" d="M 229.886719 317.589844 C 228.996094 317.589844 228.273438 316.867188 228.273438 315.976562 L 228.273438 298.320312 C 228.273438 297.429688 228.996094 296.707031 229.886719 296.707031 C 230.777344 296.707031 231.5 297.429688 231.5 298.320312 L 231.5 315.976562 C 231.5 316.867188 230.777344 317.589844 229.886719 317.589844 Z M 229.886719 317.589844 "/><path style=" stroke:none;fill-rule:nonzero;fill:#44235f;fill-opacity:1;" d="M 242.449219 279.019531 L 206.628906 279.019531 C 205.738281 279.019531 205.015625 278.296875 205.015625 277.402344 C 205.015625 276.511719 205.738281 275.789062 206.628906 275.789062 L 242.449219 275.789062 C 243.34375 275.789062 244.0625 276.511719 244.0625 277.402344 C 244.0625 278.296875 243.34375 279.019531 242.449219 279.019531 Z M 242.449219 279.019531 "/><path style=" stroke:none;fill-rule:nonzero;fill:#ffffff;fill-opacity:1;" d="M 219.789062 247.621094 C 219.789062 247.621094 232.917969 264.898438 259.519531 268.921875 C 262.425781 269.363281 265.289062 267.84375 266.632812 265.230469 C 268.683594 261.238281 266.441406 256.375 262.074219 255.351562 C 238.980469 249.929688 230.640625 232.777344 230.640625 232.777344 Z M 219.789062 247.621094 "/><path style=" stroke:none;fill-rule:nonzero;fill:#44235f;fill-opacity:1;" d="M 260.527344 270.613281 C 260.113281 270.613281 259.695312 270.582031 259.277344 270.519531 C 245.214844 268.390625 234.902344 262.574219 228.726562 258.066406 C 222.007812 253.160156 218.644531 248.78125 218.503906 248.597656 C 217.964844 247.890625 218.101562 246.875 218.8125 246.335938 C 219.519531 245.796875 220.53125 245.9375 221.070312 246.644531 C 221.105469 246.6875 224.355469 250.902344 230.734375 255.535156 C 236.601562 259.800781 246.402344 265.304688 259.761719 267.328125 C 261.96875 267.664062 264.152344 266.523438 265.195312 264.492188 C 265.945312 263.03125 265.980469 261.339844 265.292969 259.851562 C 264.605469 258.363281 263.296875 257.296875 261.703125 256.921875 C 249.40625 254.035156 241.242188 247.851562 236.558594 243.171875 C 231.453125 238.074219 229.28125 233.667969 229.191406 233.484375 C 228.800781 232.679688 229.136719 231.714844 229.9375 231.324219 C 230.738281 230.9375 231.703125 231.269531 232.09375 232.070312 C 232.113281 232.109375 234.175781 236.257812 238.9375 240.988281 C 243.316406 245.332031 250.945312 251.082031 262.441406 253.78125 C 265.007812 254.382812 267.117188 256.101562 268.222656 258.5 C 269.332031 260.894531 269.273438 263.617188 268.066406 265.964844 C 266.585938 268.847656 263.65625 270.613281 260.527344 270.613281 Z M 260.527344 270.613281 "/><path style=" stroke:none;fill-rule:nonzero;fill:#ffffff;fill-opacity:1;" d="M 297.300781 251.335938 L 297.300781 286.289062 C 297.300781 290.242188 294.101562 293.453125 290.148438 293.46875 C 286.171875 293.484375 282.941406 290.265625 282.941406 286.289062 L 282.941406 249.667969 C 282.941406 237.703125 352.941406 237.703125 352.941406 249.667969 L 352.941406 287.160156 C 352.941406 291.15625 349.679688 294.382812 345.683594 294.339844 C 341.75 294.296875 338.582031 291.09375 338.582031 287.160156 L 338.582031 253.132812 Z M 297.300781 251.335938 "/><g clip-rule="nonzero" clip-path="url(#1a32cdbc51)"><path style=" stroke:none;fill-rule:nonzero;fill:#44235f;fill-opacity:1;" d="M 345.765625 295.953125 C 345.734375 295.953125 345.699219 295.953125 345.667969 295.953125 C 340.871094 295.902344 336.96875 291.957031 336.96875 287.160156 L 336.96875 253.132812 C 336.96875 252.242188 337.691406 251.519531 338.582031 251.519531 C 339.472656 251.519531 340.195312 252.242188 340.195312 253.132812 L 340.195312 287.160156 C 340.195312 290.195312 342.667969 292.691406 345.703125 292.726562 C 347.199219 292.738281 348.613281 292.171875 349.675781 291.117188 C 350.742188 290.0625 351.328125 288.65625 351.328125 287.160156 L 351.328125 249.667969 C 351.328125 248.242188 348.785156 246.136719 341.644531 244.511719 C 335.414062 243.089844 326.992188 242.308594 317.941406 242.308594 C 308.890625 242.308594 300.472656 243.089844 294.238281 244.511719 C 287.097656 246.136719 284.554688 248.242188 284.554688 249.667969 L 284.554688 286.289062 C 284.554688 287.78125 285.136719 289.179688 286.191406 290.230469 C 287.242188 291.277344 288.636719 291.855469 290.121094 291.855469 C 290.128906 291.855469 290.136719 291.855469 290.140625 291.855469 C 293.199219 291.84375 295.6875 289.347656 295.6875 286.289062 L 295.6875 251.335938 C 295.6875 250.445312 296.410156 249.722656 297.300781 249.722656 C 298.191406 249.722656 298.914062 250.445312 298.914062 251.335938 L 298.914062 286.289062 C 298.914062 291.117188 294.984375 295.0625 290.15625 295.082031 C 290.144531 295.082031 290.132812 295.082031 290.121094 295.082031 C 287.777344 295.082031 285.574219 294.171875 283.914062 292.519531 C 282.246094 290.855469 281.328125 288.644531 281.328125 286.289062 L 281.328125 249.667969 C 281.328125 246.003906 285.429688 243.207031 293.519531 241.363281 C 299.980469 239.890625 308.65625 239.078125 317.941406 239.078125 C 327.226562 239.078125 335.902344 239.890625 342.363281 241.363281 C 350.453125 243.207031 354.554688 246.003906 354.554688 249.667969 L 354.554688 287.160156 C 354.554688 289.527344 353.628906 291.746094 351.945312 293.410156 C 350.289062 295.054688 348.09375 295.953125 345.765625 295.953125 Z M 345.765625 295.953125 "/></g><path style=" stroke:none;fill-rule:nonzero;fill:#44235f;fill-opacity:1;" d="M 318.761719 317.589844 C 317.871094 317.589844 317.148438 316.867188 317.148438 315.976562 L 317.148438 305.1875 C 317.148438 304.296875 317.871094 303.574219 318.761719 303.574219 C 319.652344 303.574219 320.375 304.296875 320.375 305.1875 L 320.375 315.976562 C 320.375 316.867188 319.652344 317.589844 318.761719 317.589844 Z M 318.761719 317.589844 "/><path style=" stroke:none;fill-rule:nonzero;fill:#ff9e7d;fill-opacity:1;" d="M 297.34375 280.019531 L 297.363281 251.300781 L 297.300781 251.335938 L 297.398438 251.300781 L 297.378906 258.046875 L 297.222656 258.046875 C 289.789062 253.484375 283.234375 258.046875 283.234375 258.046875 L 282.941406 258.046875 L 282.941406 249.667969 C 282.941406 237.703125 292.640625 228 304.605469 228 L 331.277344 228 C 343.242188 228 352.941406 237.703125 352.941406 249.667969 L 352.941406 258.046875 L 352.53125 258.046875 C 345.097656 253.484375 338.542969 258.046875 338.542969 258.046875 L 338.679688 251.375 L 338.582031 253.132812 L 338.582031 258.046875 L 338.734375 280.058594 Z M 297.34375 280.019531 "/><g clip-rule="nonzero" clip-path="url(#59780f028d)"><path style=" stroke:none;fill-rule:nonzero;fill:#44235f;fill-opacity:1;" d="M 338.734375 281.671875 C 337.847656 281.671875 337.125 280.957031 337.121094 280.070312 L 336.972656 258.417969 C 336.941406 258.289062 336.925781 258.152344 336.929688 258.015625 L 336.96875 256.082031 L 336.96875 253.132812 C 336.96875 253.101562 336.96875 253.074219 336.972656 253.042969 L 337.066406 251.285156 C 337.117188 250.40625 337.859375 249.730469 338.738281 249.761719 C 339.621094 249.792969 340.3125 250.527344 340.292969 251.40625 L 340.210938 255.421875 C 340.847656 255.179688 341.582031 254.941406 342.402344 254.761719 C 344.609375 254.269531 347.8125 254.089844 351.328125 255.605469 L 351.328125 249.667969 C 351.328125 238.609375 342.332031 229.613281 331.277344 229.613281 L 304.605469 229.613281 C 293.550781 229.613281 284.554688 238.609375 284.554688 249.667969 L 284.554688 255.558594 C 285.261719 255.269531 286.121094 254.976562 287.089844 254.761719 C 289.242188 254.28125 292.339844 254.101562 295.746094 255.492188 L 295.75 251.78125 C 295.550781 251.085938 295.835938 250.328125 296.480469 249.949219 L 296.539062 249.910156 C 296.800781 249.757812 297.09375 249.679688 297.378906 249.6875 C 297.707031 249.683594 298.035156 249.78125 298.3125 249.972656 C 298.75 250.273438 299.011719 250.773438 299.011719 251.304688 L 298.992188 258.054688 C 298.992188 258.140625 298.984375 258.222656 298.972656 258.304688 L 298.957031 280.019531 C 298.957031 280.910156 298.234375 281.632812 297.34375 281.632812 C 296.453125 281.632812 295.730469 280.910156 295.730469 280.019531 L 295.746094 259.058594 C 289.609375 255.734375 284.375 259.222656 284.148438 259.378906 C 283.878906 259.566406 283.5625 259.664062 283.234375 259.664062 L 282.941406 259.664062 C 282.050781 259.664062 281.328125 258.941406 281.328125 258.050781 L 281.328125 249.667969 C 281.328125 236.832031 291.769531 226.386719 304.605469 226.386719 L 331.277344 226.386719 C 344.113281 226.386719 354.554688 236.832031 354.554688 249.667969 L 354.554688 258.050781 C 354.554688 258.941406 353.832031 259.664062 352.941406 259.664062 L 352.53125 259.664062 C 352.234375 259.664062 351.941406 259.578125 351.6875 259.425781 C 346.5625 256.277344 341.957031 258.035156 340.203125 258.945312 L 340.347656 280.046875 C 340.351562 280.9375 339.636719 281.664062 338.746094 281.671875 C 338.742188 281.671875 338.738281 281.671875 338.734375 281.671875 Z M 338.734375 281.671875 "/></g><path style=" stroke:none;fill-rule:nonzero;fill:#ffffff;fill-opacity:1;" d="M 330.257812 189.652344 C 330.632812 190.027344 330.984375 190.417969 331.320312 190.828125 C 331.65625 191.234375 331.972656 191.660156 332.265625 192.101562 C 332.558594 192.539062 332.832031 192.992188 333.082031 193.460938 C 333.332031 193.925781 333.554688 194.40625 333.757812 194.894531 C 333.960938 195.382812 334.140625 195.878906 334.292969 196.386719 C 334.445312 196.890625 334.574219 197.40625 334.679688 197.921875 C 334.78125 198.441406 334.859375 198.964844 334.910156 199.492188 C 334.960938 200.019531 334.988281 200.546875 334.988281 201.074219 C 334.988281 201.605469 334.960938 202.132812 334.910156 202.660156 C 334.859375 203.1875 334.78125 203.707031 334.679688 204.226562 C 334.574219 204.746094 334.445312 205.257812 334.292969 205.765625 C 334.140625 206.273438 333.960938 206.769531 333.757812 207.257812 C 333.554688 207.746094 333.332031 208.226562 333.082031 208.691406 C 332.832031 209.15625 332.558594 209.609375 332.265625 210.050781 C 331.972656 210.492188 331.65625 210.914062 331.320312 211.324219 C 330.984375 211.734375 330.632812 212.125 330.257812 212.5 C 329.882812 212.875 329.492188 213.226562 329.082031 213.5625 C 328.671875 213.898438 328.25 214.214844 327.808594 214.507812 C 327.371094 214.800781 326.917969 215.074219 326.449219 215.324219 C 325.984375 215.574219 325.503906 215.800781 325.015625 216 C 324.527344 216.203125 324.03125 216.382812 323.523438 216.535156 C 323.019531 216.6875 322.503906 216.816406 321.984375 216.921875 C 321.46875 217.023438 320.945312 217.101562 320.417969 217.152344 C 319.890625 217.207031 319.363281 217.230469 318.835938 217.230469 C 318.304688 217.230469 317.777344 217.207031 317.25 217.152344 C 316.726562 217.101562 316.203125 217.023438 315.683594 216.921875 C 315.164062 216.816406 314.652344 216.691406 314.144531 216.535156 C 313.640625 216.382812 313.140625 216.203125 312.652344 216 C 312.164062 215.800781 311.6875 215.574219 311.21875 215.324219 C 310.753906 215.074219 310.300781 214.804688 309.859375 214.507812 C 309.421875 214.214844 308.996094 213.898438 308.585938 213.566406 C 308.175781 213.230469 307.785156 212.875 307.410156 212.5 C 307.039062 212.125 306.683594 211.734375 306.347656 211.324219 C 306.011719 210.917969 305.695312 210.492188 305.402344 210.050781 C 305.109375 209.613281 304.835938 209.160156 304.589844 208.691406 C 304.339844 208.226562 304.113281 207.746094 303.910156 207.257812 C 303.707031 206.769531 303.53125 206.273438 303.375 205.765625 C 303.222656 205.257812 303.09375 204.746094 302.992188 204.226562 C 302.886719 203.710938 302.808594 203.1875 302.757812 202.660156 C 302.707031 202.132812 302.679688 201.605469 302.679688 201.078125 C 302.679688 200.546875 302.707031 200.019531 302.757812 199.492188 C 302.808594 198.964844 302.886719 198.441406 302.992188 197.925781 C 303.09375 197.40625 303.222656 196.894531 303.375 196.386719 C 303.53125 195.878906 303.707031 195.382812 303.910156 194.894531 C 304.113281 194.40625 304.339844 193.925781 304.585938 193.460938 C 304.835938 192.992188 305.109375 192.539062 305.402344 192.101562 C 305.695312 191.660156 306.011719 191.234375 306.347656 190.828125 C 306.683594 190.417969 307.039062 190.027344 307.410156 189.652344 C 307.785156 189.277344 308.175781 188.921875 308.585938 188.585938 C 308.996094 188.253906 309.417969 187.9375 309.859375 187.644531 C 310.300781 187.347656 310.753906 187.078125 311.21875 186.828125 C 311.6875 186.578125 312.164062 186.351562 312.652344 186.148438 C 313.140625 185.949219 313.636719 185.769531 314.144531 185.617188 C 314.652344 185.460938 315.164062 185.335938 315.683594 185.230469 C 316.203125 185.128906 316.722656 185.050781 317.25 185 C 317.777344 184.945312 318.304688 184.921875 318.835938 184.921875 C 319.363281 184.921875 319.890625 184.945312 320.417969 185 C 320.945312 185.050781 321.464844 185.128906 321.984375 185.230469 C 322.503906 185.332031 323.015625 185.460938 323.523438 185.617188 C 324.03125 185.769531 324.527344 185.949219 325.015625 186.148438 C 325.503906 186.351562 325.984375 186.578125 326.449219 186.828125 C 326.914062 187.078125 327.367188 187.347656 327.808594 187.644531 C 328.25 187.9375 328.671875 188.25 329.082031 188.585938 C 329.492188 188.921875 329.882812 189.277344 330.257812 189.652344 Z M 330.257812 189.652344 "/><path style=" stroke:none;fill-rule:nonzero;fill:#44235f;fill-opacity:1;" d="M 318.839844 218.84375 C 309.042969 218.84375 301.070312 210.871094 301.070312 201.074219 C 301.070312 191.277344 309.042969 183.304688 318.839844 183.304688 C 328.636719 183.304688 336.605469 191.277344 336.605469 201.074219 C 336.605469 210.871094 328.636719 218.84375 318.839844 218.84375 Z M 318.839844 186.53125 C 310.820312 186.53125 304.296875 193.058594 304.296875 201.074219 C 304.296875 209.09375 310.820312 215.617188 318.839844 215.617188 C 326.855469 215.617188 333.378906 209.09375 333.378906 201.074219 C 333.378906 193.054688 326.855469 186.53125 318.839844 186.53125 Z M 318.839844 186.53125 "/><path style=" stroke:none;fill-rule:nonzero;fill:#44235f;fill-opacity:1;" d="M 336.789062 281.671875 L 297.300781 281.671875 C 296.410156 281.671875 295.6875 280.949219 295.6875 280.058594 C 295.6875 279.167969 296.410156 278.445312 297.300781 278.445312 L 336.789062 278.445312 C 337.679688 278.445312 338.402344 279.167969 338.402344 280.058594 C 338.402344 280.949219 337.679688 281.671875 336.789062 281.671875 Z M 336.789062 281.671875 "/><path style=" stroke:none;fill-rule:nonzero;fill:#44235f;fill-opacity:1;" d="M 318.761719 317.589844 C 317.871094 317.589844 317.148438 316.867188 317.148438 315.976562 L 317.148438 305.1875 C 317.148438 304.296875 317.871094 303.574219 318.761719 303.574219 C 319.652344 303.574219 320.375 304.296875 320.375 305.1875 L 320.375 315.976562 C 320.375 316.867188 319.652344 317.589844 318.761719 317.589844 Z M 318.761719 317.589844 "/><path style=" stroke:none;fill-rule:nonzero;fill:#50e4ee;fill-opacity:1;" d="M 219.789062 247.621094 C 219.789062 247.621094 222.371094 251.023438 227.570312 255.15625 L 227.730469 254.957031 C 227.730469 254.957031 227.824219 245.789062 238.195312 242.808594 L 238.339844 242.660156 C 232.90625 237.433594 230.640625 232.777344 230.640625 232.777344 Z M 219.789062 247.621094 "/><path style=" stroke:none;fill-rule:nonzero;fill:#44235f;fill-opacity:1;" d="M 227.570312 256.769531 C 227.21875 256.769531 226.863281 256.65625 226.566406 256.421875 C 221.269531 252.207031 218.613281 248.746094 218.503906 248.597656 C 217.964844 247.890625 218.101562 246.878906 218.8125 246.335938 C 219.519531 245.796875 220.53125 245.9375 221.070312 246.644531 C 221.09375 246.671875 222.933594 249.058594 226.542969 252.203125 C 226.765625 251.339844 227.109375 250.335938 227.628906 249.28125 C 228.792969 246.933594 231.070312 243.933594 235.476562 242.058594 C 231.148438 237.453125 229.277344 233.660156 229.191406 233.484375 C 228.800781 232.679688 229.136719 231.714844 229.9375 231.324219 C 230.738281 230.9375 231.703125 231.269531 232.09375 232.070312 C 232.113281 232.113281 234.324219 236.558594 239.457031 241.496094 C 240.101562 242.113281 240.121094 243.136719 239.503906 243.777344 L 239.359375 243.925781 C 239.164062 244.132812 238.914062 244.28125 238.640625 244.359375 C 229.609375 246.953125 229.351562 254.652344 229.34375 254.980469 C 229.339844 255.339844 229.21875 255.683594 228.992188 255.964844 L 228.832031 256.164062 C 228.511719 256.5625 228.042969 256.769531 227.570312 256.769531 Z M 227.570312 256.769531 "/><path style=" stroke:none;fill-rule:nonzero;fill:#ff9e7d;fill-opacity:1;" d="M 269.40625 190.3125 L 266.09375 197.027344 C 265.78125 197.65625 265.179688 198.09375 264.484375 198.195312 L 257.074219 199.273438 C 255.324219 199.527344 254.625 201.679688 255.890625 202.917969 L 261.253906 208.144531 C 261.757812 208.636719 261.988281 209.339844 261.867188 210.035156 L 260.601562 217.417969 C 260.300781 219.160156 262.132812 220.492188 263.699219 219.667969 L 270.328125 216.183594 C 270.949219 215.855469 271.695312 215.855469 272.316406 216.183594 L 278.945312 219.667969 C 280.511719 220.492188 282.34375 219.160156 282.042969 217.417969 L 280.777344 210.035156 C 280.660156 209.339844 280.886719 208.636719 281.390625 208.144531 L 286.753906 202.917969 C 288.023438 201.679688 287.324219 199.527344 285.570312 199.273438 L 278.160156 198.195312 C 277.464844 198.09375 276.863281 197.65625 276.550781 197.027344 L 273.238281 190.3125 C 272.453125 188.722656 270.191406 188.722656 269.40625 190.3125 Z M 269.40625 190.3125 "/><path style=" stroke:none;fill-rule:nonzero;fill:#44235f;fill-opacity:1;" d="M 262.703125 221.53125 C 261.929688 221.53125 261.160156 221.289062 260.5 220.8125 C 259.339844 219.964844 258.769531 218.558594 259.011719 217.144531 L 260.277344 209.761719 C 260.304688 209.59375 260.25 209.421875 260.128906 209.300781 L 254.765625 204.070312 C 253.734375 203.066406 253.371094 201.59375 253.816406 200.226562 C 254.261719 198.859375 255.417969 197.882812 256.839844 197.675781 L 264.253906 196.601562 C 264.421875 196.574219 264.570312 196.46875 264.644531 196.3125 L 267.960938 189.597656 C 268.597656 188.308594 269.886719 187.507812 271.324219 187.507812 C 272.761719 187.507812 274.046875 188.308594 274.683594 189.597656 L 278 196.3125 C 278.074219 196.46875 278.222656 196.574219 278.390625 196.601562 L 285.804688 197.675781 C 287.226562 197.882812 288.386719 198.859375 288.828125 200.226562 C 289.273438 201.59375 288.910156 203.066406 287.878906 204.070312 L 282.519531 209.300781 C 282.394531 209.421875 282.339844 209.59375 282.367188 209.765625 L 283.636719 217.144531 C 283.878906 218.5625 283.304688 219.96875 282.140625 220.8125 C 280.976562 221.65625 279.464844 221.765625 278.195312 221.097656 L 271.566406 217.613281 C 271.414062 217.53125 271.230469 217.53125 271.078125 217.613281 L 264.449219 221.097656 C 263.898438 221.386719 263.296875 221.53125 262.703125 221.53125 Z M 270.855469 191.027344 L 267.539062 197.742188 C 266.992188 198.847656 265.9375 199.617188 264.71875 199.792969 L 257.304688 200.871094 C 257.027344 200.910156 256.921875 201.109375 256.886719 201.226562 C 256.847656 201.339844 256.816406 201.5625 257.015625 201.761719 L 262.378906 206.988281 C 263.261719 207.851562 263.667969 209.089844 263.457031 210.308594 L 262.191406 217.691406 C 262.144531 217.96875 262.300781 218.128906 262.398438 218.199219 C 262.496094 218.273438 262.699219 218.371094 262.949219 218.242188 L 269.578125 214.753906 C 270.671875 214.179688 271.972656 214.179688 273.066406 214.753906 L 279.695312 218.242188 C 279.945312 218.371094 280.148438 218.273438 280.246094 218.199219 C 280.34375 218.128906 280.5 217.96875 280.453125 217.6875 L 279.1875 210.308594 C 278.980469 209.089844 279.382812 207.847656 280.265625 206.988281 L 285.628906 201.761719 C 285.832031 201.5625 285.796875 201.339844 285.761719 201.226562 C 285.722656 201.109375 285.617188 200.910156 285.339844 200.871094 L 277.929688 199.792969 C 276.710938 199.617188 275.652344 198.851562 275.105469 197.746094 L 271.789062 191.027344 C 271.664062 190.773438 271.445312 190.734375 271.324219 190.734375 C 271.203125 190.734375 270.980469 190.773438 270.855469 191.027344 Z M 270.855469 191.027344 "/><path style=" stroke:none;fill-rule:nonzero;fill:#ff9e7d;fill-opacity:1;" d="M 291.007812 152.109375 L 287.691406 158.824219 C 287.382812 159.457031 286.78125 159.894531 286.085938 159.996094 L 278.671875 161.070312 C 276.921875 161.324219 276.222656 163.476562 277.492188 164.714844 L 282.851562 169.941406 C 283.355469 170.433594 283.585938 171.140625 283.46875 171.832031 L 282.203125 179.214844 C 281.902344 180.960938 283.734375 182.289062 285.300781 181.464844 L 291.929688 177.980469 C 292.550781 177.652344 293.292969 177.652344 293.917969 177.980469 L 300.546875 181.464844 C 302.113281 182.289062 303.941406 180.960938 303.644531 179.214844 L 302.378906 171.832031 C 302.257812 171.140625 302.488281 170.433594 302.992188 169.941406 L 308.355469 164.714844 C 309.621094 163.476562 308.925781 161.324219 307.171875 161.070312 L 299.761719 159.996094 C 299.0625 159.894531 298.464844 159.457031 298.152344 158.824219 L 294.835938 152.109375 C 294.054688 150.523438 291.792969 150.523438 291.007812 152.109375 Z M 291.007812 152.109375 "/><path style=" stroke:none;fill-rule:nonzero;fill:#44235f;fill-opacity:1;" d="M 284.304688 183.328125 C 283.527344 183.328125 282.757812 183.085938 282.101562 182.609375 C 280.9375 181.761719 280.367188 180.359375 280.609375 178.941406 L 281.878906 171.558594 C 281.90625 171.390625 281.851562 171.21875 281.726562 171.097656 L 276.363281 165.871094 C 275.335938 164.863281 274.972656 163.390625 275.417969 162.023438 C 275.859375 160.660156 277.019531 159.679688 278.441406 159.472656 L 285.851562 158.398438 C 286.023438 158.371094 286.167969 158.265625 286.246094 158.113281 L 289.5625 151.394531 C 290.199219 150.105469 291.484375 149.304688 292.921875 149.304688 C 294.359375 149.304688 295.648438 150.105469 296.285156 151.394531 L 299.597656 158.113281 C 299.675781 158.265625 299.824219 158.371094 299.992188 158.398438 L 307.402344 159.472656 C 308.824219 159.679688 309.984375 160.660156 310.429688 162.027344 C 310.875 163.394531 310.511719 164.867188 309.480469 165.871094 L 304.117188 171.097656 C 303.996094 171.21875 303.9375 171.390625 303.96875 171.5625 L 305.234375 178.941406 C 305.476562 180.359375 304.90625 181.765625 303.742188 182.609375 C 302.578125 183.453125 301.066406 183.5625 299.796875 182.894531 L 293.164062 179.410156 C 293.015625 179.328125 292.832031 179.328125 292.679688 179.410156 L 286.050781 182.894531 C 285.496094 183.183594 284.898438 183.328125 284.304688 183.328125 Z M 292.453125 152.824219 L 289.140625 159.539062 C 288.59375 160.648438 287.539062 161.414062 286.316406 161.589844 L 278.90625 162.667969 C 278.628906 162.707031 278.523438 162.90625 278.484375 163.023438 C 278.449219 163.136719 278.414062 163.363281 278.617188 163.558594 L 283.980469 168.789062 C 284.863281 169.648438 285.265625 170.886719 285.058594 172.105469 L 283.792969 179.488281 C 283.742188 179.765625 283.902344 179.925781 284 179.996094 C 284.097656 180.070312 284.300781 180.167969 284.550781 180.039062 L 291.179688 176.550781 C 292.269531 175.976562 293.574219 175.980469 294.667969 176.550781 L 301.296875 180.039062 C 301.546875 180.167969 301.746094 180.070312 301.84375 180 C 301.945312 179.925781 302.101562 179.765625 302.054688 179.484375 L 300.789062 172.105469 C 300.578125 170.886719 300.984375 169.644531 301.867188 168.785156 L 307.226562 163.558594 C 307.429688 163.359375 307.398438 163.136719 307.359375 163.023438 C 307.324219 162.90625 307.21875 162.707031 306.9375 162.667969 L 299.527344 161.589844 C 298.308594 161.414062 297.253906 160.648438 296.707031 159.542969 L 293.390625 152.824219 C 293.265625 152.570312 293.042969 152.53125 292.921875 152.53125 C 292.800781 152.53125 292.578125 152.570312 292.453125 152.824219 Z M 292.453125 152.824219 "/></g></svg>