<svg xmlns="http://www.w3.org/2000/svg" xmlns:xlink="http://www.w3.org/1999/xlink" width="500" zoomAndPan="magnify" viewBox="0 0 375 374.999991" height="500" preserveAspectRatio="xMidYMid meet" version="1.2"><defs><clipPath id="a625dfb22f"><path d="M 11.496094 11.496094 L 360.996094 11.496094 L 360.996094 360.996094 L 11.496094 360.996094 Z M 11.496094 11.496094 "/></clipPath></defs><g id="412d4673d6"><g clip-rule="nonzero" clip-path="url(#a625dfb22f)"><path style=" stroke:none;fill-rule:nonzero;fill:#8c52ff;fill-opacity:1;" d="M 290.308594 120.644531 L 285.550781 125.402344 L 247.136719 86.988281 L 251.894531 82.234375 C 256.667969 77.460938 264.40625 77.460938 269.175781 82.234375 L 290.308594 103.363281 C 295.078125 108.132812 295.078125 115.871094 290.308594 120.644531 Z M 143.621094 267.332031 L 105.210938 228.917969 L 243.253906 90.875 L 281.667969 129.285156 Z M 79.949219 292.59375 L 99.871094 234.257812 L 138.285156 272.671875 Z M 186.269531 11.507812 C 89.753906 11.507812 11.507812 89.753906 11.507812 186.269531 C 11.507812 282.789062 89.753906 361.03125 186.269531 361.03125 C 282.789062 361.03125 361.03125 282.789062 361.03125 186.269531 C 361.03125 89.753906 282.789062 11.507812 186.269531 11.507812 "/></g></g></svg>