<svg xmlns="http://www.w3.org/2000/svg" xmlns:xlink="http://www.w3.org/1999/xlink" width="500" zoomAndPan="magnify" viewBox="0 0 375 374.999991" height="500" preserveAspectRatio="xMidYMid meet" version="1.2"><defs><clipPath id="d87ddf7d6f"><path d="M 6.5 12.996094 L 368.234375 12.996094 L 368.234375 374.734375 L 6.5 374.734375 Z M 6.5 12.996094 "/></clipPath><clipPath id="01e4b5e258"><path d="M 72.90625 43.308594 L 302.800781 43.308594 L 302.800781 325.238281 L 72.90625 325.238281 Z M 72.90625 43.308594 "/></clipPath><clipPath id="cc1cafa36b"><path d="M 72.910156 277.160156 C 72.910156 277.082031 73.144531 275.992188 73.300781 275.445312 C 73.378906 274.902344 73.609375 273.734375 73.609375 273.734375 C 73.609375 273.734375 74.15625 272.722656 74.390625 272.179688 C 74.621094 271.714844 75.089844 270.625 75.089844 270.625 C 75.167969 270.625 75.867188 269.769531 76.179688 269.300781 C 76.566406 268.835938 77.265625 267.980469 77.265625 267.980469 C 77.34375 267.980469 78.199219 267.277344 78.667969 266.96875 C 79.132812 266.578125 80.066406 265.957031 80.066406 265.878906 C 80.066406 265.878906 81.15625 265.722656 81.390625 265.335938 C 81.703125 264.945312 81.3125 264.324219 81.46875 263.3125 C 82.089844 260.355469 84.65625 251.097656 87.378906 246.429688 C 89.792969 242.308594 93.683594 240.207031 96.480469 236.316406 C 99.828125 231.648438 102.316406 224.570312 105.660156 220.058594 C 108.460938 216.246094 111.496094 213.601562 114.765625 210.644531 C 118.03125 207.691406 121.609375 204.734375 125.1875 202.167969 C 128.6875 199.675781 132.421875 198.277344 136.15625 195.554688 C 140.359375 192.519531 144.636719 187.851562 149.070312 184.507812 C 153.347656 181.238281 160.429688 178.363281 162.371094 175.640625 C 163.304688 174.316406 163.304688 172.761719 163.382812 171.828125 C 163.460938 171.28125 163.617188 170.660156 163.382812 170.582031 C 162.605469 170.269531 157.859375 178.515625 155.058594 178.363281 C 151.636719 178.128906 146.347656 166.460938 144.636719 165.679688 C 144.167969 165.527344 144.015625 165.757812 143.625 165.757812 C 143.15625 165.757812 142.148438 165.835938 142.148438 165.835938 C 142.070312 165.835938 141.136719 165.605469 140.589844 165.527344 C 140.125 165.449219 139.113281 165.292969 139.113281 165.292969 C 139.113281 165.292969 138.179688 164.824219 137.710938 164.671875 C 137.246094 164.4375 136.3125 163.96875 136.3125 163.96875 C 136.3125 163.96875 135.535156 163.347656 135.144531 163.035156 C 134.679688 162.726562 133.902344 162.101562 133.902344 162.101562 C 133.902344 162.101562 133.277344 161.324219 132.96875 160.859375 C 132.65625 160.46875 132.035156 159.691406 132.035156 159.691406 C 132.035156 159.691406 131.644531 158.757812 131.410156 158.292969 C 131.179688 157.824219 130.789062 156.890625 130.789062 156.890625 C 130.789062 156.890625 130.632812 155.878906 130.476562 155.335938 C 130.398438 154.867188 130.246094 153.855469 130.246094 153.855469 C 130.246094 153.855469 130.324219 152.847656 130.324219 152.300781 C 130.398438 151.835938 130.398438 150.824219 130.398438 150.824219 C 130.476562 150.824219 130.710938 149.8125 130.867188 149.34375 C 131.023438 148.878906 131.332031 147.945312 131.332031 147.867188 C 131.332031 147.867188 129.621094 135.652344 128.300781 130.675781 C 127.289062 126.628906 125.421875 122.507812 124.800781 120.09375 C 124.488281 118.851562 124.332031 118.148438 124.253906 117.140625 C 124.175781 116.207031 124.253906 115.039062 124.410156 114.183594 C 124.566406 113.484375 124.953125 113.015625 124.953125 112.316406 C 125.03125 111.460938 124.722656 110.136719 124.488281 109.4375 C 124.410156 108.894531 124.175781 108.894531 124.019531 108.191406 C 123.242188 105.78125 120.753906 90.144531 120.753906 90.066406 C 120.753906 90.066406 120.753906 89.054688 120.675781 88.511719 C 120.675781 88.042969 120.597656 87.03125 120.597656 87.03125 C 120.597656 87.03125 120.832031 86.253906 120.753906 86.175781 C 120.753906 86.097656 120.675781 86.097656 120.675781 86.097656 C 120.675781 86.023438 119.898438 85.320312 119.507812 84.933594 C 119.199219 84.621094 118.421875 83.84375 118.421875 83.84375 C 118.421875 83.84375 117.875 82.988281 117.5625 82.519531 C 117.332031 82.054688 116.785156 81.199219 116.785156 81.199219 C 116.785156 81.121094 116.476562 80.1875 116.320312 79.644531 C 116.164062 79.175781 115.851562 78.164062 115.851562 78.164062 C 115.773438 78.164062 115.773438 77.074219 115.695312 76.609375 C 115.695312 76.0625 115.621094 75.054688 115.621094 74.976562 C 115.621094 74.976562 115.773438 73.964844 115.851562 73.496094 C 116.007812 72.953125 116.164062 71.941406 116.164062 71.941406 C 116.164062 71.863281 116.554688 70.929688 116.785156 70.464844 C 117.019531 69.996094 117.410156 69.0625 117.410156 69.0625 C 117.410156 69.0625 117.410156 69.0625 117.410156 68.984375 C 117.410156 68.984375 118.109375 68.207031 118.421875 67.742188 C 118.730469 67.351562 119.351562 66.574219 119.351562 66.496094 C 119.351562 66.496094 120.210938 65.875 120.597656 65.5625 C 120.988281 65.25 121.84375 64.550781 121.84375 64.550781 C 121.84375 64.550781 122.777344 64.160156 123.242188 63.929688 C 123.710938 63.695312 124.019531 63.539062 124.722656 63.226562 C 126.199219 62.605469 129.078125 61.363281 131.878906 60.503906 C 135.535156 59.261719 140.046875 57.9375 144.949219 57.003906 C 150.859375 55.839844 164.785156 54.28125 164.863281 54.28125 C 164.863281 54.203125 165.796875 53.738281 166.261719 53.425781 C 166.730469 53.191406 167.585938 52.648438 167.664062 52.648438 C 167.664062 52.648438 168.675781 52.335938 169.21875 52.183594 C 169.683594 52.027344 170.695312 51.714844 170.695312 51.714844 C 170.773438 51.714844 171.785156 51.636719 172.332031 51.636719 C 172.875 51.636719 173.964844 51.558594 173.964844 51.558594 C 173.964844 51.558594 174.976562 51.792969 175.519531 51.871094 C 176.066406 52.027344 177.074219 52.183594 177.074219 52.183594 C 177.152344 52.183594 178.085938 52.648438 178.554688 52.882812 C 179.019531 53.117188 180.03125 53.582031 180.03125 53.582031 C 180.03125 53.582031 180.886719 54.28125 181.277344 54.59375 C 181.664062 54.90625 182.519531 55.605469 182.519531 55.605469 C 182.519531 55.605469 183.144531 56.460938 183.53125 56.847656 C 183.84375 57.316406 184.464844 58.171875 184.464844 58.171875 C 184.464844 58.171875 184.464844 58.40625 184.542969 58.40625 C 184.777344 58.484375 185.554688 57.707031 185.789062 57.316406 C 186.023438 57.003906 186.101562 56.695312 186.253906 56.304688 C 186.410156 55.839844 186.722656 55.371094 186.957031 54.828125 C 187.1875 54.359375 187.65625 53.425781 187.65625 53.425781 C 187.65625 53.425781 188.355469 52.648438 188.667969 52.183594 C 188.976562 51.792969 189.679688 51.015625 189.679688 51.015625 C 189.679688 51.015625 190.535156 50.394531 190.921875 50.082031 C 191.390625 49.769531 192.246094 49.148438 192.246094 49.148438 C 192.246094 49.148438 193.179688 48.757812 193.722656 48.527344 C 194.191406 48.292969 195.125 47.902344 195.203125 47.902344 C 195.203125 47.902344 196.210938 47.746094 196.757812 47.667969 C 197.222656 47.59375 198.3125 47.4375 198.3125 47.4375 C 198.3125 47.4375 199.324219 47.515625 199.867188 47.59375 C 200.414062 47.667969 201.425781 47.746094 201.425781 47.746094 C 201.503906 47.746094 201.503906 47.746094 201.503906 47.746094 C 201.503906 47.746094 201.8125 47.980469 202.28125 48.058594 C 204.148438 48.136719 212.550781 42.769531 217.21875 44.089844 C 222.894531 45.726562 230.675781 55.683594 232.851562 60.738281 C 234.253906 63.851562 233.242188 69.375 233.476562 69.53125 C 233.554688 69.53125 233.554688 69.53125 233.554688 69.53125 C 233.554688 69.53125 234.566406 69.375 235.109375 69.296875 C 235.652344 69.21875 236.664062 69.140625 236.664062 69.140625 C 236.664062 69.140625 237.675781 69.21875 238.222656 69.296875 C 238.765625 69.296875 239.777344 69.453125 239.777344 69.453125 C 239.777344 69.453125 240.710938 69.761719 241.253906 69.996094 C 241.722656 70.152344 242.65625 70.539062 242.734375 70.539062 C 242.734375 70.539062 243.589844 71.085938 243.976562 71.398438 C 244.445312 71.707031 245.300781 72.253906 245.300781 72.253906 C 245.300781 72.253906 245.535156 72.71875 245.6875 72.71875 C 246 72.796875 246.621094 72.253906 247.089844 72.019531 C 247.476562 71.785156 248.410156 71.320312 248.410156 71.320312 C 248.488281 71.320312 249.421875 71.085938 249.96875 70.929688 C 250.433594 70.851562 251.445312 70.617188 251.445312 70.617188 C 251.445312 70.617188 252.457031 70.617188 253 70.617188 C 253.546875 70.617188 254.558594 70.617188 254.558594 70.617188 C 254.558594 70.617188 255.570312 70.851562 256.035156 71.007812 C 256.578125 71.164062 257.511719 71.398438 257.589844 71.398438 C 257.589844 71.398438 258.445312 71.863281 258.914062 72.097656 C 259.378906 72.332031 260.3125 72.875 260.3125 72.875 C 260.3125 72.875 261.09375 73.574219 261.480469 73.886719 C 261.871094 74.195312 262.570312 74.898438 262.570312 74.898438 C 262.648438 74.976562 263.191406 75.753906 263.503906 76.21875 C 263.738281 76.609375 264.359375 77.464844 264.359375 77.464844 C 264.359375 77.542969 264.671875 78.476562 264.902344 78.941406 C 265.058594 79.410156 265.449219 80.34375 265.449219 80.421875 C 265.449219 80.421875 265.527344 81.433594 265.605469 81.898438 C 265.683594 82.441406 265.757812 83.453125 265.757812 83.453125 C 265.757812 83.53125 265.683594 84.464844 265.605469 85.011719 C 265.527344 85.554688 265.371094 86.566406 265.371094 86.566406 C 265.371094 86.566406 264.980469 87.5 264.824219 87.964844 C 264.671875 88.511719 264.28125 89.445312 264.28125 89.445312 C 264.203125 89.523438 262.335938 101.113281 261.167969 106.949219 C 260.003906 112.78125 258.371094 119.785156 257.28125 124.453125 C 256.65625 127.484375 255.648438 132.074219 255.648438 132.074219 C 255.570312 132.074219 255.257812 133.085938 255.023438 133.554688 C 254.867188 134.019531 254.480469 135.03125 254.480469 135.03125 C 254.480469 135.03125 253.855469 135.886719 253.546875 136.277344 C 253.234375 136.742188 252.691406 137.597656 252.613281 137.597656 C 252.613281 137.597656 251.835938 138.296875 251.445312 138.609375 C 251.058594 139 250.277344 139.621094 250.277344 139.621094 C 250.277344 139.699219 249.5 139.777344 249.113281 140.242188 C 247.789062 141.875 246.46875 151.601562 245.609375 155.179688 C 245.066406 157.203125 244.753906 158.757812 244.445312 159.847656 C 244.210938 160.46875 244.054688 160.859375 243.898438 161.324219 C 243.746094 161.792969 243.433594 162.726562 243.433594 162.804688 C 243.433594 162.804688 242.886719 163.660156 242.578125 164.046875 C 242.265625 164.515625 241.722656 165.371094 241.722656 165.371094 C 241.722656 165.371094 241.019531 166.070312 240.632812 166.460938 C 240.242188 166.847656 239.542969 167.546875 239.464844 167.546875 C 239.464844 167.546875 238.609375 168.015625 238.144531 168.328125 C 237.675781 168.558594 236.820312 169.027344 236.820312 169.027344 C 236.742188 169.027344 235.808594 169.335938 235.265625 169.492188 C 234.796875 169.648438 233.863281 169.882812 233.785156 169.882812 C 233.785156 169.882812 232.777344 169.960938 232.230469 169.960938 C 231.765625 169.960938 230.753906 170.039062 230.675781 170.039062 C 230.675781 170.039062 229.664062 169.804688 229.195312 169.648438 C 228.652344 169.570312 227.71875 169.335938 227.640625 169.335938 C 227.640625 169.335938 226.785156 168.949219 226.320312 168.714844 C 225.851562 168.480469 224.917969 168.015625 224.917969 168.015625 C 224.839844 168.015625 224.0625 167.316406 223.671875 167.003906 C 223.363281 166.769531 223.050781 166.148438 222.738281 166.226562 C 222.351562 166.304688 222.273438 167.316406 221.652344 168.015625 C 220.328125 169.726562 215.117188 173.925781 214.183594 175.40625 C 213.871094 175.949219 213.5625 176.496094 213.792969 176.726562 C 213.949219 176.960938 214.804688 176.726562 215.351562 176.726562 C 215.816406 176.726562 216.90625 176.804688 216.90625 176.804688 C 216.90625 176.804688 217.917969 177.039062 218.382812 177.195312 C 218.929688 177.351562 219.941406 177.582031 219.941406 177.582031 C 219.941406 177.660156 220.875 178.128906 221.339844 178.363281 C 221.804688 178.671875 222.664062 179.140625 222.738281 179.140625 C 222.738281 179.140625 223.519531 179.839844 223.90625 180.230469 C 224.296875 180.617188 224.996094 181.316406 224.996094 181.316406 C 225.074219 181.316406 225.617188 182.171875 225.929688 182.640625 C 226.164062 182.953125 226.242188 183.574219 226.550781 183.652344 C 226.863281 183.808594 227.328125 183.496094 227.71875 183.417969 C 228.1875 183.261719 229.195312 183.03125 229.195312 183.03125 C 229.195312 183.03125 230.207031 183.105469 230.675781 183.105469 C 231.21875 183.105469 232.230469 183.105469 232.230469 183.105469 C 232.230469 183.105469 233.164062 183.339844 233.707031 183.496094 C 234.175781 183.652344 235.109375 183.886719 235.1875 183.886719 C 235.1875 183.886719 236.042969 184.351562 236.507812 184.585938 C 236.898438 184.820312 237.753906 185.363281 237.832031 185.363281 C 237.832031 185.363281 238.53125 185.984375 238.921875 186.375 C 239.308594 186.6875 240.011719 187.386719 240.011719 187.386719 C 240.089844 187.386719 240.632812 188.242188 240.867188 188.628906 C 241.175781 189.097656 241.722656 189.875 241.722656 189.875 C 241.722656 189.953125 242.03125 190.886719 242.265625 191.351562 C 242.421875 191.820312 242.734375 192.753906 242.734375 192.753906 C 242.734375 192.753906 242.886719 194 242.886719 194.230469 C 242.886719 194.386719 242.886719 194.464844 242.964844 194.542969 C 243.042969 194.621094 243.667969 194.386719 244.054688 194.386719 C 244.445312 194.308594 245.457031 194.152344 245.457031 194.152344 C 245.457031 194.152344 246.46875 194.230469 246.933594 194.308594 C 247.402344 194.386719 248.410156 194.464844 248.410156 194.464844 C 248.410156 194.464844 249.34375 194.855469 249.734375 195.007812 C 250.199219 195.164062 251.132812 195.476562 251.132812 195.476562 C 251.132812 195.476562 251.992188 196.019531 252.378906 196.332031 C 252.769531 196.566406 253.546875 197.109375 253.625 197.109375 C 253.625 197.109375 254.246094 197.886719 254.558594 198.199219 C 254.945312 198.589844 255.570312 199.289062 255.570312 199.289062 C 255.570312 199.289062 256.035156 200.144531 256.269531 200.609375 C 256.503906 201 256.96875 201.855469 256.96875 201.855469 C 256.96875 201.933594 257.203125 202.867188 257.359375 203.332031 C 257.4375 203.800781 257.667969 204.734375 257.667969 204.734375 C 257.667969 204.734375 257.746094 205.746094 257.746094 206.210938 C 257.746094 206.679688 257.667969 207.378906 257.746094 207.457031 C 257.746094 207.535156 257.824219 207.457031 257.824219 207.457031 C 257.902344 207.457031 258.835938 207.457031 259.304688 207.457031 C 259.769531 207.535156 260.703125 207.535156 260.703125 207.535156 C 260.703125 207.535156 261.636719 207.765625 262.101562 207.84375 C 262.570312 208 263.425781 208.234375 263.425781 208.234375 C 263.503906 208.234375 263.503906 208.234375 263.503906 208.234375 C 263.503906 208.234375 264.28125 208.699219 264.75 208.933594 C 265.136719 209.167969 265.914062 209.632812 265.992188 209.632812 C 265.992188 209.632812 266.691406 210.257812 267.003906 210.566406 C 267.394531 210.878906 268.09375 211.5 268.09375 211.578125 C 268.09375 211.578125 268.636719 212.355469 268.871094 212.746094 C 269.105469 213.136719 269.648438 213.914062 269.648438 213.914062 C 269.648438 213.914062 269.960938 214.847656 270.117188 215.234375 C 270.273438 215.703125 270.582031 216.636719 270.582031 216.636719 C 270.660156 216.636719 270.738281 217.726562 270.738281 218.035156 C 270.816406 218.191406 270.738281 218.347656 270.816406 218.347656 C 270.894531 218.425781 271.128906 218.035156 271.128906 218.035156 C 271.128906 218.035156 271.984375 217.570312 272.449219 217.335938 C 272.839844 217.101562 273.695312 216.636719 273.695312 216.636719 C 273.773438 216.558594 274.628906 216.324219 275.171875 216.167969 C 275.640625 216.089844 276.574219 215.78125 276.574219 215.78125 C 276.574219 215.78125 277.507812 215.78125 278.050781 215.78125 C 278.519531 215.703125 279.449219 215.703125 279.527344 215.703125 C 279.527344 215.703125 280.460938 215.9375 280.929688 216.011719 C 281.394531 216.089844 282.40625 216.324219 282.40625 216.324219 C 282.40625 216.324219 283.261719 216.714844 283.730469 216.945312 C 284.195312 217.179688 285.050781 217.570312 285.050781 217.570312 C 285.050781 217.648438 285.832031 218.269531 286.21875 218.582031 C 286.53125 218.890625 287.308594 219.4375 287.308594 219.515625 C 287.308594 219.515625 287.929688 220.292969 288.164062 220.679688 C 288.476562 221.070312 289.097656 221.847656 289.097656 221.847656 C 289.097656 221.847656 289.488281 222.78125 289.640625 223.25 C 289.796875 223.636719 290.1875 224.570312 290.1875 224.570312 C 290.1875 224.570312 290.34375 225.660156 290.417969 226.046875 C 290.496094 226.203125 290.417969 226.359375 290.496094 226.515625 C 290.574219 226.671875 290.886719 226.75 291.121094 226.90625 C 291.507812 227.136719 292.363281 227.683594 292.363281 227.683594 C 292.363281 227.683594 292.988281 228.382812 293.296875 228.773438 C 293.6875 229.082031 294.308594 229.78125 294.308594 229.78125 C 294.308594 229.78125 294.777344 230.636719 295.007812 231.027344 C 295.242188 231.496094 295.710938 232.273438 295.710938 232.351562 C 295.710938 232.351562 295.941406 233.285156 296.097656 233.671875 C 296.253906 234.140625 296.488281 235.074219 296.488281 235.074219 C 296.488281 235.152344 296.488281 236.085938 296.488281 236.550781 C 296.488281 237.015625 296.566406 237.949219 296.566406 237.949219 C 296.566406 238.027344 296.332031 238.882812 296.253906 239.351562 C 296.097656 239.894531 295.941406 240.75 295.941406 240.828125 C 295.941406 240.828125 295.476562 241.683594 295.242188 242.074219 C 295.085938 242.539062 294.621094 243.398438 294.621094 243.398438 C 294.621094 243.398438 294 244.097656 293.6875 244.484375 C 293.375 244.875 292.832031 245.574219 292.753906 245.574219 C 292.753906 245.652344 291.664062 260.746094 290.730469 263.46875 C 290.417969 264.402344 289.71875 265.179688 289.796875 265.179688 C 289.875 265.257812 291.351562 265.335938 291.351562 265.335938 C 291.351562 265.335938 292.363281 265.644531 292.910156 265.800781 C 293.375 265.957031 294.386719 266.269531 294.386719 266.269531 C 294.386719 266.269531 295.320312 266.8125 295.789062 267.046875 C 296.253906 267.355469 297.109375 267.902344 297.109375 267.902344 C 297.109375 267.902344 297.886719 268.679688 298.277344 268.992188 C 298.664062 269.378906 299.367188 270.15625 299.367188 270.15625 C 299.367188 270.15625 299.910156 271.011719 300.222656 271.480469 C 300.457031 271.945312 301 272.878906 301 272.878906 C 301 272.878906 301.3125 273.890625 301.464844 274.359375 C 301.621094 274.902344 301.933594 275.914062 301.933594 275.914062 C 302.011719 275.914062 302.011719 276.925781 302.089844 277.46875 C 302.089844 278.015625 302.167969 279.027344 302.167969 279.101562 C 302.167969 279.101562 302.011719 280.113281 301.855469 280.660156 C 301.777344 281.125 301.621094 282.214844 301.621094 282.214844 C 301.621094 282.214844 301.15625 283.148438 300.921875 283.617188 C 300.6875 284.160156 300.300781 285.09375 300.300781 285.09375 C 300.300781 285.09375 299.988281 285.328125 299.832031 285.714844 C 299.289062 287.039062 300.144531 294.039062 298.820312 296.296875 C 297.886719 297.773438 295.007812 298.550781 294.699219 298.941406 C 294.699219 298.941406 294.621094 299.019531 294.621094 299.019531 C 294.621094 299.097656 294.621094 299.175781 294.621094 299.175781 C 294.621094 299.175781 294.074219 300.03125 293.765625 300.496094 C 293.453125 300.964844 292.910156 301.820312 292.910156 301.898438 C 292.910156 301.898438 292.753906 301.972656 292.675781 302.050781 C 292.597656 302.128906 292.597656 302.207031 292.519531 302.285156 C 292.441406 302.363281 292.210938 302.597656 292.054688 302.675781 C 291.898438 302.753906 291.898438 302.832031 291.742188 302.984375 C 291.507812 303.21875 290.574219 304.074219 290.574219 304.074219 C 290.574219 304.074219 289.875 304.386719 289.640625 304.621094 C 289.488281 304.699219 289.332031 304.851562 289.175781 304.929688 C 289.019531 305.085938 288.785156 305.085938 288.628906 305.164062 C 288.398438 305.320312 287.773438 305.628906 287.773438 305.628906 C 287.773438 305.628906 286.609375 305.941406 286.21875 306.097656 C 285.984375 306.175781 285.90625 306.175781 285.675781 306.253906 C 285.519531 306.253906 285.285156 306.410156 285.128906 306.410156 C 285.050781 306.488281 284.972656 306.410156 284.898438 306.410156 C 284.820312 306.488281 284.664062 306.488281 284.664062 306.488281 C 284.664062 306.488281 283.339844 306.5625 283.03125 306.5625 C 282.953125 306.5625 282.875 306.5625 282.875 306.5625 C 282.875 306.5625 281.472656 306.640625 281.472656 306.640625 C 281.472656 306.640625 281.164062 306.5625 281.085938 306.5625 C 281.007812 306.488281 280.929688 306.5625 280.773438 306.5625 C 280.617188 306.488281 280.308594 306.410156 280.152344 306.332031 C 279.996094 306.332031 279.996094 306.332031 279.917969 306.253906 C 279.605469 306.175781 278.363281 305.941406 278.285156 305.941406 C 278.285156 305.941406 278.285156 305.863281 278.207031 305.863281 C 278.128906 305.863281 277.816406 306.019531 277.738281 306.019531 C 277.738281 306.019531 276.726562 305.941406 276.183594 305.941406 C 275.71875 305.941406 274.707031 305.863281 274.628906 305.863281 C 274.628906 305.863281 273.617188 305.628906 273.148438 305.476562 C 272.683594 305.320312 271.671875 305.007812 271.671875 305.007812 C 271.59375 305.007812 270.738281 304.542969 270.273438 304.230469 C 269.882812 303.996094 268.949219 303.53125 268.949219 303.53125 C 268.949219 303.453125 268.171875 302.753906 267.78125 302.441406 C 267.550781 302.207031 267.316406 301.742188 267.082031 301.742188 C 266.925781 301.742188 266.769531 302.050781 266.769531 302.050781 C 266.691406 302.050781 265.914062 302.519531 265.449219 302.753906 C 264.980469 302.984375 264.203125 303.375 264.125 303.375 C 264.125 303.453125 263.191406 303.609375 262.726562 303.765625 C 262.257812 303.839844 261.324219 304.074219 261.324219 304.074219 C 261.324219 304.074219 260.390625 304.074219 259.847656 304.074219 C 259.378906 304.074219 258.445312 304.074219 258.445312 304.074219 C 258.371094 304.074219 257.511719 303.839844 256.96875 303.765625 C 256.503906 303.609375 255.648438 303.453125 255.570312 303.453125 C 255.570312 303.375 255.570312 303.375 255.570312 303.375 C 255.570312 303.375 254.945312 302.90625 254.636719 302.90625 C 254.402344 302.90625 254.246094 303.0625 254.011719 303.21875 C 253.625 303.375 252.691406 303.765625 252.691406 303.765625 C 252.613281 303.765625 251.679688 303.917969 251.210938 303.996094 C 250.746094 304.074219 249.8125 304.230469 249.8125 304.230469 C 249.734375 304.230469 248.800781 304.152344 248.335938 304.074219 C 247.867188 304.074219 246.933594 303.996094 246.855469 303.996094 C 246.855469 303.996094 246 303.6875 245.535156 303.53125 C 245.066406 303.375 244.132812 303.0625 244.132812 303.0625 C 244.132812 303.0625 243.277344 302.519531 242.886719 302.285156 C 242.5 302.050781 241.722656 301.507812 241.644531 301.507812 C 241.644531 301.507812 241.019531 300.808594 240.632812 300.417969 C 240.320312 300.109375 239.699219 299.40625 239.699219 299.40625 C 239.621094 299.40625 239.078125 298.394531 238.921875 298.164062 C 238.84375 298.007812 238.84375 297.773438 238.765625 297.773438 C 237.910156 297.773438 232.621094 306.5625 228.886719 310.296875 C 225.152344 314.109375 220.875 320.179688 216.359375 320.566406 C 211.617188 320.957031 202.902344 315.742188 201.035156 311.933594 C 199.480469 308.898438 203.292969 301.195312 202.59375 300.886719 C 202.046875 300.730469 200.257812 304.230469 198.703125 306.5625 C 196.289062 310.144531 191 318.3125 189.601562 320.257812 C 189.132812 320.800781 188.976562 320.957031 188.746094 321.265625 C 188.433594 321.578125 187.890625 322.277344 187.890625 322.277344 C 187.890625 322.277344 187.109375 322.746094 186.800781 323.054688 C 186.410156 323.289062 185.710938 323.835938 185.710938 323.835938 C 185.710938 323.835938 184.933594 324.144531 184.464844 324.300781 C 184.078125 324.457031 183.300781 324.769531 183.300781 324.769531 C 183.222656 324.769531 182.367188 324.921875 181.976562 325 C 181.511719 325 180.652344 325.15625 180.652344 325.15625 C 180.652344 325.15625 179.796875 325.078125 179.332031 325 C 178.863281 325 178.007812 324.921875 178.007812 324.921875 C 178.007812 324.921875 177.230469 324.613281 176.765625 324.457031 C 176.375 324.300781 175.519531 323.988281 175.519531 323.988281 C 175.519531 323.988281 174.820312 323.523438 174.429688 323.289062 C 174.042969 323.054688 173.339844 322.589844 173.339844 322.589844 C 173.339844 322.511719 172.71875 321.890625 172.40625 321.578125 C 172.175781 321.265625 171.550781 320.644531 171.550781 320.644531 C 171.550781 320.566406 171.085938 319.867188 170.929688 319.476562 C 170.695312 319.089844 170.308594 318.3125 170.230469 318.3125 C 170.230469 318.3125 170.074219 317.457031 169.917969 316.988281 C 169.839844 316.601562 169.609375 315.742188 169.609375 315.742188 C 169.609375 315.742188 169.53125 314.886719 169.53125 314.421875 C 169.53125 313.953125 169.53125 313.097656 169.53125 313.097656 C 169.53125 313.097656 169.683594 312.242188 169.839844 311.855469 C 169.917969 311.386719 170.074219 310.53125 170.074219 310.53125 C 170.152344 310.53125 170.542969 309.753906 170.695312 309.363281 C 170.929688 308.976562 171.242188 308.199219 171.320312 308.199219 C 171.320312 308.121094 175.207031 300.183594 173.730469 298.242188 C 171.550781 295.441406 158.871094 298.707031 153.039062 298.316406 C 148.679688 298.007812 145.492188 296.453125 141.679688 296.683594 C 137.867188 296.917969 132.65625 299.5625 130.246094 299.953125 C 129.15625 300.109375 128.378906 299.796875 127.832031 300.03125 C 127.523438 300.183594 127.523438 300.574219 127.210938 300.808594 C 126.589844 301.117188 124.953125 300.886719 124.566406 301.273438 C 124.253906 301.507812 124.332031 302.285156 124.332031 302.285156 C 124.253906 302.285156 124.253906 301.664062 124.175781 301.664062 C 124.097656 301.664062 124.019531 302.128906 123.867188 302.441406 C 123.710938 302.832031 123.242188 303.996094 123.242188 303.996094 C 123.242188 303.996094 122.542969 304.929688 122.230469 305.398438 C 121.84375 305.785156 121.21875 306.71875 121.21875 306.71875 C 121.21875 306.71875 120.285156 307.496094 119.898438 307.808594 C 119.429688 308.199219 118.574219 308.898438 118.574219 308.898438 C 118.574219 308.898438 117.5625 309.441406 117.019531 309.675781 C 116.554688 309.910156 115.542969 310.375 115.464844 310.375 C 115.464844 310.375 114.375 310.609375 113.832031 310.765625 C 113.285156 310.84375 112.195312 311.078125 112.117188 311.078125 C 112.117188 311.078125 111.03125 311.078125 110.484375 311.078125 C 109.863281 311 108.773438 311 108.773438 311 C 108.695312 311 107.605469 310.6875 107.0625 310.53125 C 106.519531 310.375 105.507812 310.066406 105.429688 310.066406 C 105.429688 310.066406 104.496094 309.519531 103.949219 309.210938 C 103.484375 308.976562 102.472656 308.429688 102.472656 308.355469 C 102.472656 308.355469 101.695312 307.574219 101.226562 307.1875 C 100.839844 306.796875 100.449219 306.488281 99.984375 306.019531 C 99.4375 305.476562 98.195312 304.386719 98.039062 304.230469 C 98.039062 304.230469 98.039062 304.152344 98.039062 304.152344 C 97.570312 303.996094 87.226562 304.074219 87.226562 304.074219 C 87.148438 304.074219 86.058594 303.996094 85.511719 303.917969 C 84.96875 303.839844 83.800781 303.6875 83.800781 303.6875 C 83.800781 303.6875 82.714844 303.296875 82.246094 303.140625 C 81.703125 302.90625 80.613281 302.519531 80.613281 302.519531 C 80.613281 302.519531 79.679688 301.898438 79.210938 301.585938 C 78.746094 301.273438 77.8125 300.652344 77.8125 300.574219 C 77.8125 300.574219 77.035156 299.71875 76.644531 299.328125 C 76.335938 298.941406 75.554688 298.085938 75.554688 298.085938 C 75.554688 298.085938 75.011719 297.074219 74.777344 296.527344 C 74.46875 296.0625 73.921875 295.050781 73.921875 295.050781 C 73.921875 295.050781 73.6875 293.960938 73.535156 293.417969 C 73.378906 292.871094 73.144531 291.785156 73.144531 291.785156 C 73.144531 291.707031 73.066406 290.617188 73.066406 290.074219 C 73.066406 289.449219 73.066406 288.359375 73.066406 288.359375 C 73.066406 288.359375 73.378906 287.273438 73.457031 286.726562 C 73.609375 286.183594 73.921875 285.09375 73.921875 285.015625 C 73.921875 285.015625 74.3125 284.472656 74.3125 284.316406 C 74.3125 284.160156 74.078125 283.847656 74 283.847656 C 74 283.847656 73.6875 282.757812 73.535156 282.214844 C 73.378906 281.671875 73.066406 280.582031 73.066406 280.582031 C 73.066406 280.582031 73.066406 279.414062 72.988281 278.871094 C 72.988281 278.246094 72.910156 277.160156 72.910156 277.160156 M 282.796875 306.5625 C 282.875 306.5625 282.875 306.5625 282.875 306.5625 C 282.875 306.5625 282.796875 306.5625 282.796875 306.5625 "/></clipPath><clipPath id="d8a7ed4441"><path d="M 244 147 L 333.542969 147 L 333.542969 252 L 244 252 Z M 244 147 "/></clipPath><clipPath id="dfd0e08dcd"><path d="M 264 226 L 313 226 L 313 275.316406 L 264 275.316406 Z M 264 226 "/></clipPath><clipPath id="0fef9e40dd"><path d="M 91 226 L 140 226 L 140 275.316406 L 91 275.316406 Z M 91 226 "/></clipPath><clipPath id="77d5bbbe10"><path d="M 49.597656 112.730469 L 238 112.730469 L 238 251 L 49.597656 251 Z M 49.597656 112.730469 "/></clipPath></defs><g id="5bd28b8ef9"><g clip-rule="nonzero" clip-path="url(#d87ddf7d6f)"><path style=" stroke:none;fill-rule:nonzero;fill:#bb423e;fill-opacity:1;" d="M 187.367188 12.996094 C 87.636719 12.996094 6.5 94.136719 6.5 193.863281 C 6.5 293.59375 87.636719 374.734375 187.367188 374.734375 C 287.09375 374.734375 368.234375 293.59375 368.234375 193.863281 C 368.234375 94.136719 287.09375 12.996094 187.367188 12.996094 Z M 187.367188 60.179688 C 217.722656 60.179688 242.414062 84.871094 242.414062 115.226562 C 242.414062 145.582031 217.722656 170.273438 187.367188 170.273438 C 157.011719 170.273438 132.320312 145.582031 132.320312 115.226562 C 132.320312 84.871094 157.011719 60.179688 187.367188 60.179688 Z M 281.734375 296.09375 L 93 296.09375 C 88.660156 296.09375 85.136719 292.570312 85.136719 288.230469 C 85.136719 231.863281 131 186 187.367188 186 C 243.734375 186 289.597656 231.863281 289.597656 288.230469 C 289.597656 292.570312 286.074219 296.09375 281.734375 296.09375 Z M 281.734375 296.09375 "/></g><g clip-rule="nonzero" clip-path="url(#01e4b5e258)"><g clip-rule="nonzero" clip-path="url(#cc1cafa36b)"><path style=" stroke:none;fill-rule:nonzero;fill:#bb423e;fill-opacity:1;" d="M 69.800781 40.980469 L 305.128906 40.980469 L 305.128906 328.347656 L 69.800781 328.347656 Z M 69.800781 40.980469 "/></g></g><g clip-rule="nonzero" clip-path="url(#d8a7ed4441)"><path style=" stroke:none;fill-rule:nonzero;fill:#ffffff;fill-opacity:1;" d="M 327.007812 177.082031 L 302.550781 152.621094 C 299.144531 149.21875 294.492188 147.289062 289.667969 147.289062 L 244.101562 147.289062 L 244.101562 251.023438 L 258.230469 251.023438 C 258.230469 234.167969 271.90625 220.550781 288.703125 220.550781 C 305.558594 220.550781 319.175781 234.226562 319.175781 251.023438 L 324.683594 251.023438 C 329.449219 251.023438 333.308594 247.164062 333.308594 242.398438 L 333.308594 192.515625 C 333.421875 186.730469 331.09375 181.167969 327.007812 177.082031 Z M 252.894531 183.265625 L 252.894531 156.027344 L 289.726562 156.027344 C 292.222656 156.027344 294.605469 156.992188 296.363281 158.808594 L 320.824219 183.265625 Z M 252.894531 183.265625 "/></g><g clip-rule="nonzero" clip-path="url(#dfd0e08dcd)"><path style=" stroke:none;fill-rule:nonzero;fill:#ffffff;fill-opacity:1;" d="M 288.761719 226.792969 C 275.367188 226.792969 264.527344 237.632812 264.527344 251.023438 C 264.527344 264.417969 275.367188 275.253906 288.761719 275.253906 C 302.152344 275.253906 312.992188 264.417969 312.992188 251.023438 C 312.992188 237.632812 302.152344 226.792969 288.761719 226.792969 Z M 288.761719 263.507812 C 281.835938 263.507812 276.277344 257.890625 276.277344 251.023438 C 276.277344 244.101562 281.894531 238.539062 288.761719 238.539062 C 295.683594 238.539062 301.246094 244.15625 301.246094 251.023438 C 301.300781 257.949219 295.683594 263.507812 288.761719 263.507812 Z M 288.761719 263.507812 "/></g><g clip-rule="nonzero" clip-path="url(#0fef9e40dd)"><path style=" stroke:none;fill-rule:nonzero;fill:#ffffff;fill-opacity:1;" d="M 115.453125 226.792969 C 102.058594 226.792969 91.21875 237.632812 91.21875 251.023438 C 91.21875 264.417969 102.058594 275.253906 115.453125 275.253906 C 128.84375 275.253906 139.683594 264.417969 139.683594 251.023438 C 139.683594 237.632812 128.84375 226.792969 115.453125 226.792969 Z M 115.453125 263.507812 C 108.527344 263.507812 102.96875 257.890625 102.96875 251.023438 C 102.96875 244.101562 108.585938 238.539062 115.453125 238.539062 C 122.320312 238.539062 127.9375 244.15625 127.9375 251.023438 C 127.992188 257.949219 122.375 263.507812 115.453125 263.507812 Z M 115.453125 263.507812 "/></g><g clip-rule="nonzero" clip-path="url(#77d5bbbe10)"><path style=" stroke:none;fill-rule:nonzero;fill:#ffffff;fill-opacity:1;" d="M 229.230469 112.730469 L 58.308594 112.730469 C 53.539062 112.730469 49.679688 116.589844 49.679688 121.355469 L 49.679688 242.339844 C 49.679688 247.109375 53.539062 250.96875 58.308594 250.96875 L 84.976562 250.96875 C 84.976562 234.113281 98.65625 220.492188 115.453125 220.492188 C 132.25 220.492188 145.925781 234.167969 145.925781 250.96875 L 237.800781 250.96875 L 237.800781 121.355469 C 237.859375 116.589844 234 112.730469 229.230469 112.730469 Z M 229.230469 112.730469 "/></g></g></svg>