<svg xmlns="http://www.w3.org/2000/svg" xmlns:xlink="http://www.w3.org/1999/xlink" width="500" zoomAndPan="magnify" viewBox="0 0 375 374.999991" height="500" preserveAspectRatio="xMidYMid meet" version="1.2"><defs><clipPath id="217ea6383b"><path d="M 18.144531 18.144531 L 357 18.144531 L 357 357 L 18.144531 357 Z M 18.144531 18.144531 "/></clipPath></defs><g id="e21f8474b9"><path style=" stroke:none;fill-rule:nonzero;fill:#efb677;fill-opacity:1;" d="M 134.917969 277.265625 C 134.917969 277.742188 134.875 278.210938 134.78125 278.679688 C 134.6875 279.144531 134.550781 279.597656 134.371094 280.035156 C 134.1875 280.472656 133.964844 280.890625 133.703125 281.285156 C 133.4375 281.679688 133.136719 282.042969 132.800781 282.378906 C 132.464844 282.714844 132.101562 283.015625 131.707031 283.28125 C 131.3125 283.542969 130.894531 283.765625 130.457031 283.949219 C 130.015625 284.128906 129.566406 284.265625 129.101562 284.359375 C 128.632812 284.453125 128.164062 284.5 127.6875 284.5 C 127.214844 284.5 126.742188 284.453125 126.277344 284.359375 C 125.8125 284.265625 125.359375 284.128906 124.921875 283.949219 C 124.484375 283.765625 124.066406 283.542969 123.671875 283.28125 C 123.277344 283.015625 122.910156 282.714844 122.574219 282.378906 C 122.242188 282.042969 121.941406 281.679688 121.675781 281.285156 C 121.414062 280.890625 121.191406 280.472656 121.007812 280.035156 C 120.828125 279.597656 120.691406 279.144531 120.597656 278.679688 C 120.503906 278.210938 120.457031 277.742188 120.457031 277.265625 C 120.457031 276.792969 120.503906 276.324219 120.597656 275.855469 C 120.691406 275.390625 120.828125 274.9375 121.007812 274.5 C 121.191406 274.0625 121.414062 273.644531 121.675781 273.25 C 121.941406 272.855469 122.242188 272.492188 122.574219 272.15625 C 122.910156 271.820312 123.277344 271.519531 123.671875 271.253906 C 124.066406 270.992188 124.484375 270.769531 124.921875 270.585938 C 125.359375 270.40625 125.8125 270.269531 126.277344 270.175781 C 126.742188 270.082031 127.214844 270.035156 127.6875 270.035156 C 128.164062 270.035156 128.632812 270.082031 129.101562 270.175781 C 129.566406 270.269531 130.015625 270.40625 130.457031 270.585938 C 130.894531 270.769531 131.3125 270.992188 131.707031 271.253906 C 132.101562 271.519531 132.464844 271.820312 132.800781 272.15625 C 133.136719 272.492188 133.4375 272.855469 133.703125 273.25 C 133.964844 273.644531 134.1875 274.0625 134.371094 274.5 C 134.550781 274.9375 134.6875 275.390625 134.78125 275.855469 C 134.875 276.324219 134.917969 276.792969 134.917969 277.265625 Z M 134.917969 277.265625 "/><path style=" stroke:none;fill-rule:nonzero;fill:#efb677;fill-opacity:1;" d="M 253.597656 277.265625 C 253.597656 277.742188 253.554688 278.210938 253.460938 278.679688 C 253.367188 279.144531 253.230469 279.597656 253.046875 280.035156 C 252.867188 280.472656 252.644531 280.890625 252.378906 281.285156 C 252.117188 281.679688 251.816406 282.042969 251.480469 282.378906 C 251.144531 282.714844 250.78125 283.015625 250.386719 283.28125 C 249.992188 283.542969 249.574219 283.765625 249.136719 283.949219 C 248.695312 284.128906 248.246094 284.265625 247.777344 284.359375 C 247.3125 284.453125 246.84375 284.5 246.367188 284.5 C 245.894531 284.5 245.421875 284.453125 244.957031 284.359375 C 244.492188 284.265625 244.039062 284.128906 243.601562 283.949219 C 243.164062 283.765625 242.746094 283.542969 242.351562 283.28125 C 241.957031 283.015625 241.589844 282.714844 241.253906 282.378906 C 240.917969 282.042969 240.621094 281.679688 240.355469 281.285156 C 240.09375 280.890625 239.871094 280.472656 239.6875 280.035156 C 239.507812 279.597656 239.367188 279.144531 239.277344 278.679688 C 239.183594 278.210938 239.136719 277.742188 239.136719 277.265625 C 239.136719 276.792969 239.183594 276.324219 239.277344 275.855469 C 239.367188 275.390625 239.507812 274.9375 239.6875 274.5 C 239.871094 274.0625 240.09375 273.644531 240.355469 273.25 C 240.621094 272.855469 240.917969 272.492188 241.253906 272.15625 C 241.589844 271.820312 241.957031 271.519531 242.351562 271.253906 C 242.746094 270.992188 243.164062 270.769531 243.601562 270.585938 C 244.039062 270.40625 244.492188 270.269531 244.957031 270.175781 C 245.421875 270.082031 245.894531 270.035156 246.367188 270.035156 C 246.84375 270.035156 247.3125 270.082031 247.777344 270.175781 C 248.246094 270.269531 248.695312 270.40625 249.136719 270.585938 C 249.574219 270.769531 249.992188 270.992188 250.386719 271.253906 C 250.78125 271.519531 251.144531 271.820312 251.480469 272.15625 C 251.816406 272.492188 252.117188 272.855469 252.378906 273.25 C 252.644531 273.644531 252.867188 274.0625 253.046875 274.5 C 253.230469 274.9375 253.367188 275.390625 253.460938 275.855469 C 253.554688 276.324219 253.597656 276.792969 253.597656 277.265625 Z M 253.597656 277.265625 "/><g clip-rule="nonzero" clip-path="url(#217ea6383b)"><path style=" stroke:none;fill-rule:nonzero;fill:#efb677;fill-opacity:1;" d="M 187.46875 18.042969 C 93.96875 18.042969 18.167969 93.851562 18.167969 187.351562 C 18.167969 280.851562 93.96875 356.664062 187.46875 356.664062 C 280.976562 356.664062 356.78125 280.855469 356.78125 187.351562 C 356.78125 93.847656 280.976562 18.042969 187.46875 18.042969 Z M 141.203125 252.472656 L 246.367188 252.472656 C 260.039062 252.472656 271.160156 263.597656 271.160156 277.265625 C 271.160156 290.9375 260.039062 302.0625 246.367188 302.0625 C 232.695312 302.0625 221.570312 290.9375 221.570312 277.265625 C 221.570312 274.753906 221.953125 272.324219 222.648438 270.035156 L 151.402344 270.035156 C 152.101562 272.324219 152.484375 274.75 152.484375 277.265625 C 152.484375 290.9375 141.363281 302.0625 127.6875 302.0625 C 114.015625 302.0625 102.894531 290.9375 102.894531 277.265625 C 102.894531 265.054688 111.777344 254.898438 123.421875 252.867188 L 119.0625 228.859375 L 119.015625 228.628906 L 95.894531 114.214844 L 74.652344 114.355469 L 74.535156 96.789062 L 110.246094 96.550781 L 118.890625 139.3125 L 278.984375 158.507812 L 258.648438 236.003906 L 138.210938 236.003906 Z M 141.203125 252.472656 "/></g></g></svg>