<svg xmlns="http://www.w3.org/2000/svg" xmlns:xlink="http://www.w3.org/1999/xlink" width="500" zoomAndPan="magnify" viewBox="0 0 375 374.999991" height="500" preserveAspectRatio="xMidYMid meet" version="1.2"><defs><clipPath id="c137c5a0c1"><path d="M 16.589844 9 L 373 9 L 373 366 L 16.589844 366 Z M 16.589844 9 "/></clipPath></defs><g id="75e2e8f6bd"><path style=" stroke:none;fill-rule:nonzero;fill:#ffffff;fill-opacity:1;" d="M 346.8125 182.550781 C 346.8125 185.078125 346.75 187.605469 346.625 190.132812 C 346.503906 192.660156 346.316406 195.179688 346.070312 197.699219 C 345.820312 200.214844 345.511719 202.726562 345.140625 205.226562 C 344.769531 207.726562 344.335938 210.21875 343.84375 212.699219 C 343.347656 215.179688 342.796875 217.648438 342.179688 220.101562 C 341.566406 222.554688 340.890625 224.992188 340.15625 227.414062 C 339.421875 229.832031 338.628906 232.234375 337.777344 234.617188 C 336.925781 236.996094 336.015625 239.355469 335.046875 241.691406 C 334.082031 244.03125 333.054688 246.339844 331.972656 248.628906 C 330.894531 250.914062 329.757812 253.171875 328.5625 255.402344 C 327.371094 257.632812 326.125 259.832031 324.824219 262.003906 C 323.523438 264.171875 322.171875 266.308594 320.765625 268.410156 C 319.363281 270.515625 317.90625 272.582031 316.398438 274.613281 C 314.890625 276.644531 313.335938 278.640625 311.730469 280.59375 C 310.128906 282.550781 308.476562 284.464844 306.777344 286.339844 C 305.078125 288.210938 303.335938 290.042969 301.546875 291.832031 C 299.757812 293.621094 297.925781 295.363281 296.050781 297.0625 C 294.179688 298.761719 292.265625 300.414062 290.308594 302.015625 C 288.355469 303.621094 286.359375 305.175781 284.328125 306.683594 C 282.296875 308.191406 280.230469 309.648438 278.125 311.050781 C 276.023438 312.457031 273.886719 313.808594 271.71875 315.109375 C 269.546875 316.410156 267.347656 317.65625 265.117188 318.847656 C 262.886719 320.042969 260.628906 321.179688 258.34375 322.257812 C 256.054688 323.339844 253.746094 324.367188 251.40625 325.332031 C 249.070312 326.300781 246.710938 327.210938 244.332031 328.0625 C 241.949219 328.914062 239.546875 329.707031 237.128906 330.441406 C 234.707031 331.175781 232.269531 331.851562 229.816406 332.464844 C 227.363281 333.082031 224.894531 333.636719 222.414062 334.128906 C 219.933594 334.621094 217.441406 335.054688 214.941406 335.425781 C 212.4375 335.796875 209.929688 336.105469 207.414062 336.355469 C 204.894531 336.601562 202.375 336.789062 199.847656 336.910156 C 197.320312 337.035156 194.792969 337.097656 192.265625 337.097656 C 189.734375 337.097656 187.207031 337.035156 184.679688 336.910156 C 182.15625 336.789062 179.632812 336.601562 177.117188 336.355469 C 174.597656 336.105469 172.089844 335.796875 169.585938 335.425781 C 167.085938 335.054688 164.59375 334.621094 162.113281 334.128906 C 159.632812 333.636719 157.164062 333.082031 154.710938 332.464844 C 152.257812 331.851562 149.820312 331.175781 147.402344 330.441406 C 144.980469 329.707031 142.578125 328.914062 140.199219 328.0625 C 137.816406 327.210938 135.457031 326.300781 133.121094 325.332031 C 130.785156 324.367188 128.472656 323.339844 126.1875 322.257812 C 123.898438 321.179688 121.640625 320.042969 119.410156 318.847656 C 117.179688 317.65625 114.980469 316.410156 112.8125 315.109375 C 110.640625 313.808594 108.503906 312.457031 106.402344 311.050781 C 104.300781 309.648438 102.230469 308.191406 100.199219 306.683594 C 98.167969 305.175781 96.175781 303.621094 94.21875 302.015625 C 92.265625 300.414062 90.351562 298.761719 88.476562 297.0625 C 86.601562 295.363281 84.769531 293.621094 82.980469 291.832031 C 81.195312 290.042969 79.449219 288.210938 77.75 286.339844 C 76.054688 284.464844 74.402344 282.550781 72.796875 280.59375 C 71.191406 278.640625 69.636719 276.644531 68.128906 274.613281 C 66.625 272.582031 65.167969 270.515625 63.761719 268.410156 C 62.355469 266.308594 61.003906 264.171875 59.703125 262.003906 C 58.402344 259.832031 57.15625 257.632812 55.964844 255.402344 C 54.773438 253.171875 53.636719 250.914062 52.554688 248.628906 C 51.472656 246.339844 50.449219 244.03125 49.480469 241.691406 C 48.511719 239.355469 47.601562 236.996094 46.75 234.617188 C 45.898438 232.234375 45.105469 229.832031 44.371094 227.414062 C 43.636719 224.992188 42.960938 222.554688 42.347656 220.101562 C 41.734375 217.648438 41.179688 215.179688 40.6875 212.699219 C 40.191406 210.21875 39.761719 207.726562 39.390625 205.226562 C 39.019531 202.726562 38.707031 200.214844 38.460938 197.699219 C 38.210938 195.179688 38.027344 192.660156 37.902344 190.132812 C 37.777344 187.605469 37.714844 185.078125 37.714844 182.550781 C 37.714844 180.019531 37.777344 177.492188 37.902344 174.964844 C 38.027344 172.441406 38.210938 169.917969 38.460938 167.402344 C 38.707031 164.882812 39.019531 162.375 39.390625 159.871094 C 39.761719 157.371094 40.191406 154.878906 40.6875 152.398438 C 41.179688 149.917969 41.734375 147.449219 42.347656 144.996094 C 42.960938 142.542969 43.636719 140.105469 44.371094 137.6875 C 45.105469 135.265625 45.898438 132.867188 46.75 130.484375 C 47.601562 128.101562 48.511719 125.742188 49.480469 123.40625 C 50.449219 121.070312 51.472656 118.757812 52.554688 116.472656 C 53.636719 114.183594 54.773438 111.925781 55.964844 109.695312 C 57.15625 107.464844 58.402344 105.265625 59.703125 103.097656 C 61.003906 100.925781 62.355469 98.789062 63.761719 96.6875 C 65.167969 94.585938 66.625 92.515625 68.128906 90.484375 C 69.636719 88.453125 71.191406 86.460938 72.796875 84.503906 C 74.402344 82.550781 76.054688 80.636719 77.75 78.761719 C 79.449219 76.886719 81.195312 75.054688 82.980469 73.265625 C 84.769531 71.480469 86.601562 69.734375 88.476562 68.035156 C 90.351562 66.339844 92.265625 64.6875 94.21875 63.082031 C 96.175781 61.476562 98.167969 59.921875 100.199219 58.414062 C 102.230469 56.910156 104.300781 55.453125 106.402344 54.046875 C 108.503906 52.640625 110.640625 51.289062 112.8125 49.988281 C 114.980469 48.6875 117.179688 47.441406 119.410156 46.25 C 121.640625 45.058594 123.898438 43.921875 126.1875 42.839844 C 128.472656 41.757812 130.785156 40.734375 133.121094 39.765625 C 135.457031 38.796875 137.816406 37.886719 140.199219 37.035156 C 142.578125 36.183594 144.980469 35.390625 147.402344 34.65625 C 149.820312 33.921875 152.257812 33.246094 154.710938 32.632812 C 157.164062 32.019531 159.632812 31.464844 162.113281 30.972656 C 164.59375 30.476562 167.085938 30.046875 169.585938 29.675781 C 172.089844 29.304688 174.597656 28.992188 177.117188 28.746094 C 179.632812 28.496094 182.15625 28.3125 184.679688 28.1875 C 187.207031 28.0625 189.734375 28 192.265625 28 C 194.792969 28 197.320312 28.0625 199.847656 28.1875 C 202.375 28.3125 204.894531 28.496094 207.414062 28.746094 C 209.929688 28.992188 212.4375 29.304688 214.941406 29.675781 C 217.441406 30.046875 219.933594 30.476562 222.414062 30.972656 C 224.894531 31.464844 227.363281 32.019531 229.816406 32.632812 C 232.269531 33.246094 234.707031 33.921875 237.128906 34.65625 C 239.546875 35.390625 241.949219 36.183594 244.332031 37.035156 C 246.710938 37.886719 249.070312 38.796875 251.40625 39.765625 C 253.746094 40.734375 256.054688 41.757812 258.34375 42.839844 C 260.628906 43.921875 262.886719 45.058594 265.117188 46.25 C 267.347656 47.441406 269.546875 48.6875 271.71875 49.988281 C 273.886719 51.289062 276.023438 52.640625 278.125 54.046875 C 280.230469 55.453125 282.296875 56.910156 284.328125 58.414062 C 286.359375 59.921875 288.355469 61.476562 290.308594 63.082031 C 292.265625 64.6875 294.179688 66.339844 296.050781 68.035156 C 297.925781 69.734375 299.757812 71.480469 301.546875 73.265625 C 303.335938 75.054688 305.078125 76.886719 306.777344 78.761719 C 308.476562 80.636719 310.128906 82.550781 311.730469 84.503906 C 313.335938 86.460938 314.890625 88.453125 316.398438 90.484375 C 317.90625 92.515625 319.363281 94.585938 320.765625 96.6875 C 322.171875 98.789062 323.523438 100.925781 324.824219 103.097656 C 326.125 105.265625 327.371094 107.464844 328.5625 109.695312 C 329.757812 111.925781 330.894531 114.183594 331.972656 116.472656 C 333.054688 118.757812 334.082031 121.070312 335.046875 123.40625 C 336.015625 125.742188 336.925781 128.101562 337.777344 130.484375 C 338.628906 132.867188 339.421875 135.265625 340.15625 137.6875 C 340.890625 140.105469 341.566406 142.542969 342.179688 144.996094 C 342.796875 147.449219 343.347656 149.917969 343.84375 152.398438 C 344.335938 154.878906 344.769531 157.371094 345.140625 159.871094 C 345.511719 162.375 345.820312 164.882812 346.070312 167.402344 C 346.316406 169.917969 346.503906 172.441406 346.625 174.964844 C 346.75 177.492188 346.8125 180.019531 346.8125 182.550781 Z M 346.8125 182.550781 "/><g clip-rule="nonzero" clip-path="url(#c137c5a0c1)"><path style=" stroke:none;fill-rule:nonzero;fill:#166d50;fill-opacity:1;" d="M 327.941406 69.972656 C 325.730469 67.453125 323.453125 65 321.101562 62.605469 C 318.753906 60.214844 316.339844 57.894531 313.859375 55.640625 C 311.378906 53.386719 308.835938 51.203125 306.234375 49.09375 C 303.628906 46.980469 300.96875 44.945312 298.25 42.984375 C 295.53125 41.027344 292.757812 39.144531 289.933594 37.339844 C 287.109375 35.539062 284.234375 33.816406 281.3125 32.175781 C 278.390625 30.535156 275.421875 28.980469 272.410156 27.507812 C 269.402344 26.035156 266.351562 24.648438 263.261719 23.347656 C 260.171875 22.046875 257.050781 20.835938 253.890625 19.710938 C 250.734375 18.589844 247.546875 17.554688 244.332031 16.613281 C 241.113281 15.667969 237.875 14.816406 234.609375 14.058594 C 231.34375 13.296875 228.0625 12.632812 224.757812 12.058594 C 221.457031 11.484375 218.140625 11.003906 214.8125 10.617188 C 211.484375 10.230469 208.144531 9.9375 204.800781 9.742188 C 201.453125 9.542969 198.105469 9.441406 194.753906 9.433594 C 191.402344 9.425781 188.050781 9.511719 184.707031 9.691406 C 181.359375 9.875 178.019531 10.148438 174.6875 10.519531 C 171.359375 10.890625 168.039062 11.355469 164.734375 11.914062 C 161.429688 12.472656 158.144531 13.121094 154.875 13.867188 C 151.609375 14.609375 148.363281 15.445312 145.140625 16.375 C 141.921875 17.300781 138.730469 18.320312 135.566406 19.425781 C 132.402344 20.535156 129.273438 21.730469 126.179688 23.015625 C 123.082031 24.300781 120.027344 25.671875 117.007812 27.132812 C 113.992188 28.589844 111.015625 30.132812 108.085938 31.757812 C 105.15625 33.386719 102.273438 35.09375 99.4375 36.882812 C 96.605469 38.671875 93.824219 40.539062 91.097656 42.488281 C 88.367188 44.433594 85.695312 46.457031 83.082031 48.554688 C 80.46875 50.652344 77.917969 52.820312 75.425781 55.0625 C 72.933594 57.308594 70.507812 59.617188 68.148438 61.996094 C 65.789062 64.375 63.496094 66.820312 61.273438 69.332031 C 59.050781 71.839844 56.902344 74.410156 54.828125 77.039062 C 52.75 79.671875 50.75 82.359375 48.824219 85.101562 C 44.800781 90.824219 41.121094 96.757812 37.785156 102.90625 C 31.539062 114.511719 26.648438 126.664062 23.121094 139.363281 C 19.589844 152.0625 17.507812 164.992188 16.871094 178.15625 C 16.730469 181.15625 16.636719 184.175781 16.636719 187.199219 C 16.636719 190.773438 16.742188 194.347656 16.957031 197.921875 C 17.171875 201.492188 17.496094 205.050781 17.925781 208.601562 C 18.355469 212.15625 18.890625 215.691406 19.535156 219.207031 C 20.179688 222.726562 20.925781 226.222656 21.78125 229.699219 C 22.636719 233.171875 23.59375 236.617188 24.65625 240.03125 C 25.71875 243.449219 26.882812 246.828125 28.148438 250.175781 C 29.414062 253.519531 30.78125 256.824219 32.246094 260.089844 C 33.714844 263.351562 35.277344 266.566406 36.9375 269.738281 C 38.597656 272.90625 40.351562 276.019531 42.199219 279.085938 C 44.046875 282.148438 45.984375 285.152344 48.015625 288.097656 C 50.042969 291.042969 52.160156 293.925781 54.363281 296.742188 C 56.566406 299.5625 58.851562 302.3125 61.222656 304.992188 C 63.589844 307.671875 66.039062 310.277344 68.566406 312.8125 C 71.09375 315.34375 73.695312 317.796875 76.367188 320.171875 C 79.042969 322.546875 81.785156 324.839844 84.601562 327.050781 C 87.414062 329.261719 90.289062 331.382812 93.230469 333.417969 C 96.171875 335.457031 99.171875 337.402344 102.230469 339.257812 C 105.289062 341.109375 108.402344 342.871094 111.566406 344.539062 C 114.734375 346.207031 117.945312 347.777344 121.207031 349.25 C 124.464844 350.722656 127.765625 352.097656 131.109375 353.371094 C 134.453125 354.644531 137.828125 355.816406 141.242188 356.886719 C 144.65625 357.957031 148.097656 358.921875 151.570312 359.785156 C 155.042969 360.648438 158.539062 361.40625 162.054688 362.054688 C 165.574219 362.707031 169.105469 363.253906 172.65625 363.691406 C 176.207031 364.128906 179.769531 364.457031 183.339844 364.683594 C 186.910156 364.90625 190.484375 365.019531 194.058594 365.027344 C 197.636719 365.035156 201.210938 364.933594 204.78125 364.726562 C 208.355469 364.519531 211.914062 364.203125 215.46875 363.777344 C 219.019531 363.355469 222.554688 362.824219 226.078125 362.1875 C 229.597656 361.550781 233.09375 360.808594 236.570312 359.960938 C 240.046875 359.113281 243.492188 358.160156 246.910156 357.105469 C 250.328125 356.046875 253.710938 354.890625 257.058594 353.628906 C 260.40625 352.371094 263.714844 351.011719 266.980469 349.550781 C 270.246094 348.089844 273.464844 346.535156 276.636719 344.878906 C 279.808594 343.226562 282.925781 341.476562 285.992188 339.632812 C 289.058594 337.792969 292.066406 335.859375 295.015625 333.835938 C 297.964844 331.8125 300.851562 329.699219 303.675781 327.5 C 306.496094 325.304688 309.25 323.023438 311.933594 320.65625 C 314.621094 318.292969 317.230469 315.847656 319.765625 313.328125 C 322.304688 310.804688 324.761719 308.210938 327.144531 305.539062 C 329.523438 302.867188 331.820312 300.128906 334.035156 297.320312 C 336.25 294.511719 338.378906 291.636719 340.421875 288.699219 C 342.460938 285.761719 344.414062 282.765625 346.273438 279.710938 C 348.132812 276.65625 349.902344 273.546875 351.574219 270.382812 C 353.246094 267.222656 354.824219 264.011719 356.304688 260.753906 C 357.78125 257.5 359.160156 254.199219 360.441406 250.859375 C 361.722656 247.519531 362.898438 244.140625 363.976562 240.730469 C 365.054688 237.320312 366.023438 233.878906 366.894531 230.40625 C 367.761719 226.9375 368.527344 223.445312 369.183594 219.929688 C 369.839844 216.410156 370.390625 212.878906 370.835938 209.328125 C 371.28125 205.78125 371.617188 202.21875 371.847656 198.648438 C 372.078125 195.082031 372.199219 191.507812 372.214844 187.929688 C 372.226562 184.351562 372.132812 180.777344 371.929688 177.207031 C 371.730469 173.632812 371.417969 170.070312 371.003906 166.519531 C 370.585938 162.964844 370.0625 159.429688 369.433594 155.90625 C 368.800781 152.386719 368.066406 148.886719 367.222656 145.410156 C 366.382812 141.933594 365.4375 138.484375 364.386719 135.066406 C 363.335938 131.644531 362.183594 128.261719 360.929688 124.910156 C 359.675781 121.558594 358.324219 118.25 356.867188 114.980469 C 355.414062 111.714844 353.863281 108.492188 352.214844 105.316406 C 350.566406 102.140625 348.824219 99.019531 346.988281 95.949219 C 345.152344 92.878906 343.222656 89.867188 341.203125 86.914062 C 339.183594 83.960938 337.078125 81.070312 334.886719 78.246094 C 332.695312 75.417969 330.417969 72.664062 328.058594 69.972656 Z M 135.046875 211.738281 C 150.058594 222.289062 164.121094 228.613281 178.644531 230.960938 L 178.644531 202.769531 C 140.902344 194.101562 121.683594 181.226562 121.683594 152.152344 L 121.683594 151.6875 C 121.683594 124.03125 141.855469 104.8125 177.714844 102.230469 L 177.714844 88.867188 L 202.09375 88.867188 L 202.09375 102.929688 C 210.96875 103.859375 219.589844 105.871094 227.960938 108.96875 C 236.328125 112.0625 244.183594 116.148438 251.527344 121.21875 L 232.308594 152.617188 C 222.703125 146.023438 212.238281 141.375 200.910156 138.671875 L 200.910156 165.863281 C 238.09375 174.53125 256.917969 187.894531 256.917969 216.992188 L 256.917969 217.457031 C 256.917969 246.042969 234.886719 263.613281 201.605469 266.679688 L 201.605469 289.640625 L 177.25 289.640625 L 177.25 266.050781 C 171.589844 265.507812 165.984375 264.605469 160.441406 263.34375 C 154.894531 262.082031 149.449219 260.46875 144.113281 258.507812 C 138.773438 256.550781 133.582031 254.253906 128.535156 251.628906 C 123.492188 249 118.636719 246.0625 113.96875 242.8125 Z M 135.046875 211.738281 "/></g><path style=" stroke:none;fill-rule:nonzero;fill:#166d50;fill-opacity:1;" d="M 216.386719 220.363281 L 216.386719 219.898438 C 216.386719 213.550781 212.855469 210.042969 200.675781 206.535156 L 200.675781 232.308594 C 211.460938 231.144531 216.386719 227.148438 216.386719 220.363281 Z M 216.386719 220.363281 "/><path style=" stroke:none;fill-rule:nonzero;fill:#166d50;fill-opacity:1;" d="M 178.878906 136.441406 C 167.398438 137.394531 162.933594 142.089844 162.933594 148.175781 L 162.933594 148.640625 C 162.933594 154.730469 166.234375 158.242188 178.878906 161.773438 Z M 178.878906 136.441406 "/></g></svg>