<svg xmlns="http://www.w3.org/2000/svg" xmlns:xlink="http://www.w3.org/1999/xlink" width="500" zoomAndPan="magnify" viewBox="0 0 375 374.999991" height="500" preserveAspectRatio="xMidYMid meet" version="1.2"><defs><clipPath id="938a82210e"><path d="M 7.414062 14.832031 L 367.320312 14.832031 L 367.320312 374.734375 L 7.414062 374.734375 Z M 7.414062 14.832031 "/></clipPath><clipPath id="7c4c09738d"><path d="M 73.488281 45 L 302 45 L 302 325.492188 L 73.488281 325.492188 Z M 73.488281 45 "/></clipPath><clipPath id="269348901d"><path d="M 73.492188 277.65625 C 73.492188 277.578125 73.722656 276.492188 73.878906 275.953125 C 73.957031 275.410156 74.1875 274.25 74.1875 274.25 C 74.1875 274.25 74.730469 273.242188 74.960938 272.703125 C 75.195312 272.238281 75.660156 271.152344 75.660156 271.152344 C 75.738281 271.152344 76.433594 270.300781 76.742188 269.835938 C 77.128906 269.375 77.828125 268.523438 77.828125 268.523438 C 77.902344 268.523438 78.753906 267.824219 79.21875 267.515625 C 79.683594 267.128906 80.613281 266.507812 80.613281 266.433594 C 80.613281 266.433594 81.695312 266.277344 81.929688 265.890625 C 82.238281 265.503906 81.851562 264.882812 82.007812 263.878906 C 82.625 260.9375 85.179688 251.726562 87.886719 247.082031 C 90.289062 242.980469 94.15625 240.890625 96.945312 237.019531 C 100.273438 232.375 102.75 225.332031 106.078125 220.84375 C 108.863281 217.050781 111.882812 214.421875 115.132812 211.480469 C 118.382812 208.539062 121.945312 205.597656 125.503906 203.042969 C 128.988281 200.566406 132.703125 199.171875 136.417969 196.464844 C 140.597656 193.445312 144.851562 188.800781 149.265625 185.472656 C 153.523438 182.222656 160.566406 179.359375 162.5 176.648438 C 163.429688 175.335938 163.429688 173.785156 163.507812 172.855469 C 163.582031 172.316406 163.738281 171.695312 163.507812 171.617188 C 162.734375 171.308594 158.011719 179.511719 155.226562 179.359375 C 151.820312 179.125 146.554688 167.515625 144.851562 166.742188 C 144.390625 166.589844 144.234375 166.820312 143.847656 166.820312 C 143.382812 166.820312 142.375 166.898438 142.375 166.898438 C 142.300781 166.898438 141.371094 166.664062 140.828125 166.589844 C 140.363281 166.511719 139.359375 166.355469 139.359375 166.355469 C 139.359375 166.355469 138.429688 165.890625 137.964844 165.738281 C 137.5 165.503906 136.570312 165.039062 136.570312 165.039062 C 136.570312 165.039062 135.796875 164.421875 135.410156 164.109375 C 134.945312 163.800781 134.171875 163.183594 134.171875 163.183594 C 134.171875 163.183594 133.554688 162.410156 133.242188 161.945312 C 132.933594 161.558594 132.316406 160.78125 132.316406 160.78125 C 132.316406 160.78125 131.929688 159.855469 131.695312 159.390625 C 131.464844 158.925781 131.078125 157.996094 131.078125 157.996094 C 131.078125 157.996094 130.921875 156.992188 130.765625 156.449219 C 130.691406 155.984375 130.535156 154.976562 130.535156 154.976562 C 130.535156 154.976562 130.613281 153.972656 130.613281 153.429688 C 130.691406 152.964844 130.691406 151.960938 130.691406 151.960938 C 130.765625 151.960938 131 150.953125 131.152344 150.488281 C 131.308594 150.023438 131.617188 149.097656 131.617188 149.019531 C 131.617188 149.019531 129.914062 136.867188 128.601562 131.914062 C 127.59375 127.890625 125.734375 123.785156 125.117188 121.386719 C 124.808594 120.148438 124.652344 119.453125 124.574219 118.445312 C 124.496094 117.515625 124.574219 116.355469 124.730469 115.503906 C 124.882812 114.808594 125.273438 114.34375 125.273438 113.648438 C 125.347656 112.796875 125.039062 111.480469 124.808594 110.785156 C 124.730469 110.242188 124.496094 110.242188 124.34375 109.546875 C 123.570312 107.144531 121.09375 91.589844 121.09375 91.511719 C 121.09375 91.511719 121.09375 90.503906 121.015625 89.964844 C 121.015625 89.5 120.9375 88.492188 120.9375 88.492188 C 120.9375 88.492188 121.167969 87.71875 121.09375 87.640625 C 121.09375 87.5625 121.015625 87.5625 121.015625 87.5625 C 121.015625 87.488281 120.242188 86.789062 119.855469 86.402344 C 119.542969 86.09375 118.769531 85.320312 118.769531 85.320312 C 118.769531 85.320312 118.226562 84.46875 117.917969 84.003906 C 117.6875 83.539062 117.144531 82.6875 117.144531 82.6875 C 117.144531 82.609375 116.835938 81.683594 116.679688 81.140625 C 116.527344 80.675781 116.214844 79.667969 116.214844 79.667969 C 116.140625 79.667969 116.140625 78.585938 116.0625 78.121094 C 116.0625 77.578125 115.984375 76.574219 115.984375 76.496094 C 115.984375 76.496094 116.140625 75.488281 116.214844 75.027344 C 116.371094 74.484375 116.527344 73.476562 116.527344 73.476562 C 116.527344 73.402344 116.914062 72.472656 117.144531 72.007812 C 117.378906 71.542969 117.765625 70.613281 117.765625 70.613281 C 117.765625 70.613281 117.765625 70.613281 117.765625 70.535156 C 117.765625 70.535156 118.460938 69.761719 118.769531 69.296875 C 119.078125 68.910156 119.699219 68.136719 119.699219 68.058594 C 119.699219 68.058594 120.550781 67.441406 120.9375 67.132812 C 121.324219 66.820312 122.175781 66.125 122.175781 66.125 C 122.175781 66.125 123.105469 65.738281 123.570312 65.503906 C 124.035156 65.273438 124.34375 65.117188 125.039062 64.808594 C 126.511719 64.191406 129.375 62.953125 132.160156 62.101562 C 135.796875 60.863281 140.285156 59.546875 145.164062 58.617188 C 151.046875 57.457031 164.898438 55.910156 164.976562 55.910156 C 164.976562 55.832031 165.90625 55.367188 166.371094 55.058594 C 166.835938 54.824219 167.6875 54.28125 167.761719 54.28125 C 167.761719 54.28125 168.769531 53.972656 169.3125 53.820312 C 169.777344 53.664062 170.78125 53.355469 170.78125 53.355469 C 170.859375 53.355469 171.867188 53.277344 172.40625 53.277344 C 172.949219 53.277344 174.03125 53.199219 174.03125 53.199219 C 174.03125 53.199219 175.039062 53.429688 175.582031 53.507812 C 176.121094 53.664062 177.128906 53.820312 177.128906 53.820312 C 177.207031 53.820312 178.136719 54.28125 178.597656 54.515625 C 179.0625 54.746094 180.070312 55.210938 180.070312 55.210938 C 180.070312 55.210938 180.921875 55.910156 181.308594 56.21875 C 181.695312 56.527344 182.546875 57.222656 182.546875 57.222656 C 182.546875 57.222656 183.164062 58.074219 183.550781 58.460938 C 183.863281 58.925781 184.480469 59.777344 184.480469 59.777344 C 184.480469 59.777344 184.480469 60.011719 184.558594 60.011719 C 184.792969 60.085938 185.566406 59.3125 185.796875 58.925781 C 186.03125 58.617188 186.105469 58.308594 186.261719 57.921875 C 186.417969 57.457031 186.726562 56.992188 186.957031 56.449219 C 187.191406 55.984375 187.65625 55.058594 187.65625 55.058594 C 187.65625 55.058594 188.351562 54.28125 188.660156 53.820312 C 188.96875 53.429688 189.667969 52.65625 189.667969 52.65625 C 189.667969 52.65625 190.519531 52.039062 190.90625 51.730469 C 191.371094 51.417969 192.222656 50.800781 192.222656 50.800781 C 192.222656 50.800781 193.148438 50.414062 193.691406 50.179688 C 194.15625 49.949219 195.085938 49.5625 195.164062 49.5625 C 195.164062 49.5625 196.167969 49.40625 196.710938 49.328125 C 197.175781 49.253906 198.257812 49.097656 198.257812 49.097656 C 198.257812 49.097656 199.265625 49.175781 199.804688 49.253906 C 200.347656 49.328125 201.355469 49.40625 201.355469 49.40625 C 201.433594 49.40625 201.433594 49.40625 201.433594 49.40625 C 201.433594 49.40625 201.742188 49.640625 202.207031 49.714844 C 204.0625 49.792969 212.421875 44.453125 217.066406 45.769531 C 222.714844 47.394531 230.457031 57.300781 232.625 62.332031 C 234.015625 65.429688 233.011719 70.921875 233.242188 71.078125 C 233.320312 71.078125 233.320312 71.078125 233.320312 71.078125 C 233.320312 71.078125 234.324219 70.921875 234.867188 70.847656 C 235.410156 70.769531 236.414062 70.691406 236.414062 70.691406 C 236.414062 70.691406 237.421875 70.769531 237.964844 70.847656 C 238.503906 70.847656 239.511719 71 239.511719 71 C 239.511719 71 240.441406 71.3125 240.980469 71.542969 C 241.445312 71.699219 242.375 72.085938 242.453125 72.085938 C 242.453125 72.085938 243.304688 72.625 243.691406 72.9375 C 244.15625 73.246094 245.007812 73.789062 245.007812 73.789062 C 245.007812 73.789062 245.238281 74.25 245.394531 74.25 C 245.703125 74.328125 246.324219 73.789062 246.789062 73.554688 C 247.175781 73.324219 248.101562 72.859375 248.101562 72.859375 C 248.179688 72.859375 249.109375 72.625 249.652344 72.472656 C 250.117188 72.394531 251.121094 72.160156 251.121094 72.160156 C 251.121094 72.160156 252.128906 72.160156 252.667969 72.160156 C 253.210938 72.160156 254.21875 72.160156 254.21875 72.160156 C 254.21875 72.160156 255.222656 72.394531 255.6875 72.550781 C 256.230469 72.703125 257.160156 72.9375 257.234375 72.9375 C 257.234375 72.9375 258.085938 73.402344 258.550781 73.632812 C 259.015625 73.863281 259.945312 74.40625 259.945312 74.40625 C 259.945312 74.40625 260.71875 75.101562 261.105469 75.414062 C 261.492188 75.722656 262.1875 76.417969 262.1875 76.417969 C 262.265625 76.496094 262.808594 77.269531 263.117188 77.734375 C 263.351562 78.121094 263.96875 78.972656 263.96875 78.972656 C 263.96875 79.050781 264.277344 79.980469 264.511719 80.445312 C 264.667969 80.90625 265.054688 81.835938 265.054688 81.914062 C 265.054688 81.914062 265.128906 82.921875 265.207031 83.386719 C 265.285156 83.925781 265.363281 84.933594 265.363281 84.933594 C 265.363281 85.011719 265.285156 85.9375 265.207031 86.480469 C 265.128906 87.023438 264.976562 88.027344 264.976562 88.027344 C 264.976562 88.027344 264.589844 88.957031 264.433594 89.421875 C 264.277344 89.964844 263.890625 90.890625 263.890625 90.890625 C 263.816406 90.96875 261.957031 102.503906 260.796875 108.308594 C 259.636719 114.113281 258.011719 121.078125 256.925781 125.722656 C 256.308594 128.742188 255.300781 133.308594 255.300781 133.308594 C 255.222656 133.308594 254.914062 134.3125 254.683594 134.777344 C 254.527344 135.242188 254.140625 136.246094 254.140625 136.246094 C 254.140625 136.246094 253.519531 137.097656 253.210938 137.484375 C 252.902344 137.949219 252.359375 138.800781 252.28125 138.800781 C 252.28125 138.800781 251.507812 139.5 251.121094 139.808594 C 250.734375 140.195312 249.960938 140.8125 249.960938 140.8125 C 249.960938 140.890625 249.1875 140.96875 248.800781 141.433594 C 247.484375 143.058594 246.167969 152.734375 245.316406 156.292969 C 244.773438 158.304688 244.464844 159.855469 244.15625 160.9375 C 243.921875 161.558594 243.769531 161.945312 243.613281 162.410156 C 243.460938 162.871094 243.148438 163.800781 243.148438 163.878906 C 243.148438 163.878906 242.609375 164.730469 242.296875 165.117188 C 241.988281 165.582031 241.445312 166.433594 241.445312 166.433594 C 241.445312 166.433594 240.75 167.128906 240.363281 167.515625 C 239.976562 167.902344 239.28125 168.601562 239.203125 168.601562 C 239.203125 168.601562 238.351562 169.066406 237.886719 169.375 C 237.421875 169.605469 236.570312 170.070312 236.570312 170.070312 C 236.492188 170.070312 235.5625 170.378906 235.023438 170.535156 C 234.558594 170.691406 233.628906 170.921875 233.550781 170.921875 C 233.550781 170.921875 232.546875 171 232.003906 171 C 231.539062 171 230.535156 171.078125 230.457031 171.078125 C 230.457031 171.078125 229.449219 170.84375 228.984375 170.691406 C 228.445312 170.613281 227.515625 170.378906 227.4375 170.378906 C 227.4375 170.378906 226.585938 169.992188 226.121094 169.761719 C 225.65625 169.527344 224.730469 169.066406 224.730469 169.066406 C 224.652344 169.066406 223.878906 168.367188 223.492188 168.058594 C 223.179688 167.828125 222.871094 167.207031 222.5625 167.285156 C 222.175781 167.363281 222.097656 168.367188 221.476562 169.066406 C 220.164062 170.765625 214.976562 174.945312 214.046875 176.417969 C 213.738281 176.960938 213.429688 177.5 213.660156 177.734375 C 213.816406 177.964844 214.667969 177.734375 215.207031 177.734375 C 215.671875 177.734375 216.757812 177.8125 216.757812 177.8125 C 216.757812 177.8125 217.761719 178.042969 218.226562 178.199219 C 218.769531 178.351562 219.773438 178.585938 219.773438 178.585938 C 219.773438 178.664062 220.703125 179.125 221.167969 179.359375 C 221.632812 179.667969 222.484375 180.132812 222.5625 180.132812 C 222.5625 180.132812 223.335938 180.828125 223.722656 181.214844 C 224.109375 181.601562 224.804688 182.300781 224.804688 182.300781 C 224.882812 182.300781 225.425781 183.152344 225.734375 183.617188 C 225.96875 183.925781 226.042969 184.542969 226.355469 184.621094 C 226.664062 184.777344 227.128906 184.46875 227.515625 184.390625 C 227.980469 184.234375 228.984375 184.003906 228.984375 184.003906 C 228.984375 184.003906 229.992188 184.078125 230.457031 184.078125 C 230.996094 184.078125 232.003906 184.078125 232.003906 184.078125 C 232.003906 184.078125 232.933594 184.3125 233.476562 184.46875 C 233.9375 184.621094 234.867188 184.855469 234.945312 184.855469 C 234.945312 184.855469 235.796875 185.320312 236.261719 185.550781 C 236.648438 185.78125 237.5 186.324219 237.578125 186.324219 C 237.578125 186.324219 238.273438 186.945312 238.660156 187.332031 C 239.046875 187.640625 239.742188 188.335938 239.742188 188.335938 C 239.820312 188.335938 240.363281 189.1875 240.59375 189.574219 C 240.90625 190.039062 241.445312 190.8125 241.445312 190.8125 C 241.445312 190.890625 241.757812 191.820312 241.988281 192.285156 C 242.144531 192.75 242.453125 193.675781 242.453125 193.675781 C 242.453125 193.675781 242.609375 194.914062 242.609375 195.148438 C 242.609375 195.304688 242.609375 195.378906 242.683594 195.457031 C 242.761719 195.535156 243.382812 195.304688 243.769531 195.304688 C 244.15625 195.226562 245.160156 195.070312 245.160156 195.070312 C 245.160156 195.070312 246.167969 195.148438 246.632812 195.226562 C 247.097656 195.304688 248.101562 195.378906 248.101562 195.378906 C 248.101562 195.378906 249.03125 195.765625 249.417969 195.921875 C 249.882812 196.078125 250.8125 196.386719 250.8125 196.386719 C 250.8125 196.386719 251.664062 196.929688 252.050781 197.238281 C 252.4375 197.46875 253.210938 198.011719 253.289062 198.011719 C 253.289062 198.011719 253.90625 198.785156 254.21875 199.09375 C 254.605469 199.480469 255.222656 200.179688 255.222656 200.179688 C 255.222656 200.179688 255.6875 201.03125 255.921875 201.496094 C 256.152344 201.882812 256.617188 202.734375 256.617188 202.734375 C 256.617188 202.808594 256.847656 203.738281 257.003906 204.203125 C 257.082031 204.667969 257.3125 205.597656 257.3125 205.597656 C 257.3125 205.597656 257.390625 206.601562 257.390625 207.066406 C 257.390625 207.53125 257.3125 208.226562 257.390625 208.304688 C 257.390625 208.382812 257.46875 208.304688 257.46875 208.304688 C 257.546875 208.304688 258.472656 208.304688 258.9375 208.304688 C 259.402344 208.382812 260.332031 208.382812 260.332031 208.382812 C 260.332031 208.382812 261.261719 208.617188 261.726562 208.691406 C 262.1875 208.847656 263.039062 209.078125 263.039062 209.078125 C 263.117188 209.078125 263.117188 209.078125 263.117188 209.078125 C 263.117188 209.078125 263.890625 209.542969 264.355469 209.777344 C 264.742188 210.007812 265.515625 210.472656 265.59375 210.472656 C 265.59375 210.472656 266.292969 211.09375 266.601562 211.402344 C 266.988281 211.710938 267.683594 212.332031 267.683594 212.40625 C 267.683594 212.40625 268.226562 213.183594 268.457031 213.570312 C 268.691406 213.957031 269.234375 214.730469 269.234375 214.730469 C 269.234375 214.730469 269.542969 215.660156 269.695312 216.046875 C 269.851562 216.511719 270.160156 217.4375 270.160156 217.4375 C 270.238281 217.4375 270.316406 218.523438 270.316406 218.832031 C 270.394531 218.988281 270.316406 219.140625 270.394531 219.140625 C 270.472656 219.21875 270.703125 218.832031 270.703125 218.832031 C 270.703125 218.832031 271.554688 218.367188 272.019531 218.136719 C 272.40625 217.902344 273.257812 217.4375 273.257812 217.4375 C 273.335938 217.363281 274.1875 217.128906 274.726562 216.972656 C 275.191406 216.898438 276.121094 216.585938 276.121094 216.585938 C 276.121094 216.585938 277.050781 216.585938 277.589844 216.585938 C 278.054688 216.511719 278.984375 216.511719 279.0625 216.511719 C 279.0625 216.511719 279.992188 216.742188 280.457031 216.820312 C 280.917969 216.898438 281.925781 217.128906 281.925781 217.128906 C 281.925781 217.128906 282.777344 217.515625 283.242188 217.75 C 283.707031 217.980469 284.558594 218.367188 284.558594 218.367188 C 284.558594 218.445312 285.332031 219.0625 285.71875 219.375 C 286.027344 219.683594 286.800781 220.226562 286.800781 220.300781 C 286.800781 220.300781 287.421875 221.078125 287.652344 221.464844 C 287.964844 221.851562 288.582031 222.625 288.582031 222.625 C 288.582031 222.625 288.96875 223.554688 289.125 224.019531 C 289.277344 224.40625 289.664062 225.332031 289.664062 225.332031 C 289.664062 225.332031 289.820312 226.417969 289.898438 226.804688 C 289.976562 226.957031 289.898438 227.113281 289.976562 227.269531 C 290.054688 227.421875 290.363281 227.5 290.59375 227.65625 C 290.980469 227.886719 291.832031 228.429688 291.832031 228.429688 C 291.832031 228.429688 292.453125 229.125 292.761719 229.511719 C 293.148438 229.824219 293.769531 230.519531 293.769531 230.519531 C 293.769531 230.519531 294.230469 231.371094 294.464844 231.757812 C 294.695312 232.222656 295.160156 232.996094 295.160156 233.074219 C 295.160156 233.074219 295.394531 234.003906 295.546875 234.390625 C 295.703125 234.851562 295.933594 235.78125 295.933594 235.78125 C 295.933594 235.859375 295.933594 236.789062 295.933594 237.253906 C 295.933594 237.71875 296.011719 238.644531 296.011719 238.644531 C 296.011719 238.722656 295.78125 239.574219 295.703125 240.039062 C 295.546875 240.582031 295.394531 241.433594 295.394531 241.507812 C 295.394531 241.507812 294.929688 242.359375 294.695312 242.746094 C 294.542969 243.210938 294.078125 244.0625 294.078125 244.0625 C 294.078125 244.0625 293.457031 244.761719 293.148438 245.148438 C 292.839844 245.535156 292.296875 246.230469 292.21875 246.230469 C 292.21875 246.308594 291.136719 261.324219 290.207031 264.03125 C 289.898438 264.960938 289.203125 265.734375 289.277344 265.734375 C 289.355469 265.8125 290.828125 265.890625 290.828125 265.890625 C 290.828125 265.890625 291.832031 266.199219 292.375 266.355469 C 292.839844 266.507812 293.84375 266.820312 293.84375 266.820312 C 293.84375 266.820312 294.773438 267.359375 295.238281 267.59375 C 295.703125 267.902344 296.554688 268.445312 296.554688 268.445312 C 296.554688 268.445312 297.328125 269.21875 297.714844 269.527344 C 298.101562 269.914062 298.800781 270.6875 298.800781 270.6875 C 298.800781 270.6875 299.339844 271.539062 299.648438 272.003906 C 299.882812 272.46875 300.425781 273.398438 300.425781 273.398438 C 300.425781 273.398438 300.734375 274.402344 300.886719 274.867188 C 301.042969 275.410156 301.351562 276.417969 301.351562 276.417969 C 301.429688 276.417969 301.429688 277.421875 301.507812 277.964844 C 301.507812 278.507812 301.585938 279.511719 301.585938 279.589844 C 301.585938 279.589844 301.429688 280.597656 301.277344 281.136719 C 301.199219 281.601562 301.042969 282.6875 301.042969 282.6875 C 301.042969 282.6875 300.578125 283.613281 300.347656 284.078125 C 300.113281 284.621094 299.726562 285.550781 299.726562 285.550781 C 299.726562 285.550781 299.417969 285.78125 299.261719 286.167969 C 298.722656 287.484375 299.574219 294.449219 298.257812 296.695312 C 297.328125 298.164062 294.464844 298.9375 294.15625 299.328125 C 294.15625 299.328125 294.078125 299.402344 294.078125 299.402344 C 294.078125 299.480469 294.078125 299.558594 294.078125 299.558594 C 294.078125 299.558594 293.535156 300.410156 293.226562 300.875 C 292.917969 301.339844 292.375 302.191406 292.375 302.265625 C 292.375 302.265625 292.21875 302.34375 292.144531 302.421875 C 292.066406 302.5 292.066406 302.578125 291.988281 302.65625 C 291.910156 302.730469 291.679688 302.964844 291.523438 303.042969 C 291.367188 303.117188 291.367188 303.195312 291.214844 303.351562 C 290.980469 303.582031 290.054688 304.433594 290.054688 304.433594 C 290.054688 304.433594 289.355469 304.746094 289.125 304.976562 C 288.96875 305.054688 288.816406 305.207031 288.660156 305.285156 C 288.503906 305.441406 288.273438 305.441406 288.117188 305.519531 C 287.886719 305.671875 287.265625 305.984375 287.265625 305.984375 C 287.265625 305.984375 286.105469 306.292969 285.71875 306.445312 C 285.488281 306.523438 285.410156 306.523438 285.175781 306.601562 C 285.023438 306.601562 284.789062 306.757812 284.636719 306.757812 C 284.558594 306.832031 284.480469 306.757812 284.402344 306.757812 C 284.324219 306.832031 284.171875 306.832031 284.171875 306.832031 C 284.171875 306.832031 282.855469 306.910156 282.546875 306.910156 C 282.46875 306.910156 282.390625 306.910156 282.390625 306.910156 C 282.390625 306.910156 280.996094 306.988281 280.996094 306.988281 C 280.996094 306.988281 280.6875 306.910156 280.609375 306.910156 C 280.53125 306.832031 280.457031 306.910156 280.300781 306.910156 C 280.144531 306.832031 279.835938 306.757812 279.679688 306.679688 C 279.527344 306.679688 279.527344 306.679688 279.449219 306.601562 C 279.140625 306.523438 277.902344 306.292969 277.824219 306.292969 C 277.824219 306.292969 277.824219 306.214844 277.746094 306.214844 C 277.667969 306.214844 277.359375 306.371094 277.28125 306.371094 C 277.28125 306.371094 276.277344 306.292969 275.734375 306.292969 C 275.269531 306.292969 274.261719 306.214844 274.1875 306.214844 C 274.1875 306.214844 273.179688 305.984375 272.714844 305.828125 C 272.25 305.671875 271.246094 305.363281 271.246094 305.363281 C 271.167969 305.363281 270.316406 304.898438 269.851562 304.589844 C 269.464844 304.355469 268.535156 303.894531 268.535156 303.894531 C 268.535156 303.816406 267.761719 303.117188 267.375 302.808594 C 267.144531 302.578125 266.910156 302.113281 266.679688 302.113281 C 266.523438 302.113281 266.367188 302.421875 266.367188 302.421875 C 266.292969 302.421875 265.515625 302.886719 265.054688 303.117188 C 264.589844 303.351562 263.816406 303.738281 263.738281 303.738281 C 263.738281 303.816406 262.808594 303.96875 262.34375 304.125 C 261.878906 304.203125 260.949219 304.433594 260.949219 304.433594 C 260.949219 304.433594 260.023438 304.433594 259.480469 304.433594 C 259.015625 304.433594 258.085938 304.433594 258.085938 304.433594 C 258.011719 304.433594 257.160156 304.203125 256.617188 304.125 C 256.152344 303.96875 255.300781 303.816406 255.222656 303.816406 C 255.222656 303.738281 255.222656 303.738281 255.222656 303.738281 C 255.222656 303.738281 254.605469 303.273438 254.292969 303.273438 C 254.0625 303.273438 253.90625 303.429688 253.675781 303.582031 C 253.289062 303.738281 252.359375 304.125 252.359375 304.125 C 252.28125 304.125 251.355469 304.28125 250.890625 304.355469 C 250.425781 304.433594 249.496094 304.589844 249.496094 304.589844 C 249.417969 304.589844 248.488281 304.511719 248.027344 304.433594 C 247.5625 304.433594 246.632812 304.355469 246.554688 304.355469 C 246.554688 304.355469 245.703125 304.046875 245.238281 303.894531 C 244.773438 303.738281 243.847656 303.429688 243.847656 303.429688 C 243.847656 303.429688 242.996094 302.886719 242.609375 302.65625 C 242.21875 302.421875 241.445312 301.878906 241.371094 301.878906 C 241.371094 301.878906 240.75 301.183594 240.363281 300.796875 C 240.054688 300.488281 239.433594 299.789062 239.433594 299.789062 C 239.355469 299.789062 238.816406 298.785156 238.660156 298.550781 C 238.582031 298.398438 238.582031 298.164062 238.503906 298.164062 C 237.652344 298.164062 232.390625 306.910156 228.675781 310.625 C 224.960938 314.417969 220.703125 320.457031 216.214844 320.84375 C 211.492188 321.230469 202.824219 316.042969 200.96875 312.25 C 199.417969 309.234375 203.210938 301.570312 202.515625 301.261719 C 201.972656 301.105469 200.191406 304.589844 198.644531 306.910156 C 196.246094 310.472656 190.984375 318.597656 189.589844 320.535156 C 189.125 321.074219 188.96875 321.230469 188.738281 321.539062 C 188.429688 321.847656 187.886719 322.546875 187.886719 322.546875 C 187.886719 322.546875 187.113281 323.011719 186.804688 323.320312 C 186.417969 323.550781 185.71875 324.09375 185.71875 324.09375 C 185.71875 324.09375 184.945312 324.402344 184.480469 324.558594 C 184.09375 324.714844 183.320312 325.023438 183.320312 325.023438 C 183.242188 325.023438 182.390625 325.175781 182.003906 325.253906 C 181.539062 325.253906 180.6875 325.410156 180.6875 325.410156 C 180.6875 325.410156 179.835938 325.332031 179.375 325.253906 C 178.910156 325.253906 178.058594 325.175781 178.058594 325.175781 C 178.058594 325.175781 177.285156 324.867188 176.820312 324.714844 C 176.433594 324.558594 175.582031 324.25 175.582031 324.25 C 175.582031 324.25 174.882812 323.785156 174.496094 323.550781 C 174.109375 323.320312 173.414062 322.855469 173.414062 322.855469 C 173.414062 322.777344 172.792969 322.160156 172.484375 321.847656 C 172.253906 321.539062 171.632812 320.921875 171.632812 320.921875 C 171.632812 320.84375 171.167969 320.144531 171.015625 319.757812 C 170.78125 319.371094 170.394531 318.597656 170.316406 318.597656 C 170.316406 318.597656 170.164062 317.746094 170.007812 317.28125 C 169.929688 316.894531 169.699219 316.042969 169.699219 316.042969 C 169.699219 316.042969 169.621094 315.191406 169.621094 314.730469 C 169.621094 314.265625 169.621094 313.414062 169.621094 313.414062 C 169.621094 313.414062 169.777344 312.5625 169.929688 312.175781 C 170.007812 311.710938 170.164062 310.859375 170.164062 310.859375 C 170.238281 310.859375 170.628906 310.085938 170.78125 309.699219 C 171.015625 309.3125 171.324219 308.535156 171.402344 308.535156 C 171.402344 308.460938 175.269531 300.566406 173.800781 298.628906 C 171.632812 295.84375 159.015625 299.09375 153.210938 298.707031 C 148.878906 298.398438 145.703125 296.847656 141.914062 297.082031 C 138.121094 297.3125 132.933594 299.945312 130.535156 300.332031 C 129.453125 300.488281 128.675781 300.175781 128.136719 300.410156 C 127.824219 300.566406 127.824219 300.953125 127.515625 301.183594 C 126.898438 301.492188 125.273438 301.261719 124.882812 301.648438 C 124.574219 301.878906 124.652344 302.65625 124.652344 302.65625 C 124.574219 302.65625 124.574219 302.035156 124.496094 302.035156 C 124.421875 302.035156 124.34375 302.5 124.1875 302.808594 C 124.035156 303.195312 123.570312 304.355469 123.570312 304.355469 C 123.570312 304.355469 122.871094 305.285156 122.5625 305.75 C 122.175781 306.136719 121.554688 307.066406 121.554688 307.066406 C 121.554688 307.066406 120.628906 307.839844 120.242188 308.148438 C 119.777344 308.535156 118.925781 309.234375 118.925781 309.234375 C 118.925781 309.234375 117.917969 309.773438 117.378906 310.007812 C 116.914062 310.238281 115.90625 310.703125 115.828125 310.703125 C 115.828125 310.703125 114.746094 310.9375 114.203125 311.089844 C 113.660156 311.167969 112.578125 311.402344 112.5 311.402344 C 112.5 311.402344 111.417969 311.402344 110.875 311.402344 C 110.257812 311.324219 109.171875 311.324219 109.171875 311.324219 C 109.09375 311.324219 108.011719 311.011719 107.46875 310.859375 C 106.929688 310.703125 105.921875 310.394531 105.84375 310.394531 C 105.84375 310.394531 104.914062 309.851562 104.375 309.542969 C 103.910156 309.3125 102.902344 308.769531 102.902344 308.691406 C 102.902344 308.691406 102.128906 307.917969 101.664062 307.53125 C 101.277344 307.144531 100.890625 306.832031 100.425781 306.371094 C 99.886719 305.828125 98.648438 304.746094 98.492188 304.589844 C 98.492188 304.589844 98.492188 304.511719 98.492188 304.511719 C 98.027344 304.355469 87.734375 304.433594 87.734375 304.433594 C 87.65625 304.433594 86.574219 304.355469 86.03125 304.28125 C 85.488281 304.203125 84.328125 304.046875 84.328125 304.046875 C 84.328125 304.046875 83.246094 303.660156 82.78125 303.503906 C 82.238281 303.273438 81.15625 302.886719 81.15625 302.886719 C 81.15625 302.886719 80.226562 302.265625 79.761719 301.957031 C 79.296875 301.648438 78.367188 301.027344 78.367188 300.953125 C 78.367188 300.953125 77.59375 300.101562 77.207031 299.714844 C 76.898438 299.328125 76.125 298.476562 76.125 298.476562 C 76.125 298.476562 75.582031 297.46875 75.351562 296.925781 C 75.039062 296.460938 74.5 295.457031 74.5 295.457031 C 74.5 295.457031 74.265625 294.371094 74.113281 293.832031 C 73.957031 293.289062 73.722656 292.207031 73.722656 292.207031 C 73.722656 292.128906 73.648438 291.042969 73.648438 290.503906 C 73.648438 289.882812 73.648438 288.800781 73.648438 288.800781 C 73.648438 288.800781 73.957031 287.714844 74.035156 287.175781 C 74.1875 286.632812 74.5 285.550781 74.5 285.472656 C 74.5 285.472656 74.886719 284.929688 74.886719 284.777344 C 74.886719 284.621094 74.652344 284.3125 74.574219 284.3125 C 74.574219 284.3125 74.265625 283.226562 74.113281 282.6875 C 73.957031 282.144531 73.648438 281.058594 73.648438 281.058594 C 73.648438 281.058594 73.648438 279.898438 73.570312 279.359375 C 73.570312 278.738281 73.492188 277.65625 73.492188 277.65625 M 282.3125 306.910156 C 282.390625 306.910156 282.390625 306.910156 282.390625 306.910156 C 282.390625 306.910156 282.3125 306.910156 282.3125 306.910156 "/></clipPath><clipPath id="a260d4b3f4"><path d="M 51.722656 44.195312 L 323.695312 44.195312 L 323.695312 303.023438 L 51.722656 303.023438 Z M 51.722656 44.195312 "/></clipPath><clipPath id="aa90587b3e"><path d="M 187.5 44.195312 L 219.554688 143.058594 L 323.277344 143.058594 L 239.363281 204.160156 L 271.417969 303.023438 L 187.5 241.925781 L 103.582031 303.023438 L 135.636719 204.160156 L 51.722656 143.058594 L 155.445312 143.058594 Z M 187.5 44.195312 "/></clipPath></defs><g id="54862f4269"><g clip-rule="nonzero" clip-path="url(#938a82210e)"><path style=" stroke:none;fill-rule:nonzero;fill:#fed93f;fill-opacity:1;" d="M 187.367188 14.832031 C 88.144531 14.832031 7.414062 95.558594 7.414062 194.78125 C 7.414062 294.007812 88.144531 374.734375 187.367188 374.734375 C 286.589844 374.734375 367.320312 294.007812 367.320312 194.78125 C 367.320312 95.558594 286.589844 14.832031 187.367188 14.832031 Z M 187.367188 61.777344 C 217.566406 61.777344 242.136719 86.34375 242.136719 116.542969 C 242.136719 146.742188 217.566406 171.3125 187.367188 171.3125 C 157.167969 171.3125 132.597656 146.742188 132.597656 116.542969 C 132.597656 86.34375 157.167969 61.777344 187.367188 61.777344 Z M 281.253906 296.496094 L 93.480469 296.496094 C 89.160156 296.496094 85.65625 292.988281 85.65625 288.671875 C 85.65625 232.589844 131.285156 186.960938 187.367188 186.960938 C 243.449219 186.960938 289.078125 232.589844 289.078125 288.671875 C 289.078125 292.988281 285.574219 296.496094 281.253906 296.496094 Z M 281.253906 296.496094 "/></g><g clip-rule="nonzero" clip-path="url(#7c4c09738d)"><g clip-rule="nonzero" clip-path="url(#269348901d)"><path style=" stroke:none;fill-rule:nonzero;fill:#fed93f;fill-opacity:1;" d="M 70.394531 42.671875 L 304.53125 42.671875 L 304.53125 328.582031 L 70.394531 328.582031 Z M 70.394531 42.671875 "/></g></g><g clip-rule="nonzero" clip-path="url(#a260d4b3f4)"><g clip-rule="nonzero" clip-path="url(#aa90587b3e)"><path style=" stroke:none;fill-rule:nonzero;fill:#f7efe2;fill-opacity:1;" d="M 51.722656 44.195312 L 323.695312 44.195312 L 323.695312 303.023438 L 51.722656 303.023438 Z M 51.722656 44.195312 "/></g></g></g></svg>