<svg xmlns="http://www.w3.org/2000/svg" xmlns:xlink="http://www.w3.org/1999/xlink" width="500" zoomAndPan="magnify" viewBox="0 0 375 374.999991" height="500" preserveAspectRatio="xMidYMid meet" version="1.2"><defs><clipPath id="e1dcb9c1e2"><path d="M 51 272 L 136 272 L 136 374.714844 L 51 374.714844 Z M 51 272 "/></clipPath><clipPath id="0fd3872e59"><path d="M 25.003906 154 L 137 154 L 137 251 L 25.003906 251 Z M 25.003906 154 "/></clipPath><clipPath id="92437ed832"><path d="M 25.003906 211 L 96 211 L 96 251 L 25.003906 251 Z M 25.003906 211 "/></clipPath><clipPath id="1bd9d325ae"><path d="M 25.003906 183 L 120 183 L 120 251 L 25.003906 251 Z M 25.003906 183 "/></clipPath></defs><g id="a04ba00487"><g clip-rule="nonzero" clip-path="url(#e1dcb9c1e2)"><path style=" stroke:none;fill-rule:nonzero;fill:#fbcb41;fill-opacity:1;" d="M 133.089844 290.679688 L 119.96875 281.632812 L 106.847656 272.601562 C 106.847656 272.601562 68.140625 276.191406 57.042969 301.304688 C 45.960938 326.417969 55.757812 374.84375 55.757812 374.84375 C 55.757812 374.84375 104.511719 366.753906 124.027344 347.441406 C 143.53125 328.128906 133.089844 290.679688 133.089844 290.679688 "/></g><path style=" stroke:none;fill-rule:nonzero;fill:#f1982b;fill-opacity:1;" d="M 130.113281 288.625 L 119.96875 281.632812 L 109.824219 274.65625 C 109.824219 274.65625 79.929688 277.429688 71.355469 296.839844 C 62.796875 316.230469 70.367188 353.648438 70.367188 353.648438 C 70.367188 353.648438 108.039062 347.394531 123.105469 332.46875 C 138.167969 317.5625 130.113281 288.625 130.113281 288.625 "/><path style=" stroke:none;fill-rule:nonzero;fill:#88b9d2;fill-opacity:1;" d="M 87.359375 272.085938 L 140.535156 308.703125 L 152.59375 291.195312 L 99.417969 254.574219 L 87.359375 272.085938 "/><path style=" stroke:none;fill-rule:nonzero;fill:#f2f1f9;fill-opacity:1;" d="M 303.574219 19.746094 C 201.222656 9.519531 85.902344 228.769531 85.902344 228.769531 L 185.84375 297.601562 C 185.84375 297.601562 349.617188 111.730469 303.574219 19.746094 "/><path style=" stroke:none;fill-rule:nonzero;fill:#f1487a;fill-opacity:1;" d="M 262.894531 78.800781 C 277.410156 88.800781 292.335938 96.1875 306.285156 100.761719 C 314.328125 71.621094 315.363281 43.296875 303.574219 19.746094 C 277.378906 17.128906 251.261719 28.183594 226.914062 46.085938 C 236.164062 57.480469 248.375 68.800781 262.894531 78.800781 "/><path style=" stroke:none;fill-rule:nonzero;fill:#f1487a;fill-opacity:1;" d="M 177.25 314.160156 L 73.503906 242.695312 L 87.878906 221.828125 L 191.628906 293.296875 L 177.25 314.160156 "/><path style=" stroke:none;fill-rule:nonzero;fill:#88b9d2;fill-opacity:1;" d="M 202.804688 104.496094 C 192.691406 119.183594 196.394531 139.277344 211.082031 149.390625 C 225.753906 159.515625 245.851562 155.800781 255.980469 141.128906 C 266.089844 126.441406 262.390625 106.34375 247.703125 96.234375 C 233.015625 86.121094 212.917969 89.820312 202.804688 104.496094 "/><path style=" stroke:none;fill-rule:nonzero;fill:#83d7f6;fill-opacity:1;" d="M 247.890625 135.5625 C 240.851562 145.785156 226.867188 148.355469 216.632812 141.316406 C 206.410156 134.277344 203.839844 120.28125 210.878906 110.058594 C 217.917969 99.839844 231.917969 97.269531 242.136719 104.304688 C 252.359375 111.34375 254.945312 125.34375 247.890625 135.5625 "/><path style=" stroke:none;fill-rule:nonzero;fill:#c0bce4;fill-opacity:1;" d="M 190.324219 292.386719 L 89.195312 222.722656 C 90.589844 220.183594 92.425781 216.90625 94.652344 213.019531 C 136.554688 209.054688 178.378906 183.078125 214.71875 151.570312 C 219.359375 153.953125 224.375 155.097656 229.359375 155.097656 C 239.628906 155.097656 249.710938 150.222656 255.980469 141.128906 C 262.800781 131.222656 263.332031 118.851562 258.457031 108.742188 C 265.027344 101.578125 271.234375 94.492188 277.019531 87.644531 C 286.503906 93.019531 295.988281 97.269531 305.0625 100.355469 C 292.632812 144.089844 264.804688 191.121094 239.175781 228.273438 C 237.683594 226.296875 236.023438 224.320312 234.1875 222.378906 L 198.492188 274.203125 C 198.492188 274.203125 199.589844 276.113281 200.71875 279.765625 C 196.425781 285.097656 192.882812 289.359375 190.324219 292.386719 "/><path style=" stroke:none;fill-rule:nonzero;fill:#c7407a;fill-opacity:1;" d="M 305.0625 100.355469 C 295.988281 97.269531 286.503906 93.019531 277.019531 87.644531 C 291.035156 71.074219 302.601562 55.882812 310.910156 44.441406 C 313.152344 61.605469 310.660156 80.636719 305.0625 100.355469 "/><path style=" stroke:none;fill-rule:nonzero;fill:#c7407a;fill-opacity:1;" d="M 185.84375 297.605469 L 85.902344 228.773438 C 85.902344 228.773438 87.046875 226.609375 89.195312 222.722656 L 190.324219 292.386719 C 187.457031 295.773438 185.84375 297.605469 185.84375 297.605469 "/><path style=" stroke:none;fill-rule:nonzero;fill:#7098c4;fill-opacity:1;" d="M 229.359375 155.097656 C 224.375 155.097656 219.359375 153.953125 214.71875 151.570312 C 217.460938 149.1875 220.175781 146.757812 222.871094 144.328125 C 224.988281 144.96875 227.183594 145.28125 229.359375 145.28125 C 236.507812 145.28125 243.53125 141.898438 247.890625 135.5625 C 251.839844 129.828125 252.765625 122.914062 251.011719 116.691406 C 253.535156 114.039062 256.011719 111.375 258.457031 108.742188 C 263.332031 118.851562 262.800781 131.222656 255.980469 141.128906 C 249.710938 150.222656 239.628906 155.097656 229.359375 155.097656 "/><path style=" stroke:none;fill-rule:nonzero;fill:#6cafe3;fill-opacity:1;" d="M 229.359375 145.28125 C 227.183594 145.28125 224.988281 144.96875 222.871094 144.328125 C 232.746094 135.328125 242.167969 126 251.011719 116.691406 C 252.765625 122.914062 251.839844 129.828125 247.890625 135.5625 C 243.53125 141.898438 236.507812 145.28125 229.359375 145.28125 "/><g clip-rule="nonzero" clip-path="url(#0fd3872e59)"><path style=" stroke:none;fill-rule:nonzero;fill:#f1487a;fill-opacity:1;" d="M 136.007812 159.703125 L 100.292969 211.53125 C 100.292969 211.53125 68.1875 206.277344 34.640625 250.640625 L 25.21875 244.152344 C 25.21875 244.152344 64.128906 130.046875 136.007812 159.703125 "/></g><path style=" stroke:none;fill-rule:nonzero;fill:#f1487a;fill-opacity:1;" d="M 234.1875 222.378906 L 198.492188 274.203125 C 198.492188 274.203125 214.828125 302.324219 185.324219 349.476562 L 194.746094 355.96875 C 194.746094 355.96875 287.507812 278.953125 234.1875 222.378906 "/><path style=" stroke:none;fill-rule:nonzero;fill:#c7407a;fill-opacity:1;" d="M 192.722656 354.574219 L 185.324219 349.476562 C 199.324219 327.09375 203.007812 309.003906 202.992188 296.164062 C 202.992188 289.015625 201.847656 283.484375 200.71875 279.765625 C 199.589844 276.113281 198.492188 274.203125 198.492188 274.203125 L 220.285156 242.566406 C 242.261719 290.003906 209.324219 335.777344 192.722656 354.574219 "/><g clip-rule="nonzero" clip-path="url(#92437ed832)"><path style=" stroke:none;fill-rule:nonzero;fill:#cac5e8;fill-opacity:1;" d="M 34.640625 250.640625 L 25.21875 244.152344 L 34.640625 250.640625 C 34.671875 250.609375 34.703125 250.578125 34.734375 250.53125 C 34.703125 250.578125 34.671875 250.609375 34.640625 250.640625 M 34.828125 250.40625 C 34.84375 250.375 34.890625 250.328125 34.90625 250.296875 C 34.890625 250.328125 34.84375 250.375 34.828125 250.40625 M 34.96875 250.21875 C 35.03125 250.140625 35.0625 250.078125 35.109375 250.03125 C 35.0625 250.078125 35.03125 250.140625 34.96875 250.21875 M 35.109375 250.03125 C 60.820312 216.375 85.589844 211.71875 95.621094 211.355469 C 85.589844 211.71875 60.820312 216.375 35.109375 250.03125 "/></g><path style=" stroke:none;fill-rule:nonzero;fill:#c0bce4;fill-opacity:1;" d="M 95.621094 211.355469 C 96.0625 211.339844 96.46875 211.339844 96.84375 211.339844 C 96.46875 211.339844 96.0625 211.339844 95.621094 211.355469 "/><path style=" stroke:none;fill-rule:nonzero;fill:#cac5e8;fill-opacity:1;" d="M 26.222656 241.40625 C 26.253906 241.3125 26.300781 241.21875 26.332031 241.125 C 26.300781 241.21875 26.253906 241.3125 26.222656 241.40625 "/><path style=" stroke:none;fill-rule:nonzero;fill:#c0bce4;fill-opacity:1;" d="M 100.292969 211.53125 L 119.859375 183.125 L 100.292969 211.53125 "/><g clip-rule="nonzero" clip-path="url(#1bd9d325ae)"><path style=" stroke:none;fill-rule:nonzero;fill:#c7407a;fill-opacity:1;" d="M 34.640625 250.640625 L 25.21875 244.152344 C 25.234375 244.121094 25.5625 243.132812 26.222656 241.40625 C 26.253906 241.3125 26.300781 241.21875 26.332031 241.125 C 57.214844 196.292969 98.945312 185.601562 119.859375 183.125 L 100.292969 211.53125 C 100.292969 211.53125 99.117188 211.324219 96.988281 211.324219 C 96.941406 211.324219 96.894531 211.324219 96.84375 211.339844 C 96.46875 211.339844 96.0625 211.339844 95.621094 211.355469 C 85.589844 211.71875 60.820312 216.375 35.109375 250.03125 C 35.0625 250.078125 35.03125 250.140625 34.96875 250.21875 C 34.953125 250.234375 34.9375 250.265625 34.90625 250.296875 C 34.890625 250.328125 34.84375 250.375 34.828125 250.40625 C 34.796875 250.453125 34.765625 250.484375 34.734375 250.53125 C 34.703125 250.578125 34.671875 250.609375 34.640625 250.640625 "/></g></g></svg>