<svg xmlns="http://www.w3.org/2000/svg" xmlns:xlink="http://www.w3.org/1999/xlink" width="500" zoomAndPan="magnify" viewBox="0 0 375 374.999991" height="500" preserveAspectRatio="xMidYMid meet" version="1.2"><defs><clipPath id="850a2a3544"><path d="M 12.996094 12.996094 L 361.746094 12.996094 L 361.746094 361.746094 L 12.996094 361.746094 Z M 12.996094 12.996094 "/></clipPath><clipPath id="2226ca507f"><path d="M 77.019531 42.222656 L 298.660156 42.222656 L 298.660156 314 L 77.019531 314 Z M 77.019531 42.222656 "/></clipPath><clipPath id="22e4f763f0"><path d="M 77.023438 267.675781 C 77.023438 267.601562 77.25 266.550781 77.398438 266.023438 C 77.476562 265.5 77.699219 264.375 77.699219 264.375 C 77.699219 264.375 78.226562 263.398438 78.449219 262.875 C 78.675781 262.425781 79.125 261.375 79.125 261.375 C 79.199219 261.375 79.875 260.550781 80.175781 260.101562 C 80.550781 259.648438 81.226562 258.824219 81.226562 258.824219 C 81.300781 258.824219 82.125 258.148438 82.574219 257.851562 C 83.023438 257.476562 83.925781 256.875 83.925781 256.800781 C 83.925781 256.800781 84.976562 256.648438 85.199219 256.273438 C 85.5 255.898438 85.125 255.300781 85.273438 254.324219 C 85.875 251.476562 88.351562 242.550781 90.976562 238.050781 C 93.300781 234.074219 97.050781 232.050781 99.75 228.300781 C 102.976562 223.800781 105.375 216.976562 108.601562 212.625 C 111.300781 208.949219 114.226562 206.398438 117.375 203.550781 C 120.523438 200.699219 123.976562 197.851562 127.425781 195.375 C 130.800781 192.976562 134.398438 191.625 138 189 C 142.050781 186.074219 146.175781 181.574219 150.449219 178.351562 C 154.574219 175.199219 161.398438 172.425781 163.273438 169.800781 C 164.175781 168.523438 164.175781 167.023438 164.25 166.125 C 164.324219 165.601562 164.476562 165 164.25 164.925781 C 163.5 164.625 158.925781 172.574219 156.226562 172.425781 C 152.925781 172.199219 147.824219 160.949219 146.175781 160.199219 C 145.726562 160.050781 145.574219 160.273438 145.199219 160.273438 C 144.75 160.273438 143.773438 160.351562 143.773438 160.351562 C 143.699219 160.351562 142.800781 160.125 142.273438 160.050781 C 141.824219 159.976562 140.851562 159.824219 140.851562 159.824219 C 140.851562 159.824219 139.949219 159.375 139.5 159.226562 C 139.050781 159 138.148438 158.550781 138.148438 158.550781 C 138.148438 158.550781 137.398438 157.949219 137.023438 157.648438 C 136.574219 157.351562 135.824219 156.75 135.824219 156.75 C 135.824219 156.75 135.226562 156 134.925781 155.550781 C 134.625 155.175781 134.023438 154.425781 134.023438 154.425781 C 134.023438 154.425781 133.648438 153.523438 133.425781 153.074219 C 133.199219 152.625 132.824219 151.726562 132.824219 151.726562 C 132.824219 151.726562 132.675781 150.75 132.523438 150.226562 C 132.449219 149.773438 132.300781 148.800781 132.300781 148.800781 C 132.300781 148.800781 132.375 147.824219 132.375 147.300781 C 132.449219 146.851562 132.449219 145.875 132.449219 145.875 C 132.523438 145.875 132.75 144.898438 132.898438 144.449219 C 133.050781 144 133.351562 143.101562 133.351562 143.023438 C 133.351562 143.023438 131.699219 131.25 130.425781 126.449219 C 129.449219 122.550781 127.648438 118.574219 127.050781 116.25 C 126.75 115.050781 126.601562 114.375 126.523438 113.398438 C 126.449219 112.5 126.523438 111.375 126.675781 110.550781 C 126.824219 109.875 127.199219 109.425781 127.199219 108.75 C 127.273438 107.925781 126.976562 106.648438 126.75 105.976562 C 126.675781 105.449219 126.449219 105.449219 126.300781 104.773438 C 125.550781 102.449219 123.148438 87.375 123.148438 87.300781 C 123.148438 87.300781 123.148438 86.324219 123.074219 85.800781 C 123.074219 85.351562 123 84.375 123 84.375 C 123 84.375 123.226562 83.625 123.148438 83.550781 C 123.148438 83.476562 123.074219 83.476562 123.074219 83.476562 C 123.074219 83.398438 122.324219 82.726562 121.949219 82.351562 C 121.648438 82.050781 120.898438 81.300781 120.898438 81.300781 C 120.898438 81.300781 120.375 80.476562 120.074219 80.023438 C 119.851562 79.574219 119.324219 78.75 119.324219 78.75 C 119.324219 78.675781 119.023438 77.773438 118.875 77.25 C 118.726562 76.800781 118.425781 75.824219 118.425781 75.824219 C 118.351562 75.824219 118.351562 74.773438 118.273438 74.324219 C 118.273438 73.800781 118.199219 72.824219 118.199219 72.75 C 118.199219 72.75 118.351562 71.773438 118.425781 71.324219 C 118.574219 70.800781 118.726562 69.824219 118.726562 69.824219 C 118.726562 69.75 119.101562 68.851562 119.324219 68.398438 C 119.550781 67.949219 119.925781 67.050781 119.925781 67.050781 C 119.925781 67.050781 119.925781 67.050781 119.925781 66.976562 C 119.925781 66.976562 120.601562 66.226562 120.898438 65.773438 C 121.199219 65.398438 121.800781 64.648438 121.800781 64.574219 C 121.800781 64.574219 122.625 63.976562 123 63.675781 C 123.375 63.375 124.199219 62.699219 124.199219 62.699219 C 124.199219 62.699219 125.101562 62.324219 125.550781 62.101562 C 126 61.875 126.300781 61.726562 126.976562 61.425781 C 128.398438 60.824219 131.175781 59.625 133.875 58.800781 C 137.398438 57.601562 141.75 56.324219 146.476562 55.425781 C 152.175781 54.300781 165.601562 52.800781 165.675781 52.800781 C 165.675781 52.726562 166.574219 52.273438 167.023438 51.976562 C 167.476562 51.75 168.300781 51.226562 168.375 51.226562 C 168.375 51.226562 169.351562 50.925781 169.875 50.773438 C 170.324219 50.625 171.300781 50.324219 171.300781 50.324219 C 171.375 50.324219 172.351562 50.25 172.875 50.25 C 173.398438 50.25 174.449219 50.175781 174.449219 50.175781 C 174.449219 50.175781 175.425781 50.398438 175.949219 50.476562 C 176.476562 50.625 177.449219 50.773438 177.449219 50.773438 C 177.523438 50.773438 178.425781 51.226562 178.875 51.449219 C 179.324219 51.675781 180.300781 52.125 180.300781 52.125 C 180.300781 52.125 181.125 52.800781 181.5 53.101562 C 181.875 53.398438 182.699219 54.074219 182.699219 54.074219 C 182.699219 54.074219 183.300781 54.898438 183.675781 55.273438 C 183.976562 55.726562 184.574219 56.550781 184.574219 56.550781 C 184.574219 56.550781 184.574219 56.773438 184.648438 56.773438 C 184.875 56.851562 185.625 56.101562 185.851562 55.726562 C 186.074219 55.425781 186.148438 55.125 186.300781 54.75 C 186.449219 54.300781 186.75 53.851562 186.976562 53.324219 C 187.199219 52.875 187.648438 51.976562 187.648438 51.976562 C 187.648438 51.976562 188.324219 51.226562 188.625 50.773438 C 188.925781 50.398438 189.601562 49.648438 189.601562 49.648438 C 189.601562 49.648438 190.425781 49.050781 190.800781 48.75 C 191.25 48.449219 192.074219 47.851562 192.074219 47.851562 C 192.074219 47.851562 192.976562 47.476562 193.5 47.25 C 193.949219 47.023438 194.851562 46.648438 194.925781 46.648438 C 194.925781 46.648438 195.898438 46.5 196.425781 46.425781 C 196.875 46.351562 197.925781 46.199219 197.925781 46.199219 C 197.925781 46.199219 198.898438 46.273438 199.425781 46.351562 C 199.949219 46.425781 200.925781 46.5 200.925781 46.5 C 201 46.5 201 46.5 201 46.5 C 201 46.5 201.300781 46.726562 201.75 46.800781 C 203.550781 46.875 211.648438 41.699219 216.148438 42.976562 C 221.625 44.550781 229.125 54.148438 231.226562 59.023438 C 232.574219 62.023438 231.601562 67.351562 231.824219 67.5 C 231.898438 67.5 231.898438 67.5 231.898438 67.5 C 231.898438 67.5 232.875 67.351562 233.398438 67.273438 C 233.925781 67.199219 234.898438 67.125 234.898438 67.125 C 234.898438 67.125 235.875 67.199219 236.398438 67.273438 C 236.925781 67.273438 237.898438 67.425781 237.898438 67.425781 C 237.898438 67.425781 238.800781 67.726562 239.324219 67.949219 C 239.773438 68.101562 240.675781 68.476562 240.75 68.476562 C 240.75 68.476562 241.574219 69 241.949219 69.300781 C 242.398438 69.601562 243.226562 70.125 243.226562 70.125 C 243.226562 70.125 243.449219 70.574219 243.601562 70.574219 C 243.898438 70.648438 244.5 70.125 244.949219 69.898438 C 245.324219 69.675781 246.226562 69.226562 246.226562 69.226562 C 246.300781 69.226562 247.199219 69 247.726562 68.851562 C 248.175781 68.773438 249.148438 68.550781 249.148438 68.550781 C 249.148438 68.550781 250.125 68.550781 250.648438 68.550781 C 251.175781 68.550781 252.148438 68.550781 252.148438 68.550781 C 252.148438 68.550781 253.125 68.773438 253.574219 68.925781 C 254.101562 69.074219 255 69.300781 255.074219 69.300781 C 255.074219 69.300781 255.898438 69.75 256.351562 69.976562 C 256.800781 70.199219 257.699219 70.726562 257.699219 70.726562 C 257.699219 70.726562 258.449219 71.398438 258.824219 71.699219 C 259.199219 72 259.875 72.675781 259.875 72.675781 C 259.949219 72.75 260.476562 73.5 260.773438 73.949219 C 261 74.324219 261.601562 75.148438 261.601562 75.148438 C 261.601562 75.226562 261.898438 76.125 262.125 76.574219 C 262.273438 77.023438 262.648438 77.925781 262.648438 78 C 262.648438 78 262.726562 78.976562 262.800781 79.425781 C 262.875 79.949219 262.949219 80.925781 262.949219 80.925781 C 262.949219 81 262.875 81.898438 262.800781 82.425781 C 262.726562 82.949219 262.574219 83.925781 262.574219 83.925781 C 262.574219 83.925781 262.199219 84.824219 262.050781 85.273438 C 261.898438 85.800781 261.523438 86.699219 261.523438 86.699219 C 261.449219 86.773438 259.648438 97.949219 258.523438 103.574219 C 257.398438 109.199219 255.824219 115.949219 254.773438 120.449219 C 254.175781 123.375 253.199219 127.800781 253.199219 127.800781 C 253.125 127.800781 252.824219 128.773438 252.601562 129.226562 C 252.449219 129.675781 252.074219 130.648438 252.074219 130.648438 C 252.074219 130.648438 251.476562 131.476562 251.175781 131.851562 C 250.875 132.300781 250.351562 133.125 250.273438 133.125 C 250.273438 133.125 249.523438 133.800781 249.148438 134.101562 C 248.773438 134.476562 248.023438 135.074219 248.023438 135.074219 C 248.023438 135.148438 247.273438 135.226562 246.898438 135.675781 C 245.625 137.25 244.351562 146.625 243.523438 150.074219 C 243 152.023438 242.699219 153.523438 242.398438 154.574219 C 242.175781 155.175781 242.023438 155.550781 241.875 156 C 241.726562 156.449219 241.425781 157.351562 241.425781 157.425781 C 241.425781 157.425781 240.898438 158.25 240.601562 158.625 C 240.300781 159.074219 239.773438 159.898438 239.773438 159.898438 C 239.773438 159.898438 239.101562 160.574219 238.726562 160.949219 C 238.351562 161.324219 237.675781 162 237.601562 162 C 237.601562 162 236.773438 162.449219 236.324219 162.75 C 235.875 162.976562 235.050781 163.425781 235.050781 163.425781 C 234.976562 163.425781 234.074219 163.726562 233.550781 163.875 C 233.101562 164.023438 232.199219 164.25 232.125 164.25 C 232.125 164.25 231.148438 164.324219 230.625 164.324219 C 230.175781 164.324219 229.199219 164.398438 229.125 164.398438 C 229.125 164.398438 228.148438 164.175781 227.699219 164.023438 C 227.175781 163.949219 226.273438 163.726562 226.199219 163.726562 C 226.199219 163.726562 225.375 163.351562 224.925781 163.125 C 224.476562 162.898438 223.574219 162.449219 223.574219 162.449219 C 223.5 162.449219 222.75 161.773438 222.375 161.476562 C 222.074219 161.25 221.773438 160.648438 221.476562 160.726562 C 221.101562 160.800781 221.023438 161.773438 220.425781 162.449219 C 219.148438 164.101562 214.125 168.148438 213.226562 169.574219 C 212.925781 170.101562 212.625 170.625 212.851562 170.851562 C 213 171.074219 213.824219 170.851562 214.351562 170.851562 C 214.800781 170.851562 215.851562 170.925781 215.851562 170.925781 C 215.851562 170.925781 216.824219 171.148438 217.273438 171.300781 C 217.800781 171.449219 218.773438 171.675781 218.773438 171.675781 C 218.773438 171.75 219.675781 172.199219 220.125 172.425781 C 220.574219 172.726562 221.398438 173.175781 221.476562 173.175781 C 221.476562 173.175781 222.226562 173.851562 222.601562 174.226562 C 222.976562 174.601562 223.648438 175.273438 223.648438 175.273438 C 223.726562 175.273438 224.25 176.101562 224.550781 176.550781 C 224.773438 176.851562 224.851562 177.449219 225.148438 177.523438 C 225.449219 177.675781 225.898438 177.375 226.273438 177.300781 C 226.726562 177.148438 227.699219 176.925781 227.699219 176.925781 C 227.699219 176.925781 228.675781 177 229.125 177 C 229.648438 177 230.625 177 230.625 177 C 230.625 177 231.523438 177.226562 232.050781 177.375 C 232.5 177.523438 233.398438 177.75 233.476562 177.75 C 233.476562 177.75 234.300781 178.199219 234.75 178.425781 C 235.125 178.648438 235.949219 179.175781 236.023438 179.175781 C 236.023438 179.175781 236.699219 179.773438 237.074219 180.148438 C 237.449219 180.449219 238.125 181.125 238.125 181.125 C 238.199219 181.125 238.726562 181.949219 238.949219 182.324219 C 239.25 182.773438 239.773438 183.523438 239.773438 183.523438 C 239.773438 183.601562 240.074219 184.5 240.300781 184.949219 C 240.449219 185.398438 240.75 186.300781 240.75 186.300781 C 240.75 186.300781 240.898438 187.5 240.898438 187.726562 C 240.898438 187.875 240.898438 187.949219 240.976562 188.023438 C 241.050781 188.101562 241.648438 187.875 242.023438 187.875 C 242.398438 187.800781 243.375 187.648438 243.375 187.648438 C 243.375 187.648438 244.351562 187.726562 244.800781 187.800781 C 245.25 187.875 246.226562 187.949219 246.226562 187.949219 C 246.226562 187.949219 247.125 188.324219 247.5 188.476562 C 247.949219 188.625 248.851562 188.925781 248.851562 188.925781 C 248.851562 188.925781 249.675781 189.449219 250.050781 189.75 C 250.425781 189.976562 251.175781 190.5 251.25 190.5 C 251.25 190.5 251.851562 191.25 252.148438 191.550781 C 252.523438 191.925781 253.125 192.601562 253.125 192.601562 C 253.125 192.601562 253.574219 193.425781 253.800781 193.875 C 254.023438 194.25 254.476562 195.074219 254.476562 195.074219 C 254.476562 195.148438 254.699219 196.050781 254.851562 196.5 C 254.925781 196.949219 255.148438 197.851562 255.148438 197.851562 C 255.148438 197.851562 255.226562 198.824219 255.226562 199.273438 C 255.226562 199.726562 255.148438 200.398438 255.226562 200.476562 C 255.226562 200.550781 255.300781 200.476562 255.300781 200.476562 C 255.375 200.476562 256.273438 200.476562 256.726562 200.476562 C 257.175781 200.550781 258.074219 200.550781 258.074219 200.550781 C 258.074219 200.550781 258.976562 200.773438 259.425781 200.851562 C 259.875 201 260.699219 201.226562 260.699219 201.226562 C 260.773438 201.226562 260.773438 201.226562 260.773438 201.226562 C 260.773438 201.226562 261.523438 201.675781 261.976562 201.898438 C 262.351562 202.125 263.101562 202.574219 263.175781 202.574219 C 263.175781 202.574219 263.851562 203.175781 264.148438 203.476562 C 264.523438 203.773438 265.199219 204.375 265.199219 204.449219 C 265.199219 204.449219 265.726562 205.199219 265.949219 205.574219 C 266.175781 205.949219 266.699219 206.699219 266.699219 206.699219 C 266.699219 206.699219 267 207.601562 267.148438 207.976562 C 267.300781 208.425781 267.601562 209.324219 267.601562 209.324219 C 267.675781 209.324219 267.75 210.375 267.75 210.675781 C 267.824219 210.824219 267.75 210.976562 267.824219 210.976562 C 267.898438 211.050781 268.125 210.675781 268.125 210.675781 C 268.125 210.675781 268.949219 210.226562 269.398438 210 C 269.773438 209.773438 270.601562 209.324219 270.601562 209.324219 C 270.675781 209.25 271.5 209.023438 272.023438 208.875 C 272.476562 208.800781 273.375 208.5 273.375 208.5 C 273.375 208.5 274.273438 208.5 274.800781 208.5 C 275.25 208.425781 276.148438 208.425781 276.226562 208.425781 C 276.226562 208.425781 277.125 208.648438 277.574219 208.726562 C 278.023438 208.800781 279 209.023438 279 209.023438 C 279 209.023438 279.824219 209.398438 280.273438 209.625 C 280.726562 209.851562 281.550781 210.226562 281.550781 210.226562 C 281.550781 210.300781 282.300781 210.898438 282.675781 211.199219 C 282.976562 211.5 283.726562 212.023438 283.726562 212.101562 C 283.726562 212.101562 284.324219 212.851562 284.550781 213.226562 C 284.851562 213.601562 285.449219 214.351562 285.449219 214.351562 C 285.449219 214.351562 285.824219 215.25 285.976562 215.699219 C 286.125 216.074219 286.5 216.976562 286.5 216.976562 C 286.5 216.976562 286.648438 218.023438 286.726562 218.398438 C 286.800781 218.550781 286.726562 218.699219 286.800781 218.851562 C 286.875 219 287.175781 219.074219 287.398438 219.226562 C 287.773438 219.449219 288.601562 219.976562 288.601562 219.976562 C 288.601562 219.976562 289.199219 220.648438 289.5 221.023438 C 289.875 221.324219 290.476562 222 290.476562 222 C 290.476562 222 290.925781 222.824219 291.148438 223.199219 C 291.375 223.648438 291.824219 224.398438 291.824219 224.476562 C 291.824219 224.476562 292.050781 225.375 292.199219 225.75 C 292.351562 226.199219 292.574219 227.101562 292.574219 227.101562 C 292.574219 227.175781 292.574219 228.074219 292.574219 228.523438 C 292.574219 228.976562 292.648438 229.875 292.648438 229.875 C 292.648438 229.949219 292.425781 230.773438 292.351562 231.226562 C 292.199219 231.75 292.050781 232.574219 292.050781 232.648438 C 292.050781 232.648438 291.601562 233.476562 291.375 233.851562 C 291.226562 234.300781 290.773438 235.125 290.773438 235.125 C 290.773438 235.125 290.175781 235.800781 289.875 236.175781 C 289.574219 236.550781 289.050781 237.226562 288.976562 237.226562 C 288.976562 237.300781 287.925781 251.851562 287.023438 254.476562 C 286.726562 255.375 286.050781 256.125 286.125 256.125 C 286.199219 256.199219 287.625 256.273438 287.625 256.273438 C 287.625 256.273438 288.601562 256.574219 289.125 256.726562 C 289.574219 256.875 290.550781 257.175781 290.550781 257.175781 C 290.550781 257.175781 291.449219 257.699219 291.898438 257.925781 C 292.351562 258.226562 293.175781 258.75 293.175781 258.75 C 293.175781 258.75 293.925781 259.5 294.300781 259.800781 C 294.675781 260.175781 295.351562 260.925781 295.351562 260.925781 C 295.351562 260.925781 295.875 261.75 296.175781 262.199219 C 296.398438 262.648438 296.925781 263.550781 296.925781 263.550781 C 296.925781 263.550781 297.226562 264.523438 297.375 264.976562 C 297.523438 265.5 297.824219 266.476562 297.824219 266.476562 C 297.898438 266.476562 297.898438 267.449219 297.976562 267.976562 C 297.976562 268.5 298.050781 269.476562 298.050781 269.550781 C 298.050781 269.550781 297.898438 270.523438 297.75 271.050781 C 297.675781 271.5 297.523438 272.550781 297.523438 272.550781 C 297.523438 272.550781 297.074219 273.449219 296.851562 273.898438 C 296.625 274.425781 296.25 275.324219 296.25 275.324219 C 296.25 275.324219 295.949219 275.550781 295.800781 275.925781 C 295.273438 277.199219 296.101562 283.949219 294.824219 286.125 C 293.925781 287.550781 291.148438 288.300781 290.851562 288.675781 C 290.851562 288.675781 290.773438 288.75 290.773438 288.75 C 290.773438 288.824219 290.773438 288.898438 290.773438 288.898438 C 290.773438 288.898438 290.25 289.726562 289.949219 290.175781 C 289.648438 290.625 289.125 291.449219 289.125 291.523438 C 289.125 291.523438 288.976562 291.601562 288.898438 291.675781 C 288.824219 291.75 288.824219 291.824219 288.75 291.898438 C 288.675781 291.976562 288.449219 292.199219 288.300781 292.273438 C 288.148438 292.351562 288.148438 292.425781 288 292.574219 C 287.773438 292.800781 286.875 293.625 286.875 293.625 C 286.875 293.625 286.199219 293.925781 285.976562 294.148438 C 285.824219 294.226562 285.675781 294.375 285.523438 294.449219 C 285.375 294.601562 285.148438 294.601562 285 294.675781 C 284.773438 294.824219 284.175781 295.125 284.175781 295.125 C 284.175781 295.125 283.050781 295.425781 282.675781 295.574219 C 282.449219 295.648438 282.375 295.648438 282.148438 295.726562 C 282 295.726562 281.773438 295.875 281.625 295.875 C 281.550781 295.949219 281.476562 295.875 281.398438 295.875 C 281.324219 295.949219 281.175781 295.949219 281.175781 295.949219 C 281.175781 295.949219 279.898438 296.023438 279.601562 296.023438 C 279.523438 296.023438 279.449219 296.023438 279.449219 296.023438 C 279.449219 296.023438 278.101562 296.101562 278.101562 296.101562 C 278.101562 296.101562 277.800781 296.023438 277.726562 296.023438 C 277.648438 295.949219 277.574219 296.023438 277.425781 296.023438 C 277.273438 295.949219 276.976562 295.875 276.824219 295.800781 C 276.675781 295.800781 276.675781 295.800781 276.601562 295.726562 C 276.300781 295.648438 275.101562 295.425781 275.023438 295.425781 C 275.023438 295.425781 275.023438 295.351562 274.949219 295.351562 C 274.875 295.351562 274.574219 295.5 274.5 295.5 C 274.5 295.5 273.523438 295.425781 273 295.425781 C 272.550781 295.425781 271.574219 295.351562 271.5 295.351562 C 271.5 295.351562 270.523438 295.125 270.074219 294.976562 C 269.625 294.824219 268.648438 294.523438 268.648438 294.523438 C 268.574219 294.523438 267.75 294.074219 267.300781 293.773438 C 266.925781 293.550781 266.023438 293.101562 266.023438 293.101562 C 266.023438 293.023438 265.273438 292.351562 264.898438 292.050781 C 264.675781 291.824219 264.449219 291.375 264.226562 291.375 C 264.074219 291.375 263.925781 291.675781 263.925781 291.675781 C 263.851562 291.675781 263.101562 292.125 262.648438 292.351562 C 262.199219 292.574219 261.449219 292.949219 261.375 292.949219 C 261.375 293.023438 260.476562 293.175781 260.023438 293.324219 C 259.574219 293.398438 258.675781 293.625 258.675781 293.625 C 258.675781 293.625 257.773438 293.625 257.25 293.625 C 256.800781 293.625 255.898438 293.625 255.898438 293.625 C 255.824219 293.625 255 293.398438 254.476562 293.324219 C 254.023438 293.175781 253.199219 293.023438 253.125 293.023438 C 253.125 292.949219 253.125 292.949219 253.125 292.949219 C 253.125 292.949219 252.523438 292.5 252.226562 292.5 C 252 292.5 251.851562 292.648438 251.625 292.800781 C 251.25 292.949219 250.351562 293.324219 250.351562 293.324219 C 250.273438 293.324219 249.375 293.476562 248.925781 293.550781 C 248.476562 293.625 247.574219 293.773438 247.574219 293.773438 C 247.5 293.773438 246.601562 293.699219 246.148438 293.625 C 245.699219 293.625 244.800781 293.550781 244.726562 293.550781 C 244.726562 293.550781 243.898438 293.25 243.449219 293.101562 C 243 292.949219 242.101562 292.648438 242.101562 292.648438 C 242.101562 292.648438 241.273438 292.125 240.898438 291.898438 C 240.523438 291.675781 239.773438 291.148438 239.699219 291.148438 C 239.699219 291.148438 239.101562 290.476562 238.726562 290.101562 C 238.425781 289.800781 237.824219 289.125 237.824219 289.125 C 237.75 289.125 237.226562 288.148438 237.074219 287.925781 C 237 287.773438 237 287.550781 236.925781 287.550781 C 236.101562 287.550781 231 296.023438 227.398438 299.625 C 223.800781 303.300781 219.675781 309.148438 215.324219 309.523438 C 210.75 309.898438 202.351562 304.875 200.550781 301.199219 C 199.050781 298.273438 202.726562 290.851562 202.050781 290.550781 C 201.523438 290.398438 199.800781 293.773438 198.300781 296.023438 C 195.976562 299.476562 190.875 307.351562 189.523438 309.226562 C 189.074219 309.75 188.925781 309.898438 188.699219 310.199219 C 188.398438 310.5 187.875 311.175781 187.875 311.175781 C 187.875 311.175781 187.125 311.625 186.824219 311.925781 C 186.449219 312.148438 185.773438 312.675781 185.773438 312.675781 C 185.773438 312.675781 185.023438 312.976562 184.574219 313.125 C 184.199219 313.273438 183.449219 313.574219 183.449219 313.574219 C 183.375 313.574219 182.550781 313.726562 182.175781 313.800781 C 181.726562 313.800781 180.898438 313.949219 180.898438 313.949219 C 180.898438 313.949219 180.074219 313.875 179.625 313.800781 C 179.175781 313.800781 178.351562 313.726562 178.351562 313.726562 C 178.351562 313.726562 177.601562 313.425781 177.148438 313.273438 C 176.773438 313.125 175.949219 312.824219 175.949219 312.824219 C 175.949219 312.824219 175.273438 312.375 174.898438 312.148438 C 174.523438 311.925781 173.851562 311.476562 173.851562 311.476562 C 173.851562 311.398438 173.25 310.800781 172.949219 310.5 C 172.726562 310.199219 172.125 309.601562 172.125 309.601562 C 172.125 309.523438 171.675781 308.851562 171.523438 308.476562 C 171.300781 308.101562 170.925781 307.351562 170.851562 307.351562 C 170.851562 307.351562 170.699219 306.523438 170.550781 306.074219 C 170.476562 305.699219 170.25 304.875 170.25 304.875 C 170.25 304.875 170.175781 304.050781 170.175781 303.601562 C 170.175781 303.148438 170.175781 302.324219 170.175781 302.324219 C 170.175781 302.324219 170.324219 301.5 170.476562 301.125 C 170.550781 300.675781 170.699219 299.851562 170.699219 299.851562 C 170.773438 299.851562 171.148438 299.101562 171.300781 298.726562 C 171.523438 298.351562 171.824219 297.601562 171.898438 297.601562 C 171.898438 297.523438 175.648438 289.875 174.226562 288 C 172.125 285.300781 159.898438 288.449219 154.273438 288.074219 C 150.074219 287.773438 147 286.273438 143.324219 286.5 C 139.648438 286.726562 134.625 289.273438 132.300781 289.648438 C 131.25 289.800781 130.5 289.5 129.976562 289.726562 C 129.675781 289.875 129.675781 290.25 129.375 290.476562 C 128.773438 290.773438 127.199219 290.550781 126.824219 290.925781 C 126.523438 291.148438 126.601562 291.898438 126.601562 291.898438 C 126.523438 291.898438 126.523438 291.300781 126.449219 291.300781 C 126.375 291.300781 126.300781 291.75 126.148438 292.050781 C 126 292.425781 125.550781 293.550781 125.550781 293.550781 C 125.550781 293.550781 124.875 294.449219 124.574219 294.898438 C 124.199219 295.273438 123.601562 296.175781 123.601562 296.175781 C 123.601562 296.175781 122.699219 296.925781 122.324219 297.226562 C 121.875 297.601562 121.050781 298.273438 121.050781 298.273438 C 121.050781 298.273438 120.074219 298.800781 119.550781 299.023438 C 119.101562 299.25 118.125 299.699219 118.050781 299.699219 C 118.050781 299.699219 117 299.925781 116.476562 300.074219 C 115.949219 300.148438 114.898438 300.375 114.824219 300.375 C 114.824219 300.375 113.773438 300.375 113.25 300.375 C 112.648438 300.300781 111.601562 300.300781 111.601562 300.300781 C 111.523438 300.300781 110.476562 300 109.949219 299.851562 C 109.425781 299.699219 108.449219 299.398438 108.375 299.398438 C 108.375 299.398438 107.476562 298.875 106.949219 298.574219 C 106.5 298.351562 105.523438 297.824219 105.523438 297.75 C 105.523438 297.75 104.773438 297 104.324219 296.625 C 103.949219 296.25 103.574219 295.949219 103.125 295.5 C 102.601562 294.976562 101.398438 293.925781 101.25 293.773438 C 101.25 293.773438 101.25 293.699219 101.25 293.699219 C 100.800781 293.550781 90.824219 293.625 90.824219 293.625 C 90.75 293.625 89.699219 293.550781 89.175781 293.476562 C 88.648438 293.398438 87.523438 293.25 87.523438 293.25 C 87.523438 293.25 86.476562 292.875 86.023438 292.726562 C 85.5 292.5 84.449219 292.125 84.449219 292.125 C 84.449219 292.125 83.550781 291.523438 83.101562 291.226562 C 82.648438 290.925781 81.75 290.324219 81.75 290.25 C 81.75 290.25 81 289.425781 80.625 289.050781 C 80.324219 288.675781 79.574219 287.851562 79.574219 287.851562 C 79.574219 287.851562 79.050781 286.875 78.824219 286.351562 C 78.523438 285.898438 78 284.925781 78 284.925781 C 78 284.925781 77.773438 283.875 77.625 283.351562 C 77.476562 282.824219 77.25 281.773438 77.25 281.773438 C 77.25 281.699219 77.175781 280.648438 77.175781 280.125 C 77.175781 279.523438 77.175781 278.476562 77.175781 278.476562 C 77.175781 278.476562 77.476562 277.425781 77.550781 276.898438 C 77.699219 276.375 78 275.324219 78 275.25 C 78 275.25 78.375 274.726562 78.375 274.574219 C 78.375 274.425781 78.148438 274.125 78.074219 274.125 C 78.074219 274.125 77.773438 273.074219 77.625 272.550781 C 77.476562 272.023438 77.175781 270.976562 77.175781 270.976562 C 77.175781 270.976562 77.175781 269.851562 77.101562 269.324219 C 77.101562 268.726562 77.023438 267.675781 77.023438 267.675781 M 279.375 296.023438 C 279.449219 296.023438 279.449219 296.023438 279.449219 296.023438 C 279.449219 296.023438 279.375 296.023438 279.375 296.023438 "/></clipPath></defs><g id="5533aacd6e"><g clip-rule="nonzero" clip-path="url(#850a2a3544)"><path style=" stroke:none;fill-rule:nonzero;fill:#e1433e;fill-opacity:1;" d="M 187.371094 12.996094 C 91.222656 12.996094 12.996094 91.222656 12.996094 187.371094 C 12.996094 283.519531 91.222656 361.746094 187.371094 361.746094 C 283.519531 361.746094 361.746094 283.519531 361.746094 187.371094 C 361.746094 91.222656 283.519531 12.996094 187.371094 12.996094 Z M 187.371094 58.484375 C 216.636719 58.484375 240.441406 82.292969 240.441406 111.554688 C 240.441406 140.820312 216.636719 164.625 187.371094 164.625 C 158.105469 164.625 134.300781 140.820312 134.300781 111.554688 C 134.300781 82.292969 158.105469 58.484375 187.371094 58.484375 Z M 278.347656 285.929688 L 96.394531 285.929688 C 92.207031 285.929688 88.8125 282.535156 88.8125 278.347656 C 88.8125 224.003906 133.027344 179.789062 187.371094 179.789062 C 241.714844 179.789062 285.929688 224.003906 285.929688 278.347656 C 285.929688 282.535156 282.535156 285.929688 278.347656 285.929688 Z M 278.347656 285.929688 "/></g><g clip-rule="nonzero" clip-path="url(#2226ca507f)"><g clip-rule="nonzero" clip-path="url(#22e4f763f0)"><path style=" stroke:none;fill-rule:nonzero;fill:#e1433e;fill-opacity:1;" d="M 74.023438 39.976562 L 300.90625 39.976562 L 300.90625 317.023438 L 74.023438 317.023438 Z M 74.023438 39.976562 "/></g></g><path style=" stroke:none;fill-rule:evenodd;fill:#ffffff;fill-opacity:1;" d="M 205.65625 187.414062 L 260.371094 132.703125 C 265.402344 127.667969 265.414062 119.488281 260.378906 114.453125 C 255.351562 109.425781 247.171875 109.417969 242.128906 114.460938 L 187.417969 169.175781 L 132.703125 114.460938 C 127.667969 109.425781 119.492188 109.417969 114.453125 114.453125 C 109.429688 119.480469 109.421875 127.660156 114.460938 132.703125 L 169.175781 187.414062 L 114.460938 242.128906 C 109.429688 247.164062 109.417969 255.339844 114.453125 260.375 C 119.480469 265.402344 127.660156 265.410156 132.703125 260.367188 L 187.417969 205.65625 L 242.128906 260.367188 C 247.164062 265.402344 255.339844 265.414062 260.378906 260.375 C 265.402344 255.347656 265.410156 247.167969 260.371094 242.128906 Z M 205.65625 187.414062 "/></g></svg>